M48
; DRILL file {KiCad 9.0.1} date 2025-11-13T15:57:47-0500
; FORMAT={-:-/ absolute / metric / decimal}
; #@! TF.CreationDate,2025-11-13T15:57:47-05:00
; #@! TF.GenerationSoftware,Kicad,Pcbnew,9.0.1
; #@! TF.FileFunction,MixedPlating,1,2
FMAT,2
METRIC
; #@! TA.AperFunction,Plated,PTH,ViaDrill
T1C0.300
; #@! TA.AperFunction,Plated,PTH,ComponentDrill
T2C0.800
; #@! TA.AperFunction,Plated,PTH,ComponentDrill
T3C0.889
; #@! TA.AperFunction,Plated,PTH,ComponentDrill
T4C0.900
; #@! TA.AperFunction,Plated,PTH,ComponentDrill
T5C1.000
; #@! TA.AperFunction,Plated,PTH,ComponentDrill
T6C1.100
; #@! TA.AperFunction,Plated,PTH,ComponentDrill
T7C1.397
; #@! TA.AperFunction,NonPlated,NPTH,ComponentDrill
T8C1.300
; #@! TA.AperFunction,NonPlated,NPTH,ComponentDrill
T9C1.800
; #@! TA.AperFunction,NonPlated,NPTH,ComponentDrill
T10C2.500
%
G90
G05
T1
X85.75Y-86.25
X89.5Y-71.25
X90.5Y-81.5
X90.75Y-64.75
X91.75Y-71.25
X92.0Y-81.0
X92.25Y-110.75
X92.25Y-111.5
X93.25Y-35.5
X93.25Y-65.5
X96.75Y-95.0
X96.75Y-97.5
X97.0Y-73.5
X97.5Y-108.5
X98.25Y-108.5
X100.75Y-101.0
X100.75Y-110.0
X101.5Y-108.5
X102.25Y-108.5
X103.5Y-69.25
X104.0Y-54.75
X104.5Y-63.75
X105.0Y-57.0
X107.25Y-78.0
X108.75Y-79.0
X116.5Y-76.75
X121.25Y-42.25
X121.25Y-82.25
X122.5Y-87.5
X124.75Y-77.5
X125.0Y-43.25
X125.25Y-74.75
X126.0Y-87.5
X126.75Y-36.75
X135.0Y-103.75
X135.75Y-75.0
X137.25Y-29.25
X137.25Y-33.75
X137.5Y-103.75
X138.25Y-86.25
X138.5Y-31.5
X138.5Y-34.0
X140.25Y-74.5
X142.0Y-83.75
X142.5Y-84.5
X143.0Y-69.5
X143.0Y-78.75
X143.0Y-87.0
X143.25Y-79.75
X143.25Y-82.25
X143.75Y-45.5
X143.75Y-51.5
X143.75Y-53.5
X144.0Y-77.0
X144.0Y-85.25
X144.5Y-28.25
X144.5Y-34.5
X144.5Y-38.5
X144.5Y-96.25
X144.5Y-98.0
X144.5Y-118.0
X144.75Y-52.0
X144.75Y-55.5
X145.0Y-89.25
X145.5Y-30.25
X145.5Y-34.5
X145.5Y-38.5
X145.5Y-82.0
X145.75Y-55.5
X146.5Y-82.0
X147.0Y-54.75
X147.005Y-57.25
X147.5Y-82.0
X148.0Y-65.5
X149.5Y-55.5
X149.5Y-57.25
X149.75Y-45.5
X149.75Y-79.75
X149.75Y-88.25
X149.75Y-99.75
X150.0Y-86.25
X150.5Y-46.25
X150.5Y-55.75
X150.5Y-57.25
X150.5Y-81.25
X150.75Y-118.25
X151.5Y-55.75
X151.5Y-57.25
X151.5Y-79.75
X151.75Y-76.5
X151.75Y-83.5
X151.75Y-89.75
X152.25Y-98.75
X152.5Y-55.75
X152.5Y-57.25
X152.5Y-85.5
X153.0Y-118.25
X153.25Y-74.0
X153.25Y-77.5
X153.75Y-72.25
X154.5Y-25.5
X154.5Y-27.0
X154.5Y-55.75
X154.5Y-57.25
X154.5Y-70.25
X154.5Y-78.75
X154.5Y-81.25
X154.5Y-86.5
X154.75Y-73.0
X154.75Y-95.5
X155.0Y-71.75
X155.75Y-73.25
X155.75Y-100.25
X156.0Y-80.5
X156.0Y-94.75
X156.0Y-119.5
X156.25Y-82.0
X156.25Y-85.25
X156.5Y-97.25
X156.75Y-90.25
X157.0Y-102.25
X157.25Y-85.5
X157.25Y-100.75
X158.0Y-102.25
X158.25Y-85.5
X158.5Y-96.25
X159.5Y-68.5
X159.5Y-70.5
X159.5Y-100.75
X159.75Y-79.0
X160.25Y-57.5
X161.25Y-104.25
X161.5Y-80.25
X161.75Y-57.75
X162.0Y-69.0
X162.5Y-73.75
X162.5Y-99.75
X163.0Y-76.25
X163.0Y-105.25
X163.25Y-50.75
X163.5Y-57.75
X163.5Y-78.75
X164.0Y-53.75
X164.0Y-77.75
X164.25Y-55.5
X164.25Y-72.75
X164.5Y-102.25
X164.5Y-104.5
X164.75Y-75.25
X164.75Y-85.0
X165.0Y-83.75
X165.25Y-73.75
X165.5Y-102.25
X166.5Y-80.25
X166.5Y-103.75
X166.75Y-85.5
X167.0Y-52.75
X167.0Y-83.75
X167.25Y-77.25
X167.5Y-57.25
X167.5Y-74.5
X168.0Y-33.75
X170.25Y-43.25
X170.75Y-53.75
X171.25Y-75.0
X171.75Y-80.25
X172.25Y-54.5
X172.25Y-78.5
X173.25Y-80.75
X175.0Y-55.75
X175.0Y-80.75
X175.25Y-56.75
X177.0Y-49.0
X177.0Y-80.5
X177.0Y-89.75
X179.5Y-90.5
X183.25Y-96.75
X183.5Y-85.25
X184.5Y-87.5
X184.75Y-78.0
X185.25Y-80.5
X185.5Y-86.25
X185.75Y-78.5
X186.0Y-96.25
X186.25Y-80.75
X188.5Y-35.5
X188.75Y-88.75
X188.75Y-91.25
X192.5Y-36.25
X197.75Y-91.0
X198.75Y-87.0
X203.75Y-80.0
X204.25Y-50.25
X204.25Y-78.5
X205.75Y-51.25
X209.75Y-83.5
T2
X146.96Y-92.5
X148.206Y-18.155
X149.5Y-92.5
X150.746Y-18.155
X152.04Y-92.5
T3
X83.713Y-47.125
X86.253Y-47.105
X88.793Y-47.125
X95.158Y-58.54
X95.173Y-53.475
X95.173Y-56.015
X209.195Y-80.625
X211.735Y-80.605
X214.275Y-80.625
X220.64Y-92.04
X220.655Y-86.975
X220.655Y-89.515
T4
X83.083Y-61.855
X83.093Y-66.795
X89.443Y-61.875
X89.443Y-66.815
X208.565Y-95.355
X208.575Y-100.295
X214.925Y-95.375
X214.925Y-100.315
T5
X79.5Y-21.7
X84.0Y-21.7
X90.5Y-20.0
X90.5Y-22.54
X90.5Y-25.08
X129.322Y-108.256
X129.322Y-120.956
X131.862Y-108.256
X131.862Y-120.956
X134.402Y-108.256
X134.402Y-120.956
X136.942Y-108.256
X136.942Y-120.956
X139.482Y-108.256
X139.482Y-120.956
X142.022Y-108.256
X142.022Y-120.956
X153.21Y-108.256
X155.75Y-108.256
X158.29Y-108.256
X158.29Y-120.956
X160.83Y-120.956
X160.83Y-108.256
X163.37Y-108.256
X163.37Y-120.956
X165.91Y-120.956
X165.91Y-108.256
X168.45Y-108.256
X168.45Y-120.956
X170.99Y-108.256
X173.53Y-108.256
X180.161Y-78.06
X180.161Y-72.98
X180.161Y-62.82
X180.161Y-65.36
X180.161Y-67.9
X180.161Y-70.44
X180.161Y-75.52
X180.161Y-55.2
X180.161Y-60.28
X180.161Y-57.74
X206.5Y-19.96
X206.5Y-22.5
X206.5Y-25.04
X213.016Y-21.7
X217.516Y-21.7
T6
X75.0Y-84.5
X75.0Y-91.0
X79.5Y-84.5
X79.5Y-91.0
X82.75Y-94.25
X82.75Y-98.75
X82.768Y-76.75
X82.768Y-81.25
X89.25Y-94.25
X89.25Y-98.75
X89.268Y-76.75
X89.268Y-81.25
X92.5Y-84.5
X92.5Y-91.0
X97.0Y-84.5
X97.0Y-91.0
X124.75Y-90.25
X124.75Y-94.75
X131.25Y-90.25
X131.25Y-94.75
X141.856Y-17.425
X141.856Y-19.965
X141.856Y-22.505
X141.856Y-25.045
X141.856Y-27.585
X141.856Y-30.125
X141.856Y-32.665
X141.856Y-35.205
X141.856Y-37.745
X141.856Y-40.285
X141.856Y-42.825
X141.856Y-45.365
X141.856Y-47.905
X141.856Y-50.445
X141.856Y-52.985
X141.856Y-55.525
X141.856Y-58.065
X141.856Y-60.605
X141.856Y-63.145
X141.856Y-65.685
X141.856Y-68.225
X141.856Y-70.765
X141.856Y-73.305
X141.856Y-75.845
X157.096Y-17.425
X157.096Y-19.965
X157.096Y-22.505
X157.096Y-25.045
X157.096Y-27.585
X157.096Y-30.125
X157.096Y-32.665
X157.096Y-35.205
X157.096Y-37.745
X157.096Y-40.285
X157.096Y-42.825
X157.096Y-45.365
X157.096Y-47.905
X157.096Y-50.445
X157.096Y-52.985
X157.096Y-55.525
X157.096Y-58.065
X157.096Y-60.605
X157.096Y-63.145
X157.096Y-65.685
X157.096Y-68.225
X157.096Y-70.765
X157.096Y-73.305
X157.096Y-75.845
X167.75Y-90.25
X167.75Y-94.75
X174.25Y-90.25
X174.25Y-94.75
X196.625Y-54.222
X196.625Y-58.722
X203.125Y-54.222
X203.125Y-58.722
X208.5Y-44.222
X208.5Y-48.722
X208.5Y-64.222
X208.5Y-68.722
X215.0Y-44.222
X215.0Y-48.722
X215.0Y-64.222
X215.0Y-68.722
X220.375Y-54.222
X220.375Y-58.722
X226.875Y-54.222
X226.875Y-58.722
T7
X79.918Y-50.92
X79.918Y-61.08
X92.618Y-50.935
X92.618Y-61.065
X205.4Y-84.42
X205.4Y-94.58
X218.1Y-84.435
X218.1Y-94.565
T8
X78.25Y-24.25
X85.25Y-24.25
X211.766Y-24.25
X218.766Y-24.25
T9
X117.25Y-19.825
X117.25Y-26.825
X130.25Y-19.825
X130.25Y-26.825
X168.75Y-19.75
X168.75Y-26.75
X181.651Y-19.75
X181.651Y-26.75
T10
X119.221Y-48.85
X119.221Y-84.41
X125.512Y-108.256
X125.512Y-120.956
X145.832Y-108.256
X145.832Y-120.956
X153.21Y-120.956
X173.58Y-121.056
X180.181Y-84.41
X180.181Y-48.85
T2
G00X114.71Y-17.525
M15
G01X114.71Y-18.125
M16
G05
G00X114.71Y-20.225
M15
G01X114.71Y-21.025
M16
G05
G00X117.1Y-31.025
M15
G01X115.9Y-31.025
M16
G05
G00X119.57Y-27.525
M15
G01X119.57Y-28.725
M16
G05
G00X119.79Y-18.425
M15
G01X119.79Y-19.025
M16
G05
G00X127.71Y-17.525
M15
G01X127.71Y-18.125
M16
G05
G00X127.71Y-20.225
M15
G01X127.71Y-21.025
M16
G05
G00X130.1Y-31.025
M15
G01X128.9Y-31.025
M16
G05
G00X132.57Y-27.525
M15
G01X132.57Y-28.725
M16
G05
G00X132.79Y-18.425
M15
G01X132.79Y-19.025
M16
G05
G00X166.21Y-17.45
M15
G01X166.21Y-18.05
M16
G05
G00X166.21Y-20.15
M15
G01X166.21Y-20.95
M16
G05
G00X168.6Y-30.95
M15
G01X167.4Y-30.95
M16
G05
G00X171.07Y-27.45
M15
G01X171.07Y-28.65
M16
G05
G00X171.29Y-18.35
M15
G01X171.29Y-18.95
M16
G05
G00X179.111Y-17.45
M15
G01X179.111Y-18.05
M16
G05
G00X179.111Y-20.15
M15
G01X179.111Y-20.95
M16
G05
G00X181.501Y-30.95
M15
G01X180.301Y-30.95
M16
G05
G00X183.971Y-27.45
M15
G01X183.971Y-28.65
M16
G05
G00X184.191Y-18.35
M15
G01X184.191Y-18.95
M16
G05
M30
