%TF.GenerationSoftware,KiCad,Pcbnew,9.0.1*%
%TF.CreationDate,2025-11-13T15:57:43-05:00*%
%TF.ProjectId,prod-design-sound-controller-v2,70726f64-2d64-4657-9369-676e2d736f75,rev?*%
%TF.SameCoordinates,Original*%
%TF.FileFunction,Copper,L2,Bot*%
%TF.FilePolarity,Positive*%
%FSLAX46Y46*%
G04 Gerber Fmt 4.6, Leading zero omitted, Abs format (unit mm)*
G04 Created by KiCad (PCBNEW 9.0.1) date 2025-11-13 15:57:43*
%MOMM*%
%LPD*%
G01*
G04 APERTURE LIST*
%TA.AperFunction,EtchedComponent*%
%ADD10C,0.000000*%
%TD*%
%TA.AperFunction,ComponentPad*%
%ADD11C,1.778000*%
%TD*%
%TA.AperFunction,ComponentPad*%
%ADD12C,2.286000*%
%TD*%
%TA.AperFunction,ComponentPad*%
%ADD13C,1.700000*%
%TD*%
%TA.AperFunction,ComponentPad*%
%ADD14C,2.000000*%
%TD*%
%TA.AperFunction,ComponentPad*%
%ADD15R,1.700000X1.700000*%
%TD*%
%TA.AperFunction,ComponentPad*%
%ADD16C,1.600000*%
%TD*%
%TA.AperFunction,ComponentPad*%
%ADD17R,1.500000X1.500000*%
%TD*%
%TA.AperFunction,ComponentPad*%
%ADD18R,1.778000X1.778000*%
%TD*%
%TA.AperFunction,ComponentPad*%
%ADD19R,1.600000X1.600000*%
%TD*%
%TA.AperFunction,ComponentPad*%
%ADD20C,1.300000*%
%TD*%
%TA.AperFunction,ComponentPad*%
%ADD21O,2.600000X1.400000*%
%TD*%
%TA.AperFunction,ComponentPad*%
%ADD22O,1.400000X2.600000*%
%TD*%
%TA.AperFunction,ComponentPad*%
%ADD23O,1.400000X2.000000*%
%TD*%
%TA.AperFunction,ComponentPad*%
%ADD24O,1.400000X2.200000*%
%TD*%
%TA.AperFunction,ViaPad*%
%ADD25C,0.600000*%
%TD*%
%TA.AperFunction,Conductor*%
%ADD26C,0.200000*%
%TD*%
G04 APERTURE END LIST*
D10*
%TA.AperFunction,EtchedComponent*%
%TO.C,G\u002A\u002A\u002A*%
G36*
X224762822Y-115642051D02*
G01*
X225026233Y-115795427D01*
X225255767Y-115929306D01*
X225432243Y-116032519D01*
X225583458Y-116121014D01*
X225827396Y-116263321D01*
X226069762Y-116404270D01*
X226266015Y-116517957D01*
X226275371Y-116523377D01*
X226479384Y-116641617D01*
X226629531Y-116733784D01*
X226731830Y-116809749D01*
X226798385Y-116882900D01*
X226841300Y-116966622D01*
X226872678Y-117074304D01*
X226904624Y-117219331D01*
X226912116Y-117254071D01*
X226979125Y-117564798D01*
X226845359Y-117929747D01*
X226806753Y-118041355D01*
X226760131Y-118205427D01*
X226738802Y-118326642D01*
X226743093Y-118396164D01*
X226773337Y-118405156D01*
X226829862Y-118344783D01*
X226854733Y-118314073D01*
X226929541Y-118262321D01*
X226989856Y-118269622D01*
X227014637Y-118336877D01*
X226992899Y-118398032D01*
X226899373Y-118444907D01*
X226863536Y-118457697D01*
X226811891Y-118476129D01*
X226738942Y-118526319D01*
X226736314Y-118529310D01*
X226661924Y-118573859D01*
X226551601Y-118606025D01*
X226537933Y-118608455D01*
X226441362Y-118629508D01*
X226392877Y-118646947D01*
X226392526Y-118663104D01*
X226416641Y-118735838D01*
X226464954Y-118843334D01*
X226502819Y-118924386D01*
X226545645Y-119051677D01*
X226541334Y-119138639D01*
X226492052Y-119202070D01*
X226491191Y-119203178D01*
X226453193Y-119262186D01*
X226438799Y-119362853D01*
X226434647Y-119439067D01*
X226406881Y-119484828D01*
X226362211Y-119515272D01*
X226319743Y-119587351D01*
X226320812Y-119653577D01*
X226365266Y-119664130D01*
X226444345Y-119643937D01*
X226519551Y-119605868D01*
X226553253Y-119564367D01*
X226553463Y-119561246D01*
X226588235Y-119533442D01*
X226607481Y-119565774D01*
X226605800Y-119647996D01*
X226589013Y-119696333D01*
X226512456Y-119793542D01*
X226405430Y-119872178D01*
X226300858Y-119904545D01*
X226290910Y-119906633D01*
X226228797Y-119944457D01*
X226148924Y-120010485D01*
X226079968Y-120079366D01*
X226050610Y-120125751D01*
X226067269Y-120148158D01*
X226128614Y-120152265D01*
X226200372Y-120130617D01*
X226245024Y-120090097D01*
X226276350Y-120053708D01*
X226358972Y-120027615D01*
X226417350Y-120021969D01*
X226498668Y-119995789D01*
X226534170Y-119964803D01*
X226605904Y-119878193D01*
X226680621Y-119769970D01*
X226739358Y-119668390D01*
X226763151Y-119601708D01*
X226764968Y-119584144D01*
X226801516Y-119510763D01*
X226827966Y-119465934D01*
X226853909Y-119372718D01*
X226876117Y-119304777D01*
X226930808Y-119242139D01*
X226972272Y-119222206D01*
X227110788Y-119162109D01*
X227262012Y-119102441D01*
X227381845Y-119060918D01*
X227466196Y-119007025D01*
X227539024Y-118914061D01*
X227552799Y-118885667D01*
X227598932Y-118686814D01*
X227575919Y-118470584D01*
X227488037Y-118255301D01*
X227339562Y-118059292D01*
X227207679Y-117925239D01*
X227284752Y-117708805D01*
X227319311Y-117621049D01*
X227408490Y-117455324D01*
X227504739Y-117345944D01*
X227598263Y-117305507D01*
X227633990Y-117300794D01*
X227748363Y-117233664D01*
X227867877Y-117085933D01*
X227896847Y-117044524D01*
X227949310Y-116996502D01*
X227980497Y-117019137D01*
X227990850Y-117114815D01*
X227980809Y-117285923D01*
X227950815Y-117534847D01*
X227924343Y-117729504D01*
X227900274Y-117927033D01*
X227889406Y-118070186D01*
X227892488Y-118174496D01*
X227910267Y-118255491D01*
X227943489Y-118328703D01*
X227992903Y-118409662D01*
X228004968Y-118428497D01*
X228060258Y-118522462D01*
X228082140Y-118596879D01*
X228074522Y-118684817D01*
X228041311Y-118819346D01*
X228010304Y-118938025D01*
X227987165Y-119043231D01*
X227987366Y-119097653D01*
X228012083Y-119118031D01*
X228062491Y-119121104D01*
X228103006Y-119124430D01*
X228140854Y-119155013D01*
X228115589Y-119223279D01*
X228026040Y-119336146D01*
X227938760Y-119467038D01*
X227887464Y-119628682D01*
X227884770Y-119652461D01*
X227880850Y-119740446D01*
X227903726Y-119770403D01*
X227964890Y-119762138D01*
X227986492Y-119757506D01*
X228052174Y-119767883D01*
X228087169Y-119842598D01*
X228129746Y-119919708D01*
X228208921Y-120008218D01*
X228296943Y-120080689D01*
X228366320Y-120110714D01*
X228371617Y-120109039D01*
X228423829Y-120074017D01*
X228506415Y-120007881D01*
X228513198Y-120002100D01*
X228586394Y-119924238D01*
X228621015Y-119834462D01*
X228631118Y-119697818D01*
X228637307Y-119592478D01*
X228667442Y-119469790D01*
X228720449Y-119421065D01*
X228794213Y-119449524D01*
X228828421Y-119489259D01*
X228858861Y-119579724D01*
X228869834Y-119623113D01*
X228922301Y-119657143D01*
X228971106Y-119665332D01*
X229063185Y-119704722D01*
X229076297Y-119712322D01*
X229150925Y-119727851D01*
X229239599Y-119684105D01*
X229280245Y-119659663D01*
X229376988Y-119623314D01*
X229455317Y-119618241D01*
X229487574Y-119648424D01*
X229484711Y-119662380D01*
X229455227Y-119736501D01*
X229404120Y-119841972D01*
X229390809Y-119868869D01*
X229332422Y-120014855D01*
X229296101Y-120149636D01*
X229295820Y-120151307D01*
X229268427Y-120285710D01*
X229237139Y-120403723D01*
X229233810Y-120414930D01*
X229223495Y-120531334D01*
X229220495Y-120565190D01*
X229245914Y-120736073D01*
X229301956Y-120893624D01*
X229380511Y-121003888D01*
X229382144Y-121005304D01*
X229439870Y-121070477D01*
X229430223Y-121112439D01*
X229348019Y-121134897D01*
X229188075Y-121141558D01*
X229100934Y-121138327D01*
X229035473Y-121115493D01*
X228986257Y-121054067D01*
X228929539Y-120935082D01*
X228869831Y-120816328D01*
X228813921Y-120751887D01*
X228754075Y-120739221D01*
X228736191Y-120743086D01*
X228688095Y-120779763D01*
X228646417Y-120865988D01*
X228605611Y-121006763D01*
X228602395Y-121017857D01*
X228567239Y-121144951D01*
X228504834Y-121341339D01*
X228443051Y-121509286D01*
X228420794Y-121565014D01*
X228382420Y-121683890D01*
X228377249Y-121769562D01*
X228401690Y-121851759D01*
X228406529Y-121863499D01*
X228430381Y-121958572D01*
X228403856Y-122018008D01*
X228380081Y-122051611D01*
X228355891Y-122142361D01*
X228355121Y-122172403D01*
X228340102Y-122196393D01*
X228290026Y-122154731D01*
X228240861Y-122116989D01*
X228166838Y-122089935D01*
X228147687Y-122097817D01*
X228076020Y-122150874D01*
X227971711Y-122240972D01*
X227850677Y-122352845D01*
X227728833Y-122471224D01*
X227622096Y-122580842D01*
X227546382Y-122666430D01*
X227517607Y-122712721D01*
X227531579Y-122738628D01*
X227594204Y-122814669D01*
X227694854Y-122924339D01*
X227820006Y-123054146D01*
X227956138Y-123190603D01*
X228089726Y-123320218D01*
X228207248Y-123429502D01*
X228295181Y-123504965D01*
X228340003Y-123533117D01*
X228392606Y-123521293D01*
X228501987Y-123483128D01*
X228637612Y-123427745D01*
X228879809Y-123322372D01*
X228973912Y-123438053D01*
X228986000Y-123453106D01*
X229044366Y-123532590D01*
X229068224Y-123577444D01*
X229070669Y-123583293D01*
X229103843Y-123595875D01*
X229185195Y-123605127D01*
X229326609Y-123612064D01*
X229539967Y-123617699D01*
X229605732Y-123620165D01*
X229701436Y-123629109D01*
X229739059Y-123641119D01*
X229716815Y-123679649D01*
X229656477Y-123765281D01*
X229571402Y-123878811D01*
X229489631Y-123991470D01*
X229427509Y-124089645D01*
X229403745Y-124145062D01*
X229406854Y-124151623D01*
X229421764Y-124183088D01*
X229490229Y-124189069D01*
X229594475Y-124149771D01*
X229718102Y-124069156D01*
X229785284Y-124018899D01*
X229887298Y-123957677D01*
X229937197Y-123954680D01*
X229932157Y-124010678D01*
X229920519Y-124044672D01*
X229906716Y-124113209D01*
X229904488Y-124120601D01*
X229854700Y-124163030D01*
X229760016Y-124210817D01*
X229734853Y-124221802D01*
X229648282Y-124272077D01*
X229628591Y-124295942D01*
X229613316Y-124314454D01*
X229608398Y-124332109D01*
X229556941Y-124357792D01*
X229501078Y-124378238D01*
X229424703Y-124440260D01*
X229405363Y-124462428D01*
X229379111Y-124511469D01*
X229412495Y-124516220D01*
X229497916Y-124478224D01*
X229627772Y-124399026D01*
X229701588Y-124352075D01*
X229799703Y-124296851D01*
X229855269Y-124275325D01*
X229885892Y-124265429D01*
X229948630Y-124213474D01*
X229958796Y-124201983D01*
X230036714Y-124152197D01*
X230093999Y-124178731D01*
X230116287Y-124276209D01*
X230094077Y-124382269D01*
X230014818Y-124446275D01*
X229951703Y-124490874D01*
X229933847Y-124544305D01*
X229937670Y-124569612D01*
X229903097Y-124628012D01*
X229876608Y-124639603D01*
X229881756Y-124611566D01*
X229881822Y-124611461D01*
X229884480Y-124571367D01*
X229830134Y-124569565D01*
X229736303Y-124606646D01*
X229719553Y-124616011D01*
X229661621Y-124667875D01*
X229672457Y-124700993D01*
X229749538Y-124697946D01*
X229810581Y-124685204D01*
X229816855Y-124701336D01*
X229763998Y-124763656D01*
X229748166Y-124780049D01*
X229655895Y-124839483D01*
X229570331Y-124847796D01*
X229517413Y-124801055D01*
X229483374Y-124774426D01*
X229422823Y-124791866D01*
X229365932Y-124843675D01*
X229340573Y-124912315D01*
X229340309Y-124918606D01*
X229298828Y-125002576D01*
X229208842Y-125071443D01*
X229102346Y-125100000D01*
X229039559Y-125084549D01*
X228927339Y-125037045D01*
X228790384Y-124968448D01*
X228648824Y-124889972D01*
X228522788Y-124812835D01*
X228432406Y-124748251D01*
X228397805Y-124707436D01*
X228374374Y-124647679D01*
X228285592Y-124561902D01*
X228147010Y-124477109D01*
X227976113Y-124405805D01*
X227892316Y-124376500D01*
X227797813Y-124331810D01*
X227765654Y-124295942D01*
X228733118Y-124295942D01*
X228754075Y-124316558D01*
X228775033Y-124295942D01*
X228754075Y-124275325D01*
X228733118Y-124295942D01*
X227765654Y-124295942D01*
X227752397Y-124281156D01*
X227735622Y-124207697D01*
X227739570Y-124124048D01*
X227801310Y-124015937D01*
X227839270Y-123985648D01*
X227886511Y-123973620D01*
X227950378Y-124001101D01*
X228055596Y-124073708D01*
X228108611Y-124109547D01*
X228222611Y-124167157D01*
X228298507Y-124175874D01*
X228298706Y-124175799D01*
X228342033Y-124143498D01*
X228335038Y-124130178D01*
X228574417Y-124130178D01*
X228579433Y-124179113D01*
X228592040Y-124185563D01*
X228607376Y-124151623D01*
X228604351Y-124129794D01*
X228579433Y-124124134D01*
X228574417Y-124130178D01*
X228335038Y-124130178D01*
X228313565Y-124089285D01*
X228277732Y-124056967D01*
X228205025Y-124027922D01*
X228144037Y-123996494D01*
X228076822Y-123920676D01*
X228056868Y-123888787D01*
X228027435Y-123797261D01*
X228052411Y-123690885D01*
X228078782Y-123587535D01*
X228076401Y-123509301D01*
X228051547Y-123486459D01*
X227959332Y-123439314D01*
X227817091Y-123382860D01*
X227643051Y-123324855D01*
X227232731Y-123199448D01*
X226966506Y-123281806D01*
X226839386Y-123316739D01*
X226635163Y-123360928D01*
X226454718Y-123387843D01*
X226385927Y-123396678D01*
X226221323Y-123436173D01*
X226030567Y-123508437D01*
X225792525Y-123620911D01*
X225646267Y-123697862D01*
X225509887Y-123777642D01*
X225420062Y-123839976D01*
X225391268Y-123875675D01*
X225393847Y-123880913D01*
X225450381Y-123921400D01*
X225550491Y-123957382D01*
X225557049Y-123959080D01*
X225674649Y-124001597D01*
X225760511Y-124052052D01*
X225793233Y-124076765D01*
X225900657Y-124108102D01*
X225995252Y-124065888D01*
X226039025Y-124047744D01*
X226169463Y-124039102D01*
X226379021Y-124050437D01*
X226525934Y-124063599D01*
X226629766Y-124076876D01*
X226672803Y-124092786D01*
X226667285Y-124116417D01*
X226625452Y-124152856D01*
X226571546Y-124199917D01*
X226561618Y-124236035D01*
X226559307Y-124244443D01*
X226606337Y-124305564D01*
X226662578Y-124375699D01*
X226679533Y-124436456D01*
X226636028Y-124480366D01*
X226524304Y-124514324D01*
X226336602Y-124545224D01*
X226309594Y-124548268D01*
X226115113Y-124545487D01*
X225861737Y-124510316D01*
X225563797Y-124445259D01*
X225235623Y-124352821D01*
X225210388Y-124345069D01*
X224997933Y-124292437D01*
X224825202Y-124282664D01*
X224662175Y-124317582D01*
X224627671Y-124332909D01*
X224478828Y-124399026D01*
X224359909Y-124456658D01*
X224244090Y-124504396D01*
X224174650Y-124522727D01*
X224155416Y-124525736D01*
X224069239Y-124563641D01*
X223965083Y-124631101D01*
X223894703Y-124688337D01*
X223856361Y-124741079D01*
X223877298Y-124776672D01*
X223880256Y-124778651D01*
X223891105Y-124798301D01*
X223824360Y-124788932D01*
X223734288Y-124785106D01*
X223687153Y-124834815D01*
X223675843Y-124875816D01*
X223681472Y-124927222D01*
X223689731Y-124931790D01*
X223703415Y-124900703D01*
X223706460Y-124884174D01*
X223753171Y-124852597D01*
X223765981Y-124857173D01*
X223754273Y-124894889D01*
X223701345Y-124956540D01*
X223625433Y-125024903D01*
X223544770Y-125082757D01*
X223477592Y-125112878D01*
X223458053Y-125116587D01*
X223331571Y-125132060D01*
X223237183Y-125116028D01*
X223132112Y-125062219D01*
X223112898Y-125049971D01*
X223008939Y-124972730D01*
X222875370Y-124862449D01*
X222736191Y-124738737D01*
X222693108Y-124699209D01*
X222602497Y-124615314D01*
X222574566Y-124584578D01*
X223326188Y-124584578D01*
X223347145Y-124605195D01*
X223364164Y-124588452D01*
X223522113Y-124588452D01*
X223526473Y-124597211D01*
X223583894Y-124637308D01*
X223660084Y-124644929D01*
X223710401Y-124614014D01*
X223715557Y-124606118D01*
X223770287Y-124555174D01*
X223860594Y-124487505D01*
X223905155Y-124455083D01*
X223981982Y-124380043D01*
X223983952Y-124332909D01*
X223910231Y-124316558D01*
X223834392Y-124326278D01*
X223713232Y-124372003D01*
X223606010Y-124441301D01*
X223534909Y-124518631D01*
X223522823Y-124584578D01*
X223522113Y-124588452D01*
X223364164Y-124588452D01*
X223368102Y-124584578D01*
X223347145Y-124563961D01*
X223326188Y-124584578D01*
X222574566Y-124584578D01*
X222539988Y-124546527D01*
X222500998Y-124476585D01*
X222480945Y-124389228D01*
X222475245Y-124268192D01*
X222479317Y-124097215D01*
X222487133Y-123897033D01*
X222781303Y-123897033D01*
X222794684Y-123928571D01*
X222864833Y-124003119D01*
X222979636Y-124093956D01*
X223121564Y-124186187D01*
X223162485Y-124209539D01*
X223290521Y-124269144D01*
X223357242Y-124276396D01*
X223361055Y-124236035D01*
X223300368Y-124152799D01*
X223173587Y-124031426D01*
X223120788Y-123988903D01*
X222999023Y-123911481D01*
X222889961Y-123866287D01*
X222811441Y-123859434D01*
X222781303Y-123897033D01*
X222487133Y-123897033D01*
X222488577Y-123860035D01*
X222500272Y-123547829D01*
X222839880Y-123550781D01*
X222975225Y-123549521D01*
X223185889Y-123530533D01*
X223333035Y-123485756D01*
X223428673Y-123410523D01*
X223484811Y-123300169D01*
X223505121Y-123227832D01*
X223512985Y-123153337D01*
X223497824Y-123072620D01*
X223454859Y-122963145D01*
X223379317Y-122802376D01*
X223348748Y-122736954D01*
X223315535Y-122650450D01*
X223296212Y-122561566D01*
X223288567Y-122450317D01*
X223290389Y-122296718D01*
X223292636Y-122243272D01*
X225595982Y-122243272D01*
X225606280Y-122311042D01*
X225683861Y-122354626D01*
X225688894Y-122355615D01*
X225828195Y-122374960D01*
X226000891Y-122388625D01*
X226177841Y-122395457D01*
X226329901Y-122394307D01*
X226427930Y-122384022D01*
X226476256Y-122358875D01*
X226576041Y-122281973D01*
X226701362Y-122170153D01*
X226835892Y-122039431D01*
X226963303Y-121905820D01*
X227067268Y-121785336D01*
X227131460Y-121693993D01*
X227157744Y-121666686D01*
X227245355Y-121610411D01*
X227370077Y-121546388D01*
X227509844Y-121484195D01*
X227642588Y-121433410D01*
X227746240Y-121403611D01*
X227798733Y-121404377D01*
X227798689Y-121418214D01*
X227769950Y-121490061D01*
X227710096Y-121606808D01*
X227627485Y-121751519D01*
X227621171Y-121762123D01*
X227512596Y-121949884D01*
X227451114Y-122075369D01*
X227438336Y-122145302D01*
X227475874Y-122166408D01*
X227565338Y-122145413D01*
X227708339Y-122089042D01*
X227916868Y-121984574D01*
X228082998Y-121867328D01*
X228191382Y-121748987D01*
X228230148Y-121639771D01*
X228237866Y-121556445D01*
X228260122Y-121496920D01*
X228283523Y-121452924D01*
X228319082Y-121350595D01*
X228355189Y-121222221D01*
X228383572Y-121097658D01*
X228395955Y-121006763D01*
X228395717Y-120991811D01*
X228371304Y-120952285D01*
X228293019Y-120959691D01*
X228217927Y-120965562D01*
X228191461Y-120928032D01*
X228216865Y-120839450D01*
X228294167Y-120692974D01*
X228321189Y-120644788D01*
X228363841Y-120538858D01*
X228351957Y-120460550D01*
X228711610Y-120460550D01*
X228717589Y-120501481D01*
X228735987Y-120530986D01*
X228800474Y-120564286D01*
X228843527Y-120559178D01*
X228848543Y-120531334D01*
X228775976Y-120482315D01*
X228756923Y-120472598D01*
X228711610Y-120460550D01*
X228351957Y-120460550D01*
X228351920Y-120460306D01*
X228277476Y-120390292D01*
X228132561Y-120309978D01*
X228074308Y-120283270D01*
X227953360Y-120254775D01*
X227851377Y-120284189D01*
X227753882Y-120378501D01*
X227646400Y-120544701D01*
X227572678Y-120658510D01*
X227521240Y-120720090D01*
X227491549Y-120755636D01*
X227429098Y-120800945D01*
X227366243Y-120844902D01*
X227297255Y-120946401D01*
X227244950Y-121074878D01*
X227224207Y-121201257D01*
X227213149Y-121251082D01*
X227141273Y-121353616D01*
X227020031Y-121456974D01*
X226869957Y-121547593D01*
X226745798Y-121598016D01*
X226711586Y-121611910D01*
X226565452Y-121636364D01*
X226519434Y-121637522D01*
X226325069Y-121674127D01*
X226139464Y-121768982D01*
X225943016Y-121931382D01*
X225930072Y-121943716D01*
X225812283Y-122052366D01*
X225713224Y-122137892D01*
X225653177Y-122182707D01*
X225595982Y-122243272D01*
X223292636Y-122243272D01*
X223299468Y-122080785D01*
X223310012Y-121883454D01*
X223323272Y-121682011D01*
X223335904Y-121526846D01*
X224129183Y-121526846D01*
X224143441Y-121601251D01*
X224224635Y-121694001D01*
X224374500Y-121818306D01*
X224456970Y-121878268D01*
X224561599Y-121941240D01*
X224629508Y-121965834D01*
X224634196Y-121965532D01*
X224707020Y-121939596D01*
X224823373Y-121880014D01*
X224960354Y-121798376D01*
X225085745Y-121715878D01*
X225159288Y-121651751D01*
X225172342Y-121598016D01*
X225120840Y-121543788D01*
X225000716Y-121478181D01*
X224807902Y-121390307D01*
X224508263Y-121256896D01*
X224315410Y-121368080D01*
X224294544Y-121380236D01*
X224180129Y-121457577D01*
X224129183Y-121526846D01*
X223335904Y-121526846D01*
X223336765Y-121516268D01*
X223348774Y-121409578D01*
X223354329Y-121370112D01*
X223354623Y-121275399D01*
X223317765Y-121199729D01*
X223229770Y-121107615D01*
X223182803Y-121069066D01*
X223049443Y-120981752D01*
X222877488Y-120886285D01*
X222692391Y-120797361D01*
X222533815Y-120724518D01*
X222364628Y-120631087D01*
X222284343Y-120561852D01*
X223787244Y-120561852D01*
X223791212Y-120673510D01*
X223811044Y-120780602D01*
X223845881Y-120813133D01*
X223893868Y-120767527D01*
X223904936Y-120720090D01*
X223902303Y-120616209D01*
X223884960Y-120495509D01*
X223858054Y-120391083D01*
X223826736Y-120336028D01*
X223808742Y-120349350D01*
X223793063Y-120428217D01*
X223787244Y-120561852D01*
X222284343Y-120561852D01*
X222260648Y-120541418D01*
X222213138Y-120443051D01*
X222213355Y-120323528D01*
X222252561Y-120170388D01*
X222282928Y-120086061D01*
X222336593Y-119970518D01*
X222383828Y-119903966D01*
X222402279Y-119882654D01*
X222427946Y-119809031D01*
X222441824Y-119681227D01*
X222445990Y-119485270D01*
X222445964Y-119463730D01*
X222445275Y-119434688D01*
X222619673Y-119434688D01*
X222641406Y-119526283D01*
X222648176Y-119536544D01*
X222706524Y-119592417D01*
X222777065Y-119585995D01*
X222880153Y-119516439D01*
X222941924Y-119461968D01*
X222964218Y-119414521D01*
X222916319Y-119381096D01*
X222791747Y-119349455D01*
X222744825Y-119340956D01*
X222666387Y-119344897D01*
X222627898Y-119391444D01*
X222619673Y-119434688D01*
X222445275Y-119434688D01*
X222442727Y-119327273D01*
X223430973Y-119327273D01*
X223439552Y-119338534D01*
X223496318Y-119368506D01*
X223505676Y-119367326D01*
X223517786Y-119351202D01*
X224038729Y-119351202D01*
X224038730Y-119356137D01*
X224040320Y-119414521D01*
X224042712Y-119502351D01*
X224062683Y-119599770D01*
X224110970Y-119681114D01*
X224199896Y-119779108D01*
X224300054Y-119870737D01*
X224422577Y-119935078D01*
X224534691Y-119925771D01*
X224648390Y-119844569D01*
X224694573Y-119788798D01*
X224748032Y-119640435D01*
X224731099Y-119474665D01*
X224646775Y-119305417D01*
X224498060Y-119146620D01*
X224486479Y-119137131D01*
X224326148Y-119030469D01*
X224200885Y-118998689D01*
X224111013Y-119041646D01*
X224056854Y-119159199D01*
X224040988Y-119327273D01*
X224038729Y-119351202D01*
X223517786Y-119351202D01*
X223535759Y-119327273D01*
X223527761Y-119307567D01*
X223470414Y-119286039D01*
X223440475Y-119291972D01*
X223430973Y-119327273D01*
X222442727Y-119327273D01*
X222441540Y-119277232D01*
X222425990Y-119143203D01*
X222394236Y-119034422D01*
X222341198Y-118923671D01*
X222307649Y-118857000D01*
X222246170Y-118709029D01*
X222209990Y-118585382D01*
X222188654Y-118487431D01*
X222150734Y-118406143D01*
X222135921Y-118397009D01*
X222631651Y-118397009D01*
X222650970Y-118582570D01*
X222712788Y-118751230D01*
X222810735Y-118872892D01*
X222814210Y-118875560D01*
X222955573Y-118946433D01*
X223084876Y-118936621D01*
X223154409Y-118881310D01*
X224926248Y-118881310D01*
X225072979Y-119165448D01*
X225124110Y-119271985D01*
X225196947Y-119467767D01*
X225226497Y-119624972D01*
X225227372Y-119640435D01*
X225228592Y-119661989D01*
X225250494Y-119769020D01*
X225296155Y-119806700D01*
X225316696Y-119807255D01*
X225437043Y-119782606D01*
X225588841Y-119723543D01*
X225743524Y-119642662D01*
X225872527Y-119552557D01*
X225927635Y-119503645D01*
X225988775Y-119428589D01*
X226015456Y-119339430D01*
X226022246Y-119202070D01*
X226021549Y-119145449D01*
X225994036Y-118961448D01*
X225918413Y-118792651D01*
X225782936Y-118610008D01*
X225681493Y-118490633D01*
X225394517Y-118603098D01*
X225391151Y-118604420D01*
X225235398Y-118672121D01*
X225101062Y-118741750D01*
X225016894Y-118798436D01*
X224926248Y-118881310D01*
X223154409Y-118881310D01*
X223198314Y-118846385D01*
X223210785Y-118830300D01*
X223304270Y-118645808D01*
X223317413Y-118457697D01*
X223251736Y-118278331D01*
X223108765Y-118120077D01*
X222990241Y-118044493D01*
X222860223Y-118018546D01*
X222753416Y-118071735D01*
X222669216Y-118204176D01*
X222661199Y-118224644D01*
X222631651Y-118397009D01*
X222135921Y-118397009D01*
X222084051Y-118365025D01*
X221970529Y-118354555D01*
X221792088Y-118365207D01*
X221482263Y-118390972D01*
X221276647Y-118188694D01*
X221156265Y-118049938D01*
X221026139Y-117823923D01*
X220958632Y-117589396D01*
X220959750Y-117495813D01*
X221360087Y-117495813D01*
X221390446Y-117689537D01*
X221475722Y-117859383D01*
X221608502Y-117981079D01*
X221749348Y-118039883D01*
X221867504Y-118030827D01*
X221959156Y-117947392D01*
X221987034Y-117897819D01*
X222025205Y-117729144D01*
X221996411Y-117552808D01*
X221921589Y-117417165D01*
X224619685Y-117417165D01*
X224633197Y-117608916D01*
X224673110Y-117729144D01*
X224695799Y-117797491D01*
X224803283Y-117956250D01*
X224825796Y-117978202D01*
X224947566Y-118045255D01*
X225069140Y-118034485D01*
X225181051Y-117949182D01*
X225273832Y-117792639D01*
X225318558Y-117660375D01*
X225331419Y-117477922D01*
X225274764Y-117305993D01*
X225203041Y-117203059D01*
X225078349Y-117124535D01*
X224901692Y-117100649D01*
X224879376Y-117101016D01*
X224763608Y-117126470D01*
X224684427Y-117203911D01*
X224659472Y-117248876D01*
X224619685Y-117417165D01*
X221921589Y-117417165D01*
X221906882Y-117390502D01*
X221762849Y-117263915D01*
X221724925Y-117242356D01*
X221575657Y-117187601D01*
X221465505Y-117203171D01*
X221397097Y-117288886D01*
X221392060Y-117302486D01*
X221360087Y-117495813D01*
X220959750Y-117495813D01*
X220961299Y-117366058D01*
X220980055Y-117299567D01*
X221074685Y-117129899D01*
X221221366Y-116972846D01*
X221399476Y-116852574D01*
X221431858Y-116835140D01*
X221529837Y-116766599D01*
X221582683Y-116704483D01*
X221585695Y-116692219D01*
X221590952Y-116620723D01*
X223091075Y-116620723D01*
X223111800Y-116769209D01*
X223174924Y-116906630D01*
X223284923Y-117018637D01*
X223292404Y-117023819D01*
X223465441Y-117110962D01*
X223618292Y-117129324D01*
X223739816Y-117083006D01*
X223818872Y-116976110D01*
X223844319Y-116812735D01*
X223821913Y-116680333D01*
X223749957Y-116505189D01*
X223645725Y-116348684D01*
X223526967Y-116242703D01*
X223466772Y-116214530D01*
X223342643Y-116203108D01*
X223238532Y-116252365D01*
X223158917Y-116347953D01*
X223108272Y-116475522D01*
X223091075Y-116620723D01*
X221590952Y-116620723D01*
X221592109Y-116604991D01*
X221593608Y-116457855D01*
X221590210Y-116267894D01*
X221581937Y-116052192D01*
X221578090Y-115969526D01*
X221570142Y-115751115D01*
X221570098Y-115735848D01*
X221858989Y-115735848D01*
X221874094Y-115898961D01*
X221930911Y-116063021D01*
X222034023Y-116215863D01*
X222087488Y-116271494D01*
X222194007Y-116343977D01*
X222292462Y-116343335D01*
X222398740Y-116272014D01*
X222508280Y-116131498D01*
X222566741Y-115947058D01*
X222560237Y-115821952D01*
X223726371Y-115821952D01*
X223766290Y-115878602D01*
X223834997Y-115947058D01*
X223860432Y-115972400D01*
X224058070Y-116194872D01*
X224252436Y-116523377D01*
X224289375Y-116603298D01*
X224329122Y-116685857D01*
X224338233Y-116702334D01*
X224406205Y-116756825D01*
X224497055Y-116732039D01*
X224543728Y-116714109D01*
X224657715Y-116688171D01*
X224749341Y-116674505D01*
X225227421Y-116674505D01*
X225229706Y-116722423D01*
X225315712Y-116770256D01*
X225331636Y-116776925D01*
X225380541Y-116812735D01*
X225452389Y-116865345D01*
X225574803Y-117009367D01*
X225684961Y-117187015D01*
X225768944Y-117376310D01*
X225793865Y-117477922D01*
X225812837Y-117555276D01*
X225818779Y-117601579D01*
X225840480Y-117727146D01*
X225863023Y-117811932D01*
X225871538Y-117829825D01*
X225931137Y-117875603D01*
X226032965Y-117865470D01*
X226186364Y-117799052D01*
X226246772Y-117763497D01*
X226395304Y-117621954D01*
X226478691Y-117447452D01*
X226497195Y-117254071D01*
X226451078Y-117055892D01*
X226340599Y-116866997D01*
X226166020Y-116701467D01*
X226102059Y-116658930D01*
X225890612Y-116569600D01*
X225658210Y-116550435D01*
X225390462Y-116599546D01*
X225308900Y-116626405D01*
X225227421Y-116674505D01*
X224749341Y-116674505D01*
X224800933Y-116666810D01*
X224807553Y-116666053D01*
X224941124Y-116648126D01*
X225011908Y-116625565D01*
X225039794Y-116586224D01*
X225044670Y-116517957D01*
X225029098Y-116407927D01*
X224955228Y-116225643D01*
X224835512Y-116040734D01*
X224686566Y-115873841D01*
X224525003Y-115745602D01*
X224367440Y-115676658D01*
X224330180Y-115670514D01*
X224182146Y-115666563D01*
X224015587Y-115682841D01*
X223864532Y-115714779D01*
X223763013Y-115757808D01*
X223732523Y-115784495D01*
X223726371Y-115821952D01*
X222560237Y-115821952D01*
X222556685Y-115753626D01*
X222479454Y-115569682D01*
X222336389Y-115413706D01*
X222248666Y-115360145D01*
X222123985Y-115336095D01*
X222018092Y-115373803D01*
X221935572Y-115461106D01*
X221881009Y-115585842D01*
X221858989Y-115735848D01*
X221570098Y-115735848D01*
X221569693Y-115594536D01*
X221577619Y-115484215D01*
X221594800Y-115404578D01*
X221622115Y-115340054D01*
X221740641Y-115186042D01*
X221925337Y-115066175D01*
X222180144Y-114982418D01*
X222230061Y-114968684D01*
X222548262Y-114968684D01*
X222563558Y-115022836D01*
X222624735Y-115115661D01*
X222718529Y-115226395D01*
X222810866Y-115333489D01*
X222912553Y-115471126D01*
X222978932Y-115584536D01*
X222986193Y-115600626D01*
X223027246Y-115679958D01*
X223074351Y-115720098D01*
X223153422Y-115733303D01*
X223290371Y-115731826D01*
X223356909Y-115728784D01*
X223495337Y-115707921D01*
X223554256Y-115669522D01*
X223557868Y-115639200D01*
X223539358Y-115539580D01*
X223495691Y-115412605D01*
X223437871Y-115287754D01*
X223376905Y-115194505D01*
X223309769Y-115133465D01*
X223178135Y-115053526D01*
X223022498Y-114987521D01*
X222862275Y-114940743D01*
X222716882Y-114918483D01*
X222605739Y-114926033D01*
X222548262Y-114968684D01*
X222230061Y-114968684D01*
X222290501Y-114952055D01*
X222383575Y-114914302D01*
X222415803Y-114883110D01*
X222417544Y-114867752D01*
X222461498Y-114802307D01*
X222545302Y-114718082D01*
X222646578Y-114634219D01*
X222742948Y-114569862D01*
X222812033Y-114544156D01*
X222872450Y-114560117D01*
X222984151Y-114610103D01*
X223115790Y-114682281D01*
X223145084Y-114699691D01*
X223272054Y-114774454D01*
X223451859Y-114879704D01*
X223670118Y-115007046D01*
X223912449Y-115148085D01*
X224164472Y-115294426D01*
X224211103Y-115321476D01*
X224484718Y-115480344D01*
X224757919Y-115639200D01*
X224762822Y-115642051D01*
G37*
%TD.AperFunction*%
%TA.AperFunction,EtchedComponent*%
G36*
X230032458Y-124089773D02*
G01*
X230011501Y-124110390D01*
X229990544Y-124089773D01*
X230011501Y-124069156D01*
X230032458Y-124089773D01*
G37*
%TD.AperFunction*%
%TA.AperFunction,EtchedComponent*%
G36*
X229989634Y-120194960D02*
G01*
X230002109Y-120244449D01*
X229998124Y-120340658D01*
X229991587Y-120378896D01*
X229933620Y-120509419D01*
X229811222Y-120648268D01*
X229807816Y-120651482D01*
X229692872Y-120749071D01*
X229620272Y-120780492D01*
X229582340Y-120745617D01*
X229571402Y-120644320D01*
X229561495Y-120558859D01*
X229537499Y-120523052D01*
X229502368Y-120512301D01*
X229428065Y-120468719D01*
X229397218Y-120445157D01*
X229375687Y-120403449D01*
X229420657Y-120347370D01*
X229427076Y-120341135D01*
X229478417Y-120305123D01*
X229539820Y-120306276D01*
X229643910Y-120344118D01*
X229675831Y-120356721D01*
X229774111Y-120382287D01*
X229814706Y-120361647D01*
X229816225Y-120357500D01*
X229861842Y-120288242D01*
X229929283Y-120222454D01*
X229985122Y-120193182D01*
X229989634Y-120194960D01*
G37*
%TD.AperFunction*%
%TA.AperFunction,EtchedComponent*%
G36*
X230660785Y-119285659D02*
G01*
X230662457Y-119287309D01*
X230715726Y-119355922D01*
X230733059Y-119437964D01*
X230721631Y-119566564D01*
X230715276Y-119604641D01*
X230672044Y-119779167D01*
X230614612Y-119940712D01*
X230590149Y-119998326D01*
X230550910Y-120101296D01*
X230535429Y-120158930D01*
X230526945Y-120190944D01*
X230468490Y-120275038D01*
X230349390Y-120401330D01*
X230323342Y-120426952D01*
X230266905Y-120472833D01*
X230245432Y-120451071D01*
X230242029Y-120354257D01*
X230242153Y-120342521D01*
X230263189Y-120247091D01*
X230329237Y-120204260D01*
X230389239Y-120171316D01*
X230393665Y-120096132D01*
X230390680Y-120019326D01*
X230405170Y-119888302D01*
X230434510Y-119735247D01*
X230463210Y-119590665D01*
X230482716Y-119445259D01*
X230485346Y-119346446D01*
X230483190Y-119308875D01*
X230506680Y-119230754D01*
X230569159Y-119221878D01*
X230660785Y-119285659D01*
G37*
%TD.AperFunction*%
%TA.AperFunction,EtchedComponent*%
G36*
X230019579Y-119545842D02*
G01*
X229963909Y-119639264D01*
X229962866Y-119640824D01*
X229909161Y-119706570D01*
X229875303Y-119722452D01*
X229873640Y-119719632D01*
X229889767Y-119671115D01*
X229943852Y-119591903D01*
X229992206Y-119535833D01*
X230028217Y-119509490D01*
X230019579Y-119545842D01*
G37*
%TD.AperFunction*%
%TA.AperFunction,EtchedComponent*%
G36*
X226707266Y-119341017D02*
G01*
X226713823Y-119353420D01*
X226679323Y-119368506D01*
X226657134Y-119365531D01*
X226651380Y-119341017D01*
X226657523Y-119336082D01*
X226707266Y-119341017D01*
G37*
%TD.AperFunction*%
%TA.AperFunction,EtchedComponent*%
G36*
X229405383Y-118091454D02*
G01*
X229412322Y-118103360D01*
X229442546Y-118225977D01*
X229431712Y-118369643D01*
X229382339Y-118490716D01*
X229348692Y-118554814D01*
X229361382Y-118605408D01*
X229399619Y-118657675D01*
X229393899Y-118720120D01*
X229345359Y-118750000D01*
X229315619Y-118757050D01*
X229262846Y-118811851D01*
X229257145Y-118843722D01*
X229285480Y-118873701D01*
X229305570Y-118877945D01*
X229385578Y-118922325D01*
X229487599Y-118999222D01*
X229588773Y-119088954D01*
X229666242Y-119171834D01*
X229697145Y-119228180D01*
X229685927Y-119256031D01*
X229636572Y-119248595D01*
X229533956Y-119196106D01*
X229532220Y-119195124D01*
X229424708Y-119140984D01*
X229357588Y-119130323D01*
X229303427Y-119158690D01*
X229265696Y-119199317D01*
X229236089Y-119270471D01*
X229230249Y-119311058D01*
X229193874Y-119322482D01*
X229107591Y-119284588D01*
X229046861Y-119231121D01*
X229033731Y-119138053D01*
X229096283Y-119031143D01*
X229136635Y-118979921D01*
X229135013Y-118931461D01*
X229076690Y-118861732D01*
X229020564Y-118797742D01*
X229015139Y-118758446D01*
X229063909Y-118721114D01*
X229075574Y-118712444D01*
X229131691Y-118627367D01*
X229168888Y-118499323D01*
X229227253Y-118293231D01*
X229353632Y-118050220D01*
X229366586Y-118049323D01*
X229405383Y-118091454D01*
G37*
%TD.AperFunction*%
%TA.AperFunction,EtchedComponent*%
G36*
X228897353Y-118849025D02*
G01*
X228857186Y-118946360D01*
X228767874Y-119038755D01*
X228606818Y-119104909D01*
X228547528Y-119120510D01*
X228444828Y-119146436D01*
X228388880Y-119154638D01*
X228354961Y-119146807D01*
X228318347Y-119124634D01*
X228286549Y-119096527D01*
X228283588Y-119035596D01*
X228352909Y-118973537D01*
X228487658Y-118918687D01*
X228530241Y-118905966D01*
X228666613Y-118862747D01*
X228769970Y-118826630D01*
X228790355Y-118819189D01*
X228875144Y-118806728D01*
X228897353Y-118849025D01*
G37*
%TD.AperFunction*%
%TA.AperFunction,EtchedComponent*%
G36*
X226846980Y-119059253D02*
G01*
X226826023Y-119079870D01*
X226805066Y-119059253D01*
X226826023Y-119038636D01*
X226846980Y-119059253D01*
G37*
%TD.AperFunction*%
%TA.AperFunction,EtchedComponent*%
G36*
X227077647Y-113642892D02*
G01*
X227156879Y-113667963D01*
X227277816Y-113716007D01*
X227448757Y-113790539D01*
X227678002Y-113895072D01*
X227973852Y-114033117D01*
X228067950Y-114077217D01*
X228254567Y-114163917D01*
X228406691Y-114233560D01*
X228510640Y-114279916D01*
X228552730Y-114296753D01*
X228569949Y-114302603D01*
X228649317Y-114336363D01*
X228776723Y-114393455D01*
X228934769Y-114466166D01*
X228980828Y-114487573D01*
X229197526Y-114587934D01*
X229422327Y-114691598D01*
X229613316Y-114779225D01*
X229616525Y-114780692D01*
X229809844Y-114869046D01*
X230014826Y-114962758D01*
X230187625Y-115041780D01*
X230250285Y-115070991D01*
X230370079Y-115135885D01*
X230453469Y-115206610D01*
X230513960Y-115301864D01*
X230565059Y-115440347D01*
X230620272Y-115640757D01*
X230635813Y-115701144D01*
X230665256Y-115829478D01*
X230679078Y-115936544D01*
X230677621Y-116047975D01*
X230661229Y-116189406D01*
X230630244Y-116386470D01*
X230615759Y-116475630D01*
X230590883Y-116639648D01*
X230580244Y-116745383D01*
X230584018Y-116809103D01*
X230602378Y-116847077D01*
X230635500Y-116875572D01*
X230700469Y-116905813D01*
X230814937Y-116891838D01*
X230815844Y-116891499D01*
X230925278Y-116864051D01*
X231038892Y-116854435D01*
X231128057Y-116862847D01*
X231164141Y-116889478D01*
X231129667Y-116932994D01*
X231022870Y-116978306D01*
X230855672Y-117018366D01*
X230640214Y-117049467D01*
X230573869Y-117056780D01*
X230447817Y-117074406D01*
X230381205Y-117095918D01*
X230356559Y-117129577D01*
X230356406Y-117183644D01*
X230365332Y-117317168D01*
X230361537Y-117451779D01*
X230339043Y-117591268D01*
X230293808Y-117759572D01*
X230221787Y-117980627D01*
X230168551Y-118143823D01*
X230121563Y-118302785D01*
X230092693Y-118419201D01*
X230086755Y-118475432D01*
X230087200Y-118476857D01*
X230065746Y-118531451D01*
X229994667Y-118595102D01*
X229915369Y-118638287D01*
X229767830Y-118662472D01*
X229626472Y-118605982D01*
X229571149Y-118557521D01*
X229558353Y-118497791D01*
X229583754Y-118395038D01*
X229639628Y-118282120D01*
X229782905Y-118150911D01*
X229811916Y-118131883D01*
X229948081Y-117995973D01*
X230017132Y-117819511D01*
X230022823Y-117593778D01*
X230021593Y-117581867D01*
X229975460Y-117392551D01*
X229870837Y-117225570D01*
X229800132Y-117131954D01*
X229751287Y-117027694D01*
X229747780Y-116915038D01*
X229783252Y-116760202D01*
X229799815Y-116710902D01*
X229875382Y-116574899D01*
X229973493Y-116477905D01*
X230074970Y-116440909D01*
X230135830Y-116424042D01*
X230231009Y-116346546D01*
X230314858Y-116226360D01*
X230368804Y-116085920D01*
X230380791Y-116019859D01*
X230370365Y-115794611D01*
X230277362Y-115582868D01*
X230101676Y-115384355D01*
X229991029Y-115291120D01*
X229898341Y-115233700D01*
X229803634Y-115209106D01*
X229675129Y-115203896D01*
X229566606Y-115197659D01*
X229345894Y-115150576D01*
X229149152Y-115066352D01*
X229005561Y-114955800D01*
X228979197Y-114928394D01*
X228876747Y-114836717D01*
X228758265Y-114744288D01*
X228725722Y-114721510D01*
X228617401Y-114661750D01*
X228501055Y-114633589D01*
X228339123Y-114626469D01*
X228242865Y-114623228D01*
X228030615Y-114581699D01*
X227871937Y-114487384D01*
X227754323Y-114334029D01*
X227734273Y-114301484D01*
X227635477Y-114182961D01*
X227517269Y-114079853D01*
X227422968Y-114020422D01*
X227330820Y-113986144D01*
X227212546Y-113970565D01*
X227039375Y-113966883D01*
X226882107Y-113962965D01*
X226761260Y-113947143D01*
X226721237Y-113919019D01*
X226733762Y-113886838D01*
X226794749Y-113812486D01*
X226883236Y-113730532D01*
X226973051Y-113664276D01*
X227038024Y-113637013D01*
X227077647Y-113642892D01*
G37*
%TD.AperFunction*%
%TA.AperFunction,EtchedComponent*%
G36*
X230249888Y-118515664D02*
G01*
X230269289Y-118530506D01*
X230224565Y-118540576D01*
X230182053Y-118537660D01*
X230169553Y-118518919D01*
X230184381Y-118510748D01*
X230249888Y-118515664D01*
G37*
%TD.AperFunction*%
%TA.AperFunction,EtchedComponent*%
G36*
X230678346Y-118016398D02*
G01*
X230676421Y-118069406D01*
X230659145Y-118097190D01*
X230614181Y-118107791D01*
X230596000Y-118084443D01*
X230609188Y-118034013D01*
X230662329Y-118007792D01*
X230678346Y-118016398D01*
G37*
%TD.AperFunction*%
%TA.AperFunction,EtchedComponent*%
G36*
X229491718Y-116052878D02*
G01*
X229512705Y-116073024D01*
X229559724Y-116156761D01*
X229557735Y-116275746D01*
X229545836Y-116351875D01*
X229495137Y-116644432D01*
X229436331Y-116945952D01*
X229375547Y-117226166D01*
X229318918Y-117454804D01*
X229313776Y-117473839D01*
X229274441Y-117631184D01*
X229246633Y-117762880D01*
X229236089Y-117842099D01*
X229235602Y-117867165D01*
X229223420Y-117918556D01*
X229191593Y-117896154D01*
X229135774Y-117798050D01*
X229135484Y-117797478D01*
X229103326Y-117720857D01*
X229092110Y-117642338D01*
X229101565Y-117535872D01*
X229131426Y-117375404D01*
X229194305Y-117073955D01*
X229257696Y-116785076D01*
X229313695Y-116545815D01*
X229358723Y-116371971D01*
X229363101Y-116355888D01*
X229391692Y-116216242D01*
X229403512Y-116094340D01*
X229406658Y-116015253D01*
X229429250Y-116002154D01*
X229491718Y-116052878D01*
G37*
%TD.AperFunction*%
%TA.AperFunction,EtchedComponent*%
G36*
X231192152Y-117691581D02*
G01*
X231164141Y-117739773D01*
X231090298Y-117782522D01*
X230980874Y-117800162D01*
X230849785Y-117798701D01*
X230954571Y-117739773D01*
X231043244Y-117700559D01*
X231137838Y-117679383D01*
X231149001Y-117679297D01*
X231192152Y-117691581D01*
G37*
%TD.AperFunction*%
%TA.AperFunction,EtchedComponent*%
G36*
X224719398Y-114219275D02*
G01*
X224806921Y-114255186D01*
X224945562Y-114322124D01*
X225120549Y-114412785D01*
X225317112Y-114519867D01*
X225338678Y-114531852D01*
X225555756Y-114649746D01*
X225823532Y-114791456D01*
X226120167Y-114945623D01*
X226423825Y-115100884D01*
X226712665Y-115245879D01*
X226878382Y-115328325D01*
X227116319Y-115448233D01*
X227294822Y-115541633D01*
X227423958Y-115614827D01*
X227513789Y-115674117D01*
X227574382Y-115725806D01*
X227615801Y-115776194D01*
X227648111Y-115831584D01*
X227649904Y-115835030D01*
X227716509Y-115955185D01*
X227808010Y-116110948D01*
X227905158Y-116269527D01*
X227965433Y-116371720D01*
X228051555Y-116555517D01*
X228086555Y-116698620D01*
X228087428Y-116754417D01*
X228069027Y-116837278D01*
X228028103Y-116847454D01*
X227972778Y-116786853D01*
X227911174Y-116657386D01*
X227796315Y-116420359D01*
X227642777Y-116236014D01*
X227445585Y-116106681D01*
X227335524Y-116058563D01*
X227244526Y-116037268D01*
X227140993Y-116041190D01*
X226990435Y-116067350D01*
X226860354Y-116088435D01*
X226743139Y-116098157D01*
X226680886Y-116091372D01*
X226678887Y-116089988D01*
X226638090Y-116035845D01*
X226577673Y-115929131D01*
X226509946Y-115791444D01*
X226409048Y-115608811D01*
X226267871Y-115425696D01*
X226115769Y-115289488D01*
X225968343Y-115216744D01*
X225914250Y-115210435D01*
X225784456Y-115215629D01*
X225636443Y-115237739D01*
X225487565Y-115261172D01*
X225380685Y-115251275D01*
X225316486Y-115196373D01*
X225276471Y-115088812D01*
X225232642Y-114966082D01*
X225126145Y-114813788D01*
X224953041Y-114667039D01*
X224873937Y-114614409D01*
X224775721Y-114569380D01*
X224660889Y-114548962D01*
X224495970Y-114544156D01*
X224495949Y-114544156D01*
X224349307Y-114538936D01*
X224238462Y-114525256D01*
X224187409Y-114506075D01*
X224193400Y-114470423D01*
X224255288Y-114409510D01*
X224358017Y-114341610D01*
X224480547Y-114278641D01*
X224601837Y-114232526D01*
X224700850Y-114215184D01*
X224719398Y-114219275D01*
G37*
%TD.AperFunction*%
%TA.AperFunction,EtchedComponent*%
G36*
X231541369Y-115966721D02*
G01*
X231520412Y-115987338D01*
X231499455Y-115966721D01*
X231520412Y-115946104D01*
X231541369Y-115966721D01*
G37*
%TD.AperFunction*%
%TA.AperFunction,EtchedComponent*%
G36*
X229331244Y-115768978D02*
G01*
X229361831Y-115827270D01*
X229358602Y-115841135D01*
X229319917Y-115843019D01*
X229308590Y-115834593D01*
X229278003Y-115776302D01*
X229281232Y-115762437D01*
X229319917Y-115760552D01*
X229331244Y-115768978D01*
G37*
%TD.AperFunction*%
%TA.AperFunction,EtchedComponent*%
G36*
X226174305Y-113954872D02*
G01*
X226217348Y-113978984D01*
X226334514Y-114039892D01*
X226494640Y-114119973D01*
X226682998Y-114212193D01*
X226884858Y-114309522D01*
X227085491Y-114404924D01*
X227270168Y-114491368D01*
X227424161Y-114561821D01*
X227532739Y-114609251D01*
X227581175Y-114626623D01*
X227623538Y-114643340D01*
X227726048Y-114688889D01*
X227873313Y-114756312D01*
X228049946Y-114838648D01*
X228205280Y-114910947D01*
X228420353Y-115009226D01*
X228617300Y-115097353D01*
X228767475Y-115162403D01*
X228825301Y-115187374D01*
X228965133Y-115260325D01*
X229058691Y-115339420D01*
X229132467Y-115445184D01*
X229164395Y-115503909D01*
X229199274Y-115584588D01*
X229198827Y-115616234D01*
X229161214Y-115587963D01*
X229110346Y-115513149D01*
X229051118Y-115443512D01*
X228973509Y-115410065D01*
X228889496Y-115394120D01*
X228781500Y-115349798D01*
X228713837Y-115315547D01*
X228582402Y-115251476D01*
X228403078Y-115165321D01*
X228190100Y-115063920D01*
X227957706Y-114954111D01*
X227762632Y-114862263D01*
X227506840Y-114741776D01*
X227265953Y-114628258D01*
X227060210Y-114531246D01*
X226909851Y-114460280D01*
X226687203Y-114356079D01*
X226421988Y-114236050D01*
X226214696Y-114148626D01*
X226055863Y-114090114D01*
X225936025Y-114056822D01*
X225845720Y-114045058D01*
X225694340Y-114040764D01*
X225901862Y-113978468D01*
X225918393Y-113973605D01*
X226078840Y-113941285D01*
X226174305Y-113954872D01*
G37*
%TD.AperFunction*%
%TD*%
D11*
%TO.P,RIGHT_JOYSTICK1,B1A,SEL*%
%TO.N,RIGHT-JOY-SEL*%
X214925000Y-100314800D03*
%TO.P,RIGHT_JOYSTICK1,B1B*%
%TO.N,N/C*%
X208575000Y-100295000D03*
%TO.P,RIGHT_JOYSTICK1,B2A,GND*%
%TO.N,GND*%
X214925000Y-95374800D03*
%TO.P,RIGHT_JOYSTICK1,B2B*%
%TO.N,N/C*%
X208565000Y-95354800D03*
D12*
%TO.P,RIGHT_JOYSTICK1,G,GND-SHIELD*%
%TO.N,GND*%
X218100000Y-94564800D03*
X218100000Y-84434800D03*
X205400000Y-94580000D03*
X205400000Y-84420000D03*
D11*
%TO.P,RIGHT_JOYSTICK1,H1,GND*%
X214275000Y-80624800D03*
%TO.P,RIGHT_JOYSTICK1,H2,XOUT*%
%TO.N,RIGHT-JOY-X*%
X211735000Y-80604800D03*
%TO.P,RIGHT_JOYSTICK1,H3,VCC*%
%TO.N,+3.3V*%
X209195000Y-80624800D03*
%TO.P,RIGHT_JOYSTICK1,V1,GND*%
%TO.N,GND*%
X220640000Y-92040000D03*
%TO.P,RIGHT_JOYSTICK1,V2,YOUT*%
%TO.N,RIGHT-JOY-Y*%
X220655000Y-89514800D03*
%TO.P,RIGHT_JOYSTICK1,V3,VCC*%
%TO.N,+3.3V*%
X220655000Y-86974800D03*
%TD*%
D13*
%TO.P,BUTTON_LB1,1,1*%
%TO.N,GND*%
X84000000Y-21700000D03*
%TO.P,BUTTON_LB1,2,2*%
%TO.N,BUTTON-LB*%
X79500000Y-21700000D03*
%TD*%
D14*
%TO.P,BUTTON_X1,1,1*%
%TO.N,GND*%
X196625000Y-54221502D03*
X203125000Y-54221502D03*
%TO.P,BUTTON_X1,2,2*%
%TO.N,BUTTON-X*%
X196625000Y-58721502D03*
X203125000Y-58721502D03*
%TD*%
%TO.P,BUTTON_B1,1,1*%
%TO.N,GND*%
X220375000Y-54221502D03*
X226875000Y-54221502D03*
%TO.P,BUTTON_B1,2,2*%
%TO.N,BUTTON-B*%
X220375000Y-58721502D03*
X226875000Y-58721502D03*
%TD*%
D11*
%TO.P,LEFT_JOYSTICK1,B1A,SEL*%
%TO.N,LEFT-JOY-SEL*%
X89442857Y-66814800D03*
%TO.P,LEFT_JOYSTICK1,B1B*%
%TO.N,N/C*%
X83092857Y-66795000D03*
%TO.P,LEFT_JOYSTICK1,B2A,GND*%
%TO.N,GND*%
X89442857Y-61874800D03*
%TO.P,LEFT_JOYSTICK1,B2B*%
%TO.N,N/C*%
X83082857Y-61854800D03*
D12*
%TO.P,LEFT_JOYSTICK1,G,GND-SHIELD*%
%TO.N,GND*%
X92617857Y-61064800D03*
X92617857Y-50934800D03*
X79917857Y-61080000D03*
X79917857Y-50920000D03*
D11*
%TO.P,LEFT_JOYSTICK1,H1,GND*%
X88792857Y-47124800D03*
%TO.P,LEFT_JOYSTICK1,H2,XOUT*%
%TO.N,LEFT-JOY-X*%
X86252857Y-47104800D03*
%TO.P,LEFT_JOYSTICK1,H3,VCC*%
%TO.N,+3.3V*%
X83712857Y-47124800D03*
%TO.P,LEFT_JOYSTICK1,V1,GND*%
%TO.N,GND*%
X95157857Y-58540000D03*
%TO.P,LEFT_JOYSTICK1,V2,YOUT*%
%TO.N,LEFT-JOY-Y*%
X95172857Y-56014800D03*
%TO.P,LEFT_JOYSTICK1,V3,VCC*%
%TO.N,+3.3V*%
X95172857Y-53474800D03*
%TD*%
D14*
%TO.P,BUTTON_A1,1,1*%
%TO.N,GND*%
X208500000Y-64221502D03*
X215000000Y-64221502D03*
%TO.P,BUTTON_A1,2,2*%
%TO.N,BUTTON-A*%
X208500000Y-68721502D03*
X215000000Y-68721502D03*
%TD*%
D13*
%TO.P,BUTTON_RB1,1,1*%
%TO.N,GND*%
X217516387Y-21700000D03*
%TO.P,BUTTON_RB1,2,2*%
%TO.N,BUTTON-RB*%
X213016387Y-21700000D03*
%TD*%
D14*
%TO.P,BUTTON_Y1,1,1*%
%TO.N,GND*%
X208500000Y-44221502D03*
X215000000Y-44221502D03*
%TO.P,BUTTON_Y1,2,2*%
%TO.N,BUTTON-Y*%
X208500000Y-48721502D03*
X215000000Y-48721502D03*
%TD*%
%TO.P,BUTTON_RIGHT1,1,1*%
%TO.N,GND*%
X92500001Y-90999999D03*
X92500000Y-84500000D03*
%TO.P,BUTTON_RIGHT1,2,2*%
%TO.N,BUTTON-RIGHT*%
X97000001Y-90999998D03*
X97000000Y-84500000D03*
%TD*%
%TO.P,BUTTON_LEFT1,1,1*%
%TO.N,GND*%
X75000001Y-90999999D03*
X75000000Y-84500000D03*
%TO.P,BUTTON_LEFT1,2,2*%
%TO.N,BUTTON-LEFT*%
X79500001Y-90999998D03*
X79500000Y-84500000D03*
%TD*%
%TO.P,BUTTON_UP1,1,1*%
%TO.N,GND*%
X82767857Y-76750000D03*
X89267857Y-76750000D03*
%TO.P,BUTTON_UP1,2,2*%
%TO.N,BUTTON-UP*%
X82767857Y-81250000D03*
X89267857Y-81250000D03*
%TD*%
%TO.P,BUTTON_DOWN1,1,1*%
%TO.N,GND*%
X82750000Y-94250000D03*
X89250000Y-94250000D03*
%TO.P,BUTTON_DOWN1,2,2*%
%TO.N,BUTTON-DOWN*%
X82750000Y-98750000D03*
X89250000Y-98750000D03*
%TD*%
D15*
%TO.P,RIGHT_TRIGGER1,1,GND*%
%TO.N,GND*%
X206500000Y-19960000D03*
D13*
%TO.P,RIGHT_TRIGGER1,2,OUT*%
%TO.N,RIGHT-TRIGGER*%
X206500000Y-22500000D03*
%TO.P,RIGHT_TRIGGER1,3,VCC*%
%TO.N,+3.3V*%
X206500000Y-25040000D03*
%TD*%
D15*
%TO.P,LEFT_TRIGGER1,1,GND*%
%TO.N,GND*%
X90500000Y-20000000D03*
D13*
%TO.P,LEFT_TRIGGER1,2,OUT*%
%TO.N,LEFT-TRIGGER*%
X90500000Y-22540000D03*
%TO.P,LEFT_TRIGGER1,3,VCC*%
%TO.N,+3.3V*%
X90500000Y-25080000D03*
%TD*%
D16*
%TO.P,SW1,3*%
%TO.N,N/C*%
X152040000Y-92500000D03*
%TO.P,SW1,2,B*%
%TO.N,BYPASS-SWITCH*%
X146960000Y-92500000D03*
D17*
%TO.P,SW1,1,A*%
%TO.N,GND*%
X149500000Y-92500000D03*
%TD*%
D14*
%TO.P,BUTTON_MISC2,2,2*%
%TO.N,BUTTON-MISC2*%
X174250000Y-94750000D03*
X167750000Y-94750000D03*
%TO.P,BUTTON_MISC2,1,1*%
%TO.N,GND*%
X174250000Y-90250000D03*
X167750000Y-90250000D03*
%TD*%
%TO.P,BUTTON_MISC1,2,2*%
%TO.N,BUTTON-MISC1*%
X131250000Y-94750000D03*
X124750000Y-94750000D03*
%TO.P,BUTTON_MISC1,1,1*%
%TO.N,GND*%
X131250000Y-90250000D03*
X124750000Y-90250000D03*
%TD*%
D11*
%TO.P,LSM6DSOX_GYRO1,14,GND*%
%TO.N,unconnected-(LSM6DSOX_GYRO1-GND-Pad14)*%
X168449998Y-120956114D03*
%TO.P,LSM6DSOX_GYRO1,13,DO*%
%TO.N,unconnected-(LSM6DSOX_GYRO1-DO-Pad13)*%
X165909996Y-120956120D03*
%TO.P,LSM6DSOX_GYRO1,12,CS*%
%TO.N,unconnected-(LSM6DSOX_GYRO1-CS-Pad12)*%
X163370000Y-120956119D03*
%TO.P,LSM6DSOX_GYRO1,11,SDX*%
%TO.N,unconnected-(LSM6DSOX_GYRO1-SDX-Pad11)*%
X160829990Y-120956115D03*
%TO.P,LSM6DSOX_GYRO1,10,SCX*%
%TO.N,unconnected-(LSM6DSOX_GYRO1-SCX-Pad10)*%
X158289996Y-120956120D03*
%TO.P,LSM6DSOX_GYRO1,9,I2*%
%TO.N,INTERRUPT-2*%
X173529996Y-108256119D03*
%TO.P,LSM6DSOX_GYRO1,8,I1*%
%TO.N,INTERRUPT-1*%
X170989996Y-108256118D03*
%TO.P,LSM6DSOX_GYRO1,7,CS*%
%TO.N,unconnected-(LSM6DSOX_GYRO1-CS-Pad7)*%
X168449998Y-108256118D03*
%TO.P,LSM6DSOX_GYRO1,6,DO*%
%TO.N,unconnected-(LSM6DSOX_GYRO1-DO-Pad6)*%
X165909999Y-108256115D03*
%TO.P,LSM6DSOX_GYRO1,5,SDA*%
%TO.N,WIRE1-SDA*%
X163370000Y-108256117D03*
%TO.P,LSM6DSOX_GYRO1,4,SCL*%
%TO.N,WIRE1-SCL*%
X160829992Y-108256116D03*
%TO.P,LSM6DSOX_GYRO1,3,GND*%
%TO.N,GND*%
X158289996Y-108256116D03*
%TO.P,LSM6DSOX_GYRO1,2,3VO*%
%TO.N,unconnected-(LSM6DSOX_GYRO1-3VO-Pad2)*%
X155750000Y-108256117D03*
%TO.P,LSM6DSOX_GYRO1,1,VCC*%
%TO.N,+3.3V*%
X153209995Y-108256116D03*
%TD*%
%TO.P,MCP4728_DAC1,12,VCC*%
%TO.N,unconnected-(MCP4728_DAC1-VCC-Pad12)*%
X129322285Y-108256116D03*
%TO.P,MCP4728_DAC1,11,VD*%
%TO.N,CV-4*%
X131862285Y-108256116D03*
%TO.P,MCP4728_DAC1,10,VC*%
%TO.N,CV-3*%
X134402285Y-108256116D03*
%TO.P,MCP4728_DAC1,9,VB*%
%TO.N,CV-2*%
X136942285Y-108256116D03*
%TO.P,MCP4728_DAC1,8,VA*%
%TO.N,CV-1*%
X139482285Y-108256116D03*
%TO.P,MCP4728_DAC1,7,GND*%
%TO.N,unconnected-(MCP4728_DAC1-GND-Pad7)*%
X142022285Y-108256116D03*
%TO.P,MCP4728_DAC1,6,RDY*%
%TO.N,unconnected-(MCP4728_DAC1-RDY-Pad6)*%
X129322285Y-120956116D03*
%TO.P,MCP4728_DAC1,5,LDAC*%
%TO.N,unconnected-(MCP4728_DAC1-LDAC-Pad5)*%
X131862285Y-120956116D03*
%TO.P,MCP4728_DAC1,4,SDA*%
%TO.N,WIRE1-SDA*%
X134402285Y-120956116D03*
%TO.P,MCP4728_DAC1,3,SCL*%
%TO.N,WIRE1-SCL*%
X136942285Y-120956116D03*
%TO.P,MCP4728_DAC1,2,GND*%
%TO.N,GND*%
X139482285Y-120956116D03*
%TO.P,MCP4728_DAC1,1,VCC*%
%TO.N,+3.3V*%
X142022285Y-120956116D03*
%TD*%
%TO.P,TFT_ILI9341,10,BL*%
%TO.N,unconnected-(TFT_ILI9341-BL-Pad10)*%
X180160536Y-55200074D03*
%TO.P,TFT_ILI9341,9,SCK*%
%TO.N,ILI9341-DISPLAY-SCK*%
X180160537Y-57740074D03*
%TO.P,TFT_ILI9341,8,MISO*%
%TO.N,ILI9341-DISPLAY-MISO*%
X180160536Y-60280072D03*
%TO.P,TFT_ILI9341,7,MOSI*%
%TO.N,ILI9341-DISPLAY-MOSI*%
X180160535Y-62820075D03*
%TO.P,TFT_ILI9341,6,CS*%
%TO.N,ILI9341-DISPLAY-CS*%
X180160535Y-65360073D03*
%TO.P,TFT_ILI9341,5,SDCS*%
%TO.N,unconnected-(TFT_ILI9341-SDCS-Pad5)*%
X180160535Y-67900075D03*
%TO.P,TFT_ILI9341,4,RST*%
%TO.N,ILI9341-DISPLAY-RST*%
X180160535Y-70440075D03*
%TO.P,TFT_ILI9341,3,DC*%
%TO.N,ILI9341-DISPLAY-DC*%
X180160534Y-72980076D03*
%TO.P,TFT_ILI9341,2,VCC*%
%TO.N,+3.3V*%
X180160535Y-75520075D03*
D18*
%TO.P,TFT_ILI9341,1,GND*%
%TO.N,GND*%
X180160532Y-78060077D03*
%TD*%
D19*
%TO.P,TEENSY-41,1,GND*%
%TO.N,GND*%
X157095596Y-17425000D03*
D16*
%TO.P,TEENSY-41,2,0_RX1_CRX2_CS1*%
%TO.N,unconnected-(TEENSY-41-0_RX1_CRX2_CS1-Pad2)*%
X157095596Y-19965000D03*
%TO.P,TEENSY-41,3,1_TX1_CTX2_MISO1*%
%TO.N,BYPASS-SWITCH*%
X157095596Y-22505000D03*
%TO.P,TEENSY-41,4,2_OUT2*%
%TO.N,LEFT-JOY-SEL*%
X157095596Y-25045000D03*
%TO.P,TEENSY-41,5,3_LRCLK2*%
%TO.N,RIGHT-JOY-SEL*%
X157095596Y-27585000D03*
%TO.P,TEENSY-41,6,4_BCLK2*%
%TO.N,unconnected-(TEENSY-41-4_BCLK2-Pad6)*%
X157095596Y-30125000D03*
%TO.P,TEENSY-41,7,5_IN2*%
%TO.N,unconnected-(TEENSY-41-5_IN2-Pad7)*%
X157095596Y-32665000D03*
%TO.P,TEENSY-41,8,6_OUT1D*%
%TO.N,BUTTON-RB*%
X157095596Y-35205000D03*
%TO.P,TEENSY-41,9,7_RX2_OUT1A*%
%TO.N,BUTTON-LB*%
X157095596Y-37745000D03*
%TO.P,TEENSY-41,10,8_TX2_IN1*%
%TO.N,BUTTON-MISC1*%
X157095596Y-40285000D03*
%TO.P,TEENSY-41,11,9_OUT1C*%
%TO.N,BUTTON-MISC2*%
X157095596Y-42825000D03*
%TO.P,TEENSY-41,12,10_CS_MQSR*%
%TO.N,ILI9341-DISPLAY-CS*%
X157095596Y-45365000D03*
%TO.P,TEENSY-41,13,11_MOSI_CTX1*%
%TO.N,ILI9341-DISPLAY-MOSI*%
X157095596Y-47905000D03*
%TO.P,TEENSY-41,14,12_MISO_MQSL*%
%TO.N,ILI9341-DISPLAY-MISO*%
X157095596Y-50445000D03*
%TO.P,TEENSY-41,15,3V3*%
%TO.N,unconnected-(TEENSY-41-3V3-Pad15)*%
X157095596Y-52985000D03*
%TO.P,TEENSY-41,16,24_A10_TX6_SCL2*%
%TO.N,unconnected-(TEENSY-41-24_A10_TX6_SCL2-Pad16)*%
X157095596Y-55525000D03*
%TO.P,TEENSY-41,17,25_A11_RX6_SDA2*%
%TO.N,BUTTON-B*%
X157095596Y-58065000D03*
%TO.P,TEENSY-41,18,26_A12_MOSI1*%
%TO.N,BUTTON-A*%
X157095596Y-60605000D03*
%TO.P,TEENSY-41,19,27_A13_SCK1*%
%TO.N,BUTTON-Y*%
X157095596Y-63145000D03*
%TO.P,TEENSY-41,20,28_RX7*%
%TO.N,BUTTON-X*%
X157095596Y-65685000D03*
%TO.P,TEENSY-41,21,29_TX7*%
%TO.N,BUTTON-RIGHT*%
X157095596Y-68225000D03*
%TO.P,TEENSY-41,22,30_CRX3*%
%TO.N,BUTTON-LEFT*%
X157095596Y-70765000D03*
%TO.P,TEENSY-41,23,31_CTX3*%
%TO.N,BUTTON-DOWN*%
X157095596Y-73305000D03*
%TO.P,TEENSY-41,24,32_OUT1B*%
%TO.N,BUTTON-UP*%
X157095596Y-75845000D03*
%TO.P,TEENSY-41,25,33_MCLK2*%
%TO.N,ILI9341-DISPLAY-RST*%
X141855596Y-75845000D03*
%TO.P,TEENSY-41,26,34_RX8*%
%TO.N,ILI9341-DISPLAY-DC*%
X141855596Y-73305000D03*
%TO.P,TEENSY-41,27,35_TX8*%
%TO.N,unconnected-(TEENSY-41-35_TX8-Pad27)*%
X141855596Y-70765000D03*
%TO.P,TEENSY-41,28,36_CS*%
%TO.N,INTERRUPT-1*%
X141855596Y-68225000D03*
%TO.P,TEENSY-41,29,37_CS*%
%TO.N,INTERRUPT-2*%
X141855596Y-65685000D03*
%TO.P,TEENSY-41,30,38_CS1_IN1*%
%TO.N,unconnected-(TEENSY-41-38_CS1_IN1-Pad30)*%
X141855596Y-63145000D03*
%TO.P,TEENSY-41,31,39_MISO1_OUT1A*%
%TO.N,unconnected-(TEENSY-41-39_MISO1_OUT1A-Pad31)*%
X141855596Y-60605000D03*
%TO.P,TEENSY-41,32,40_A16*%
%TO.N,unconnected-(TEENSY-41-40_A16-Pad32)*%
X141855596Y-58065000D03*
%TO.P,TEENSY-41,33,41_A17*%
%TO.N,unconnected-(TEENSY-41-41_A17-Pad33)*%
X141855596Y-55525000D03*
%TO.P,TEENSY-41,34,GND*%
%TO.N,unconnected-(TEENSY-41-GND-Pad34)*%
X141855596Y-52985000D03*
%TO.P,TEENSY-41,35,13_SCK_LED*%
%TO.N,ILI9341-DISPLAY-SCK*%
X141855596Y-50445000D03*
%TO.P,TEENSY-41,36,14_A0_TX3_SPDIF_OUT*%
%TO.N,LEFT-TRIGGER*%
X141855596Y-47905000D03*
%TO.P,TEENSY-41,37,15_A1_RX3_SPDIF_IN*%
%TO.N,RIGHT-TRIGGER*%
X141855596Y-45365000D03*
%TO.P,TEENSY-41,38,16_A2_RX4_SCL1*%
%TO.N,unconnected-(TEENSY-41-16_A2_RX4_SCL1-Pad38)*%
X141855596Y-42825000D03*
%TO.P,TEENSY-41,39,17_A3_TX4_SDA1*%
%TO.N,unconnected-(TEENSY-41-17_A3_TX4_SDA1-Pad39)*%
X141855596Y-40285000D03*
%TO.P,TEENSY-41,40,18_A4_SDA*%
%TO.N,WIRE1-SDA*%
X141855596Y-37745000D03*
%TO.P,TEENSY-41,41,19_A5_SCL*%
%TO.N,WIRE1-SCL*%
X141855596Y-35205000D03*
%TO.P,TEENSY-41,42,20_A6_TX5_LRCLK1*%
%TO.N,LEFT-JOY-X*%
X141855596Y-32665000D03*
%TO.P,TEENSY-41,43,21_A7_RX5_BCLK1*%
%TO.N,LEFT-JOY-Y*%
X141855596Y-30125000D03*
%TO.P,TEENSY-41,44,22_A8_CTX1*%
%TO.N,RIGHT-JOY-X*%
X141855596Y-27585000D03*
%TO.P,TEENSY-41,45,23_A9_CRX1_MCLK1*%
%TO.N,RIGHT-JOY-Y*%
X141855596Y-25045000D03*
%TO.P,TEENSY-41,46,3V3*%
%TO.N,unconnected-(TEENSY-41-3V3-Pad46)*%
X141855596Y-22505000D03*
%TO.P,TEENSY-41,47,GND*%
%TO.N,GND*%
X141855596Y-19965000D03*
%TO.P,TEENSY-41,48,VIN*%
%TO.N,+3.3V*%
X141855596Y-17425000D03*
D20*
%TO.P,TEENSY-41,66*%
%TO.N,N/C*%
X148205596Y-18155000D03*
%TO.P,TEENSY-41,67*%
X150745596Y-18155000D03*
%TD*%
D21*
%TO.P,AUDIO_JACK3,TN,TN*%
%TO.N,unconnected-(AUDIO_JACK3-PadTN)*%
X180901071Y-30950000D03*
D22*
%TO.P,AUDIO_JACK3,T,TIP*%
%TO.N,CV-3*%
X183971071Y-28050000D03*
D23*
%TO.P,AUDIO_JACK3,S,SLEEVE*%
%TO.N,GND*%
X184191071Y-18650000D03*
%TO.P,AUDIO_JACK3,RN,RN*%
%TO.N,unconnected-(AUDIO_JACK3-PadRN)*%
X179111071Y-17750000D03*
D24*
%TO.P,AUDIO_JACK3,R,RING*%
%TO.N,unconnected-(AUDIO_JACK3-RING-PadR)*%
X179111071Y-20550000D03*
%TD*%
D21*
%TO.P,AUDIO_JACK2,TN,TN*%
%TO.N,unconnected-(AUDIO_JACK2-PadTN)*%
X129500000Y-31025000D03*
D22*
%TO.P,AUDIO_JACK2,T,TIP*%
%TO.N,CV-2*%
X132570000Y-28125000D03*
D23*
%TO.P,AUDIO_JACK2,S,SLEEVE*%
%TO.N,GND*%
X132790000Y-18725000D03*
%TO.P,AUDIO_JACK2,RN,RN*%
%TO.N,unconnected-(AUDIO_JACK2-PadRN)*%
X127710000Y-17825000D03*
D24*
%TO.P,AUDIO_JACK2,R,RING*%
%TO.N,unconnected-(AUDIO_JACK2-RING-PadR)*%
X127710000Y-20625000D03*
%TD*%
D21*
%TO.P,AUDIO_JACK1,TN,TN*%
%TO.N,unconnected-(AUDIO_JACK1-PadTN)*%
X116500000Y-31025000D03*
D22*
%TO.P,AUDIO_JACK1,T,TIP*%
%TO.N,CV-1*%
X119570000Y-28125000D03*
D23*
%TO.P,AUDIO_JACK1,S,SLEEVE*%
%TO.N,GND*%
X119790000Y-18725000D03*
%TO.P,AUDIO_JACK1,RN,RN*%
%TO.N,unconnected-(AUDIO_JACK1-PadRN)*%
X114710000Y-17825000D03*
D24*
%TO.P,AUDIO_JACK1,R,RING*%
%TO.N,unconnected-(AUDIO_JACK1-RING-PadR)*%
X114710000Y-20625000D03*
%TD*%
%TO.P,AUDIO_JACK4,R,RING*%
%TO.N,unconnected-(AUDIO_JACK4-RING-PadR)*%
X166210000Y-20550000D03*
D23*
%TO.P,AUDIO_JACK4,RN,RN*%
%TO.N,unconnected-(AUDIO_JACK4-PadRN)*%
X166210000Y-17750000D03*
%TO.P,AUDIO_JACK4,S,SLEEVE*%
%TO.N,GND*%
X171290000Y-18650000D03*
D22*
%TO.P,AUDIO_JACK4,T,TIP*%
%TO.N,CV-4*%
X171070000Y-28050000D03*
D21*
%TO.P,AUDIO_JACK4,TN,TN*%
%TO.N,unconnected-(AUDIO_JACK4-PadTN)*%
X168000000Y-30950000D03*
%TD*%
D25*
%TO.N,CV-3*%
X156000000Y-119500000D03*
%TO.N,CV-2*%
X138250000Y-86250000D03*
X142000000Y-83750000D03*
%TO.N,CV-4*%
X121250000Y-82250000D03*
X124750000Y-77500000D03*
X125250000Y-74750000D03*
X135750000Y-75000000D03*
X142500000Y-84500000D03*
X143250000Y-82250000D03*
X152500000Y-85500000D03*
X151750000Y-83500000D03*
X161500000Y-80250000D03*
X163500000Y-78750000D03*
X162500000Y-73750000D03*
X162000000Y-69000000D03*
X168000000Y-33750000D03*
%TO.N,INTERRUPT-1*%
X164500000Y-104500000D03*
X164500000Y-102250000D03*
X156750000Y-90250000D03*
X156000000Y-80500000D03*
X143250000Y-79750000D03*
%TO.N,CV-1*%
X144500000Y-98000000D03*
X144500000Y-96250000D03*
X143000000Y-87000000D03*
X103500000Y-69250000D03*
X104500000Y-63750000D03*
%TO.N,WIRE1-SDA*%
X144500000Y-118000000D03*
%TO.N,ILI9341-DISPLAY-SCK*%
X167500000Y-57250000D03*
X175000000Y-55750000D03*
%TO.N,ILI9341-DISPLAY-MISO*%
X164250000Y-55500000D03*
X167000000Y-52750000D03*
%TO.N,GND*%
X158500000Y-96250000D03*
X102250000Y-108500000D03*
X100750000Y-101000000D03*
X97500000Y-108500000D03*
X100750000Y-110000000D03*
X188750000Y-88750000D03*
X101500000Y-108500000D03*
X188750000Y-91250000D03*
X92250000Y-110750000D03*
X92250000Y-111500000D03*
X156500000Y-97250000D03*
X98250000Y-108500000D03*
%TO.N,CV-3*%
X166500000Y-103750000D03*
X150750000Y-118250000D03*
X156000000Y-94750000D03*
X165500000Y-102250000D03*
X162500000Y-99750000D03*
X159500000Y-100750000D03*
X177000000Y-49000000D03*
X171750000Y-80250000D03*
%TO.N,BUTTON-A*%
X159500000Y-68500000D03*
X159500000Y-70500000D03*
X175000000Y-80750000D03*
X159750000Y-79000000D03*
X186250000Y-80750000D03*
X185750000Y-78500000D03*
X177000000Y-80500000D03*
%TO.N,BUTTON-B*%
X203750000Y-80000000D03*
X172250000Y-78500000D03*
X160250000Y-57500000D03*
X177000000Y-89750000D03*
X186000000Y-96250000D03*
X173250000Y-80750000D03*
X204250000Y-78500000D03*
X166500000Y-80250000D03*
X183250000Y-96750000D03*
X197750000Y-91000000D03*
X198750000Y-87000000D03*
%TO.N,BUTTON-DOWN*%
X144000000Y-77000000D03*
X96750000Y-95000000D03*
X96750000Y-97500000D03*
%TO.N,BUTTON-LB*%
X126000000Y-87500000D03*
X143750000Y-51500000D03*
X143750000Y-45500000D03*
X108750000Y-79000000D03*
X107250000Y-78000000D03*
X89500000Y-71250000D03*
X91750000Y-71250000D03*
X143750000Y-53500000D03*
X122500000Y-87500000D03*
%TO.N,BUTTON-LEFT*%
X85750000Y-86250000D03*
%TO.N,BUTTON-MISC1*%
X149500000Y-55500000D03*
X149750000Y-45500000D03*
X151500000Y-79750000D03*
X152250000Y-98750000D03*
X149500000Y-57250000D03*
X149750000Y-99750000D03*
X137500000Y-103750000D03*
X149750000Y-79750000D03*
X135000000Y-103750000D03*
X154500000Y-86500000D03*
%TO.N,BUTTON-MISC2*%
X150500000Y-46250000D03*
X150500000Y-57250000D03*
X157250000Y-85500000D03*
X150500000Y-55750000D03*
X150500000Y-81250000D03*
X154500000Y-81250000D03*
%TO.N,BUTTON-RB*%
X192500000Y-36250000D03*
X188500000Y-35500000D03*
%TO.N,BUTTON-RIGHT*%
X116500000Y-76750000D03*
X143000000Y-69500000D03*
X153750000Y-72250000D03*
X97000000Y-73500000D03*
%TO.N,BUTTON-UP*%
X140250000Y-74500000D03*
X90500000Y-81500000D03*
X153250000Y-74000000D03*
X92000000Y-81000000D03*
%TO.N,BUTTON-X*%
X185250000Y-80500000D03*
X167250000Y-77250000D03*
X184750000Y-78000000D03*
X164250000Y-72750000D03*
%TO.N,BUTTON-Y*%
X170250000Y-43250000D03*
X204250000Y-50250000D03*
X161750000Y-57750000D03*
X205750000Y-51250000D03*
%TO.N,LEFT-JOY-Y*%
X138500000Y-31500000D03*
X138500000Y-34000000D03*
%TO.N,+3.3V*%
X126750000Y-36750000D03*
X93250000Y-35500000D03*
X145000000Y-89250000D03*
X150000000Y-86250000D03*
%TO.N,LEFT-JOY-SEL*%
X137250000Y-33750000D03*
X93250000Y-65500000D03*
X90750000Y-64750000D03*
X105000000Y-57000000D03*
X137250000Y-29250000D03*
X104000000Y-54750000D03*
%TO.N,WIRE1-SDA*%
X158000000Y-102250000D03*
X151500000Y-55750000D03*
X151500000Y-57250000D03*
X157250000Y-100750000D03*
X151750000Y-76500000D03*
X156250000Y-85250000D03*
X153250000Y-77500000D03*
%TO.N,INTERRUPT-2*%
X163000000Y-105250000D03*
X151750000Y-89750000D03*
X161250000Y-104250000D03*
X149750000Y-88250000D03*
X148000000Y-65500000D03*
%TO.N,WIRE1-SCL*%
X157000000Y-102250000D03*
X155750000Y-100250000D03*
X154750000Y-95500000D03*
X152500000Y-55750000D03*
X152500000Y-57250000D03*
%TO.N,RIGHT-JOY-SEL*%
X165250000Y-73750000D03*
X164750000Y-75250000D03*
X163500000Y-57750000D03*
X170750000Y-53750000D03*
X164000000Y-77750000D03*
X163000000Y-76250000D03*
%TO.N,RIGHT-JOY-Y*%
X145500000Y-82000000D03*
X144500000Y-34500000D03*
X183500000Y-85250000D03*
X144750000Y-52000000D03*
X144750000Y-55500000D03*
X164750000Y-85000000D03*
X166750000Y-85500000D03*
X184500000Y-87500000D03*
X144500000Y-38500000D03*
X144500000Y-28250000D03*
%TO.N,RIGHT-JOY-X*%
X145500000Y-38500000D03*
X209750000Y-83500000D03*
X145500000Y-34500000D03*
X147500000Y-82000000D03*
X158250000Y-85500000D03*
X179500000Y-90500000D03*
X147005000Y-57250000D03*
X185500000Y-86250000D03*
X156250000Y-82000000D03*
X145500000Y-30250000D03*
X147000000Y-54750000D03*
%TO.N,BYPASS-SWITCH*%
X144000000Y-85250000D03*
X154500000Y-70250000D03*
X154500000Y-57250000D03*
X154500000Y-25500000D03*
X155000000Y-71750000D03*
X155750000Y-73250000D03*
X154500000Y-27000000D03*
X154500000Y-55750000D03*
%TO.N,ILI9341-DISPLAY-CS*%
X164000000Y-53750000D03*
X163250000Y-50750000D03*
%TO.N,ILI9341-DISPLAY-DC*%
X171250000Y-75000000D03*
X167500000Y-74500000D03*
X154750000Y-73000000D03*
%TO.N,LEFT-TRIGGER*%
X121250000Y-42250000D03*
X125000000Y-43250000D03*
%TO.N,RIGHT-TRIGGER*%
X172250000Y-54500000D03*
X146500000Y-82000000D03*
X165000000Y-83750000D03*
X175250000Y-56750000D03*
X167000000Y-83750000D03*
X145750000Y-55500000D03*
%TO.N,ILI9341-DISPLAY-RST*%
X143000000Y-78750000D03*
X154500000Y-78750000D03*
%TO.N,WIRE1-SCL*%
X153000000Y-118250000D03*
%TD*%
D26*
%TO.N,CV-3*%
X155500000Y-119250000D02*
X156000000Y-119500000D01*
%TO.N,CV-2*%
X142000000Y-83750000D02*
X138250000Y-86250000D01*
%TO.N,CV-4*%
X121250000Y-82250000D02*
X123250000Y-82500000D01*
X123250000Y-82500000D02*
X124000000Y-82250000D01*
X124000000Y-82250000D02*
X124500000Y-81750000D01*
X124500000Y-81750000D02*
X124750000Y-81000000D01*
X124750000Y-81000000D02*
X124250000Y-80500000D01*
X124250000Y-80500000D02*
X124250000Y-79250000D01*
X124250000Y-79250000D02*
X124500000Y-78750000D01*
X124500000Y-78750000D02*
X124750000Y-77500000D01*
X125250000Y-74750000D02*
X126250000Y-73750000D01*
X126250000Y-73750000D02*
X126750000Y-73750000D01*
X126750000Y-73750000D02*
X128000000Y-74000000D01*
X128000000Y-74000000D02*
X129250000Y-73750000D01*
X129250000Y-73750000D02*
X130250000Y-73000000D01*
X130250000Y-73000000D02*
X130250000Y-71500000D01*
X130250000Y-71500000D02*
X130500000Y-70500000D01*
X130500000Y-70500000D02*
X131250000Y-69500000D01*
X131250000Y-69500000D02*
X132500000Y-69250000D01*
X132500000Y-69250000D02*
X134000000Y-69500000D01*
X134000000Y-69500000D02*
X135250000Y-70250000D01*
X135250000Y-70250000D02*
X135500000Y-71500000D01*
X135500000Y-71500000D02*
X135500000Y-72750000D01*
X135500000Y-72750000D02*
X135750000Y-75000000D01*
X142500000Y-84500000D02*
X143000000Y-83750000D01*
X143000000Y-83750000D02*
X143000000Y-83000000D01*
X143000000Y-83000000D02*
X143250000Y-82250000D01*
X152500000Y-85500000D02*
X151750000Y-83500000D01*
X162250000Y-80500000D02*
X161500000Y-80250000D01*
X162750000Y-80500000D02*
X162250000Y-80500000D01*
X163250000Y-80000000D02*
X162750000Y-80500000D01*
X163500000Y-79500000D02*
X163250000Y-80000000D01*
X163500000Y-78750000D02*
X163500000Y-79500000D01*
X164250000Y-73750000D02*
X162500000Y-73750000D01*
X165000000Y-73000000D02*
X164250000Y-73750000D01*
X165250000Y-72250000D02*
X165000000Y-73000000D01*
X164750000Y-71750000D02*
X165250000Y-72250000D01*
X163750000Y-71250000D02*
X164750000Y-71750000D01*
X163000000Y-71000000D02*
X163750000Y-71250000D01*
X162500000Y-70250000D02*
X163000000Y-71000000D01*
X162000000Y-69000000D02*
X162500000Y-70250000D01*
X169250000Y-34000000D02*
X168000000Y-33750000D01*
X170500000Y-35000000D02*
X169250000Y-34000000D01*
X171250000Y-35000000D02*
X170500000Y-35000000D01*
X171750000Y-34000000D02*
X171250000Y-35000000D01*
X172000000Y-32000000D02*
X171750000Y-34000000D01*
X171750000Y-30250000D02*
X172000000Y-32000000D01*
X171500000Y-29000000D02*
X171750000Y-30250000D01*
X171070000Y-28050000D02*
X171500000Y-29000000D01*
%TO.N,INTERRUPT-1*%
X164500000Y-104500000D02*
X164500000Y-102250000D01*
X156750000Y-90250000D02*
X157250000Y-88750000D01*
X157250000Y-88750000D02*
X157750000Y-87500000D01*
X157750000Y-87500000D02*
X157750000Y-86750000D01*
X157750000Y-86750000D02*
X158750000Y-86250000D01*
X158750000Y-86250000D02*
X159500000Y-85750000D01*
X159500000Y-85750000D02*
X157000000Y-81750000D01*
X157000000Y-81750000D02*
X156000000Y-80500000D01*
X143250000Y-79750000D02*
X143750000Y-79000000D01*
X143750000Y-79000000D02*
X143250000Y-76500000D01*
X143250000Y-76500000D02*
X143250000Y-71000000D01*
X143250000Y-71000000D02*
X144000000Y-69250000D01*
X144000000Y-69250000D02*
X144000000Y-68250000D01*
X144000000Y-68250000D02*
X141855596Y-68225000D01*
%TO.N,CV-1*%
X139482285Y-108256116D02*
X140000000Y-106250000D01*
X140000000Y-106250000D02*
X140500000Y-105500000D01*
X140500000Y-105500000D02*
X141000000Y-105250000D01*
X141000000Y-105250000D02*
X141750000Y-104750000D01*
X141750000Y-104750000D02*
X142500000Y-104500000D01*
X142500000Y-104500000D02*
X144000000Y-104500000D01*
X144000000Y-104500000D02*
X145000000Y-104250000D01*
X145000000Y-104250000D02*
X146750000Y-102500000D01*
X146750000Y-102500000D02*
X147000000Y-101500000D01*
X147000000Y-101500000D02*
X146750000Y-100750000D01*
X146750000Y-100750000D02*
X146250000Y-100000000D01*
X146250000Y-100000000D02*
X145000000Y-99500000D01*
X145000000Y-99500000D02*
X144750000Y-99250000D01*
X144750000Y-99250000D02*
X144500000Y-98750000D01*
X144500000Y-98750000D02*
X144500000Y-98000000D01*
X143250000Y-95500000D02*
X144500000Y-96250000D01*
X143250000Y-88500000D02*
X143250000Y-95500000D01*
X143000000Y-87000000D02*
X143250000Y-88500000D01*
X104500000Y-63750000D02*
X103500000Y-69250000D01*
%TO.N,WIRE1-SDA*%
X144500000Y-118000000D02*
X146500000Y-117000000D01*
X154250000Y-116750000D02*
X157250000Y-115500000D01*
X159250000Y-114250000D02*
X160750000Y-113750000D01*
X146500000Y-117000000D02*
X148750000Y-116750000D01*
X148750000Y-116750000D02*
X150000000Y-117000000D01*
X158500000Y-115250000D02*
X158750000Y-114750000D01*
X150000000Y-117000000D02*
X152750000Y-117000000D01*
X152750000Y-117000000D02*
X154250000Y-116750000D01*
X160750000Y-113750000D02*
X161000000Y-113000000D01*
X157750000Y-115500000D02*
X158500000Y-115250000D01*
X157250000Y-115500000D02*
X157750000Y-115500000D01*
X158750000Y-114750000D02*
X159250000Y-114250000D01*
%TO.N,ILI9341-DISPLAY-SCK*%
X167500000Y-57250000D02*
X147500000Y-56250000D01*
X147500000Y-56250000D02*
X141855596Y-50445000D01*
X179935596Y-57890000D02*
X175000000Y-55750000D01*
%TO.N,ILI9341-DISPLAY-MISO*%
X164250000Y-55500000D02*
X157095596Y-50445000D01*
X179935596Y-60430000D02*
X167000000Y-52750000D01*
%TO.N,INTERRUPT-2*%
X161250000Y-104250000D02*
X160500000Y-103750000D01*
X154250000Y-93000000D02*
X154750000Y-93000000D01*
X153250000Y-93250000D02*
X154250000Y-93000000D01*
X156500000Y-96250000D02*
X156000000Y-96000000D01*
X159250000Y-102500000D02*
X158750000Y-101000000D01*
X158750000Y-101000000D02*
X158500000Y-100750000D01*
X155192556Y-92732049D02*
X155250000Y-92000000D01*
X157750000Y-97500000D02*
X157500000Y-97000000D01*
X156000000Y-96000000D02*
X155000000Y-96500000D01*
X155000000Y-96500000D02*
X154250000Y-96750000D01*
X158500000Y-100750000D02*
X157750000Y-99750000D01*
X154250000Y-96750000D02*
X153000000Y-96500000D01*
X160500000Y-103750000D02*
X159250000Y-102500000D01*
X153000000Y-96500000D02*
X152500000Y-96250000D01*
X152500000Y-96250000D02*
X152250000Y-95750000D01*
X152500000Y-93750000D02*
X153250000Y-93250000D01*
X152250000Y-95750000D02*
X152000000Y-95500000D01*
X152000000Y-95500000D02*
X152250000Y-94750000D01*
X152250000Y-94750000D02*
X152500000Y-93750000D01*
X157500000Y-97000000D02*
X156500000Y-96250000D01*
X154750000Y-93000000D02*
X155192556Y-92732049D01*
X157750000Y-99750000D02*
X157750000Y-97500000D01*
X154000000Y-90250000D02*
X153500000Y-90500000D01*
X155250000Y-92000000D02*
X155500000Y-91500000D01*
X154750000Y-90250000D02*
X154000000Y-90250000D01*
X155500000Y-91500000D02*
X155250000Y-90750000D01*
X155250000Y-90750000D02*
X154750000Y-90250000D01*
X153500000Y-90500000D02*
X152750000Y-90500000D01*
X152750000Y-90500000D02*
X151750000Y-89750000D01*
%TO.N,GND*%
X156000000Y-111500000D02*
X156250000Y-112750000D01*
X93250000Y-95750000D02*
X92250000Y-95500000D01*
X162000000Y-98687500D02*
X162250000Y-98750000D01*
X99750000Y-97000000D02*
X98500000Y-96500000D01*
X225000000Y-42750000D02*
X223500000Y-44750000D01*
X167500000Y-99500000D02*
X167000000Y-99000000D01*
X161250000Y-95750000D02*
X160000000Y-95500000D01*
X124500000Y-23500000D02*
X123562500Y-22937500D01*
X104500000Y-19250000D02*
X90500000Y-20000000D01*
X129000000Y-24000000D02*
X126500000Y-23750000D01*
X121250000Y-22000000D02*
X120500000Y-20500000D01*
X117750000Y-109750000D02*
X120250000Y-110250000D01*
X131750000Y-111250000D02*
X135000000Y-111250000D01*
X140250000Y-111750000D02*
X143750000Y-113500000D01*
X82767857Y-76750000D02*
X77250000Y-78750000D01*
X108750000Y-19500000D02*
X106250000Y-19250000D01*
X131000000Y-23500000D02*
X129000000Y-24000000D01*
X127000000Y-114000000D02*
X128250000Y-112750000D01*
X215000000Y-44221502D02*
X217719312Y-49280688D01*
X205400000Y-84420000D02*
X214500000Y-84430605D01*
X161750000Y-98250000D02*
X162000000Y-97500000D01*
X165250000Y-98000000D02*
X165500000Y-96750000D01*
X92500000Y-65000000D02*
X92250000Y-64000000D01*
X166000000Y-91250000D02*
X166500000Y-90750000D01*
X151750000Y-115250000D02*
X151750000Y-113750000D01*
X166500000Y-101250000D02*
X167250000Y-101000000D01*
X182250000Y-23000000D02*
X181000000Y-23500000D01*
X223500000Y-44750000D02*
X221500000Y-47250000D01*
X177250000Y-94000000D02*
X177000000Y-93000000D01*
X208140663Y-92390663D02*
X205400000Y-94580000D01*
X98250000Y-105250000D02*
X92500000Y-110500000D01*
X208500000Y-44221502D02*
X215000000Y-44221502D01*
X120750000Y-113000000D02*
X121250000Y-114500000D01*
X92250000Y-111500000D02*
X101500000Y-111500000D01*
X149250000Y-116000000D02*
X151000000Y-116000000D01*
X164750000Y-21500000D02*
X166000000Y-23000000D01*
X220375000Y-54221502D02*
X215000000Y-64221502D01*
X163000000Y-103500000D02*
X163000000Y-102250000D01*
X89267857Y-76750000D02*
X90000000Y-76250000D01*
X102250000Y-108500000D02*
X102250000Y-103750000D01*
X143500000Y-97250000D02*
X143000000Y-97500000D01*
X159500000Y-106750000D02*
X160250000Y-106000000D01*
X214500000Y-84430605D02*
X218100000Y-84434800D01*
X120250000Y-110250000D02*
X120750000Y-111250000D01*
X79750000Y-26500000D02*
X79917857Y-50920000D01*
X132790000Y-18725000D02*
X137500000Y-18750000D01*
X75000000Y-84500000D02*
X75000001Y-90999999D01*
X90250000Y-71750000D02*
X90750000Y-71250000D01*
X162000000Y-96500000D02*
X161250000Y-95750000D01*
X144250000Y-115500000D02*
X143500000Y-117500000D01*
X160250000Y-106000000D02*
X161250000Y-105500000D01*
X103000000Y-107750000D02*
X103000000Y-109750000D01*
X205400000Y-94580000D02*
X205400000Y-84420000D01*
X229500000Y-64500000D02*
X228750000Y-68500000D01*
X220750000Y-81250000D02*
X218100000Y-84434800D01*
X91500000Y-92750000D02*
X91000000Y-92500000D01*
X176250000Y-23500000D02*
X174250000Y-22500000D01*
X91000000Y-92500000D02*
X89250000Y-94250000D01*
X115500000Y-25000000D02*
X118000000Y-25000000D01*
X153500000Y-111250000D02*
X154750000Y-111000000D01*
X181500000Y-95500000D02*
X180500000Y-95500000D01*
X160000000Y-111500000D02*
X159500000Y-110250000D01*
X89500000Y-73250000D02*
X90250000Y-71750000D01*
X225750000Y-75500000D02*
X223750000Y-78500000D01*
X189250000Y-80481502D02*
X205400000Y-84420000D01*
X165500000Y-98500000D02*
X165250000Y-98000000D01*
X146250000Y-113750000D02*
X147500000Y-114750000D01*
X137500000Y-18750000D02*
X141855596Y-19965000D01*
X90750000Y-63250000D02*
X89442857Y-61874800D01*
X163250000Y-101750000D02*
X164000000Y-101500000D01*
X91750000Y-94250000D02*
X91750000Y-93250000D01*
X79917857Y-50920000D02*
X92617857Y-50934800D01*
X162250000Y-19500000D02*
X163500000Y-20750000D01*
X139750000Y-97750000D02*
X141000000Y-98000000D01*
X113750000Y-24750000D02*
X115500000Y-25000000D01*
X113000000Y-23500000D02*
X113750000Y-24750000D01*
X100750000Y-99000000D02*
X100500000Y-97750000D01*
X128250000Y-112750000D02*
X129500000Y-111750000D01*
X91750000Y-63500000D02*
X90750000Y-63250000D01*
X133250000Y-90250000D02*
X134250000Y-89750000D01*
X135250000Y-89500000D02*
X136250000Y-89750000D01*
X206500000Y-19960000D02*
X192500000Y-20000000D01*
X229750000Y-56000000D02*
X230250000Y-58250000D01*
X179500000Y-94500000D02*
X178250000Y-94250000D01*
X90000000Y-74000000D02*
X89500000Y-73250000D01*
X154750000Y-111000000D02*
X156000000Y-111500000D01*
X98500000Y-96500000D02*
X97750000Y-96750000D01*
X170500000Y-23000000D02*
X173555556Y-21944444D01*
X92617857Y-61064800D02*
X95157857Y-58540000D01*
X120750000Y-111250000D02*
X120750000Y-113000000D01*
X84000000Y-21700000D02*
X79750000Y-26500000D01*
X97000000Y-96750000D02*
X96000000Y-96500000D01*
X82750000Y-94250000D02*
X89250000Y-94250000D01*
X174500000Y-91250000D02*
X173750000Y-90000000D01*
X134250000Y-89750000D02*
X135250000Y-89500000D01*
X137500000Y-91500000D02*
X137750000Y-92500000D01*
X126500000Y-23750000D02*
X124500000Y-23500000D01*
X88750000Y-46750000D02*
X90431122Y-48568878D01*
X125500000Y-114500000D02*
X127000000Y-114000000D01*
X174250000Y-22500000D02*
X173555556Y-21944444D01*
X89267857Y-76750000D02*
X92500000Y-84500000D01*
X91500000Y-66250000D02*
X92000000Y-65500000D01*
X120500000Y-20500000D02*
X119790000Y-18725000D01*
X92250000Y-95500000D02*
X91750000Y-94250000D01*
X227000000Y-39250000D02*
X225000000Y-42750000D01*
X156500000Y-97250000D02*
X149750000Y-97250000D01*
X159500000Y-113000000D02*
X160000000Y-111500000D01*
X163500000Y-20750000D02*
X164750000Y-21500000D01*
X97750000Y-96750000D02*
X97000000Y-96750000D01*
X123562500Y-22937500D02*
X123250000Y-22750000D01*
X188750000Y-91250000D02*
X187500000Y-92250000D01*
X162250000Y-98750000D02*
X165250000Y-98000000D01*
X179935596Y-78210000D02*
X189250000Y-80481502D01*
X121250000Y-114500000D02*
X123500000Y-114750000D01*
X91750000Y-93250000D02*
X91500000Y-92750000D01*
X184191071Y-18650000D02*
X183750000Y-21750000D01*
X100750000Y-101000000D02*
X100750000Y-99000000D01*
X88792857Y-47124800D02*
X88750000Y-46750000D01*
X90750000Y-71250000D02*
X91000000Y-70750000D01*
X183000000Y-94750000D02*
X182000000Y-95000000D01*
X141750000Y-98250000D02*
X141000000Y-98000000D01*
X230250000Y-58250000D02*
X230000000Y-61000000D01*
X174250000Y-90250000D02*
X167750000Y-90250000D01*
X227750000Y-33500000D02*
X227500000Y-36250000D01*
X86750000Y-21750000D02*
X90500000Y-20000000D01*
X137000000Y-90250000D02*
X137500000Y-91500000D01*
X162500000Y-104750000D02*
X162750000Y-104250000D01*
X92500000Y-110500000D02*
X92250000Y-110750000D01*
X160000000Y-95500000D02*
X158500000Y-96250000D01*
X217719312Y-49280688D02*
X220375000Y-54221502D01*
X182000000Y-95000000D02*
X181500000Y-95500000D01*
X206500000Y-19960000D02*
X214750000Y-20000000D01*
X90750000Y-74750000D02*
X90500000Y-74250000D01*
X227500000Y-30250000D02*
X227750000Y-33500000D01*
X141750000Y-117750000D02*
X140000000Y-117250000D01*
X102250000Y-103750000D02*
X104500000Y-107750000D01*
X90500000Y-74250000D02*
X90000000Y-74000000D01*
X132250000Y-22500000D02*
X131000000Y-23500000D01*
X227500000Y-36250000D02*
X227000000Y-39250000D01*
X228750000Y-68500000D02*
X227000000Y-73500000D01*
X163000000Y-102250000D02*
X163250000Y-101750000D01*
X135000000Y-111250000D02*
X140250000Y-111750000D01*
X162000000Y-105250000D02*
X162500000Y-104750000D01*
X143000000Y-97500000D02*
X142500000Y-98000000D01*
X166250000Y-101500000D02*
X166500000Y-101250000D01*
X91500000Y-70250000D02*
X92000000Y-70000000D01*
X96000000Y-96500000D02*
X95750000Y-95750000D01*
X138000000Y-94250000D02*
X138250000Y-95750000D01*
X123250000Y-22750000D02*
X121250000Y-22000000D01*
X214750000Y-20000000D02*
X217516387Y-21700000D01*
X121750000Y-24250000D02*
X123000000Y-23500000D01*
X165750000Y-94500000D02*
X165750000Y-92000000D01*
X167000000Y-99000000D02*
X165500000Y-98500000D01*
X111750000Y-21750000D02*
X110500000Y-20750000D01*
X167250000Y-101000000D02*
X167500000Y-100250000D01*
X162000000Y-97500000D02*
X162000000Y-96500000D01*
X185500000Y-94000000D02*
X185250000Y-95250000D01*
X220500000Y-48000000D02*
X217719312Y-49280688D01*
X166000000Y-23000000D02*
X167500000Y-23250000D01*
X221500000Y-47250000D02*
X220500000Y-48000000D01*
X138250000Y-95750000D02*
X138750000Y-97250000D01*
X230000000Y-61000000D02*
X229500000Y-64500000D01*
X149736842Y-97000000D02*
X149500000Y-92500000D01*
X162750000Y-104250000D02*
X163000000Y-103500000D01*
X97500000Y-110000000D02*
X97500000Y-108500000D01*
X91250000Y-67000000D02*
X91500000Y-66250000D01*
X187500000Y-92250000D02*
X186500000Y-93500000D01*
X91250000Y-68000000D02*
X91250000Y-67000000D01*
X94500000Y-95500000D02*
X93250000Y-95750000D01*
X132750000Y-21000000D02*
X132250000Y-22500000D01*
X92250000Y-64000000D02*
X91750000Y-63500000D01*
X129500000Y-111750000D02*
X131750000Y-111250000D01*
X186500000Y-93500000D02*
X185500000Y-94000000D01*
X227000000Y-73500000D02*
X225750000Y-75500000D01*
X92000000Y-70000000D02*
X92000000Y-69250000D01*
X98250000Y-108500000D02*
X98250000Y-105250000D01*
X220375000Y-54221502D02*
X226875000Y-54221502D01*
X91000000Y-70750000D02*
X91500000Y-70250000D01*
X79917857Y-50920000D02*
X79917857Y-61080000D01*
X215000000Y-64221502D02*
X208500000Y-64221502D01*
X217516387Y-21700000D02*
X222750000Y-23000000D01*
X92500001Y-90999999D02*
X91000000Y-92500000D01*
X132790000Y-18725000D02*
X132750000Y-21000000D01*
X156250000Y-112750000D02*
X157000000Y-113500000D01*
X177000000Y-93000000D02*
X177000000Y-91500000D01*
X110500000Y-20750000D02*
X108750000Y-19500000D01*
X180500000Y-95500000D02*
X179500000Y-94500000D01*
X164000000Y-101500000D02*
X166250000Y-101500000D01*
X143500000Y-97250000D02*
X149750000Y-97250000D01*
X208500000Y-64221502D02*
X203125000Y-54221502D01*
X101500000Y-111500000D02*
X101500000Y-108500000D01*
X227000000Y-27250000D02*
X227500000Y-30250000D01*
X222750000Y-23000000D02*
X225750000Y-25000000D01*
X92500000Y-84500000D02*
X92500001Y-90999999D01*
X92617857Y-50934800D02*
X92617857Y-61064800D01*
X178250000Y-94250000D02*
X177250000Y-94000000D01*
X152500000Y-112000000D02*
X153500000Y-111250000D01*
X143750000Y-113500000D02*
X144250000Y-115500000D01*
X218100000Y-84434800D02*
X208140663Y-92390663D01*
%TO.N,CV-3*%
X171000000Y-84000000D02*
X170250000Y-84250000D01*
X183500000Y-37500000D02*
X182750000Y-39250000D01*
X159750000Y-87500000D02*
X159000000Y-88250000D01*
X169750000Y-84250000D02*
X169250000Y-84000000D01*
X165500000Y-84500000D02*
X164500000Y-84250000D01*
X153750000Y-117750000D02*
X154500000Y-118500000D01*
X177000000Y-42250000D02*
X176750000Y-43750000D01*
X161750000Y-101250000D02*
X161250000Y-101500000D01*
X176750000Y-46000000D02*
X177000000Y-47500000D01*
X183971071Y-28050000D02*
X184000000Y-35750000D01*
X154500000Y-118500000D02*
X155500000Y-119250000D01*
X157732934Y-90722694D02*
X157000000Y-91000000D01*
X158250000Y-90250000D02*
X157732934Y-90722694D01*
X161750000Y-88250000D02*
X161250000Y-87750000D01*
X157000000Y-91000000D02*
X156500000Y-91500000D01*
X162500000Y-85500000D02*
X162250000Y-86000000D01*
X162500000Y-88250000D02*
X161750000Y-88250000D01*
X184000000Y-35750000D02*
X183500000Y-37500000D01*
X164000000Y-84250000D02*
X163500000Y-84500000D01*
X156250000Y-93000000D02*
X156500000Y-93500000D01*
X156250000Y-94000000D02*
X156000000Y-94750000D01*
X163000000Y-85000000D02*
X162500000Y-85500000D01*
X176750000Y-43750000D02*
X176750000Y-46000000D01*
X168750000Y-83750000D02*
X168250000Y-83500000D01*
X166250000Y-84750000D02*
X165500000Y-84500000D01*
X179750000Y-40750000D02*
X178000000Y-41000000D01*
X151750000Y-117750000D02*
X152750000Y-117500000D01*
X156500000Y-91500000D02*
X156500000Y-92000000D01*
X170250000Y-84250000D02*
X169750000Y-84250000D01*
X171750000Y-80250000D02*
X171500000Y-81500000D01*
X171250000Y-83750000D02*
X171000000Y-84000000D01*
%TO.N,GND*%
X214275000Y-80624800D02*
X214500000Y-84430605D01*
X167500000Y-23250000D02*
X170500000Y-23000000D01*
X103000000Y-109750000D02*
X117750000Y-109750000D01*
X142500000Y-98000000D02*
X141750000Y-98250000D01*
X90431122Y-48568878D02*
X92617857Y-50934800D01*
X165750000Y-92000000D02*
X166000000Y-91250000D01*
X147500000Y-114750000D02*
X148000000Y-115500000D01*
X189250000Y-80481502D02*
X188750000Y-88750000D01*
X151750000Y-113750000D02*
X152000000Y-112500000D01*
X143500000Y-117500000D02*
X141750000Y-117750000D01*
X100500000Y-97750000D02*
X99750000Y-97000000D01*
X90750000Y-75750000D02*
X90750000Y-74750000D01*
X162000000Y-98687500D02*
X161750000Y-98250000D01*
X159500000Y-110250000D02*
X158235093Y-108250000D01*
X84000000Y-21700000D02*
X86750000Y-21750000D01*
X152000000Y-112500000D02*
X152500000Y-112000000D01*
X226875000Y-54221502D02*
X229750000Y-56000000D01*
X91750000Y-68250000D02*
X91250000Y-68000000D01*
X92000000Y-69250000D02*
X91750000Y-68250000D01*
X92617857Y-61064800D02*
X89442857Y-61874800D01*
X184250000Y-95250000D02*
X183000000Y-94750000D01*
X218100000Y-94564800D02*
X220640000Y-92040000D01*
X92000000Y-65500000D02*
X92500000Y-65000000D01*
X203125000Y-54221502D02*
X196625000Y-54221502D01*
X113000000Y-23500000D02*
X111750000Y-21750000D01*
X214925000Y-95374800D02*
X208140663Y-92390663D01*
X95750000Y-95750000D02*
X95000000Y-95500000D01*
X100750000Y-110000000D02*
X97500000Y-110000000D01*
X166500000Y-90750000D02*
X167750000Y-90250000D01*
X218100000Y-94564800D02*
X218100000Y-84434800D01*
X165500000Y-96750000D02*
X165750000Y-94500000D01*
X167500000Y-100250000D02*
X167500000Y-99500000D01*
X184191071Y-18650000D02*
X192500000Y-20000000D01*
X77250000Y-78750000D02*
X75000000Y-84500000D01*
X131250000Y-90250000D02*
X133250000Y-90250000D01*
X203125000Y-54221502D02*
X208500000Y-44221502D01*
X181000000Y-23500000D02*
X178750000Y-23750000D01*
X148000000Y-115500000D02*
X149250000Y-116000000D01*
X137750000Y-92500000D02*
X138000000Y-94250000D01*
X146250000Y-113750000D02*
X143750000Y-113500000D01*
X214925000Y-95374800D02*
X218100000Y-94564800D01*
X106250000Y-19250000D02*
X104500000Y-19250000D01*
X95000000Y-95500000D02*
X94500000Y-95500000D01*
X138750000Y-119500000D02*
X139494904Y-120950000D01*
X124750000Y-90250000D02*
X131250000Y-90250000D01*
X173555556Y-21944444D02*
X173000000Y-21500000D01*
X89267857Y-76750000D02*
X82767857Y-76750000D01*
X160750000Y-18250000D02*
X162250000Y-19500000D01*
X149750000Y-97250000D02*
X149736842Y-97000000D01*
X157000000Y-113500000D02*
X158500000Y-113750000D01*
X139000000Y-118250000D02*
X138750000Y-119500000D01*
X123500000Y-114750000D02*
X125500000Y-114500000D01*
X172000000Y-20500000D02*
X171290000Y-18650000D01*
X123000000Y-23500000D02*
X123562500Y-22937500D01*
X183750000Y-21750000D02*
X182250000Y-23000000D01*
X136250000Y-89750000D02*
X137000000Y-90250000D01*
X151000000Y-116000000D02*
X151750000Y-115250000D01*
X225750000Y-25000000D02*
X227000000Y-27250000D01*
X119750000Y-24750000D02*
X121750000Y-24250000D01*
X118000000Y-25000000D02*
X119750000Y-24750000D01*
X140000000Y-117250000D02*
X139000000Y-118250000D01*
X173000000Y-21500000D02*
X172000000Y-20500000D01*
X158500000Y-113750000D02*
X159500000Y-113000000D01*
X158289996Y-108256116D02*
X159500000Y-106750000D01*
X223750000Y-78500000D02*
X220750000Y-81250000D01*
X90000000Y-76250000D02*
X90750000Y-75750000D01*
X157095596Y-17425000D02*
X160750000Y-18250000D01*
X161250000Y-105500000D02*
X162000000Y-105250000D01*
X178750000Y-23750000D02*
X176250000Y-23500000D01*
X138750000Y-97250000D02*
X139750000Y-97750000D01*
X177000000Y-91500000D02*
X176500000Y-90250000D01*
X104500000Y-107750000D02*
X103000000Y-107750000D01*
X176500000Y-90250000D02*
X174250000Y-90250000D01*
X75000001Y-90999999D02*
X82750000Y-94250000D01*
X185250000Y-95250000D02*
X184250000Y-95250000D01*
%TO.N,BUTTON-B*%
X167500000Y-87500000D02*
X168250000Y-87500000D01*
X183250000Y-96750000D02*
X186000000Y-96250000D01*
X167000000Y-88500000D02*
X167500000Y-87500000D01*
X166750000Y-81000000D02*
X167000000Y-81500000D01*
X166000000Y-89250000D02*
X167000000Y-88500000D01*
X198750000Y-88000000D02*
X198750000Y-87000000D01*
X169500000Y-78750000D02*
X170250000Y-78250000D01*
X168750000Y-85000000D02*
X167000000Y-86250000D01*
X171750000Y-86000000D02*
X170750000Y-85750000D01*
X159250000Y-58500000D02*
X157095596Y-58065000D01*
X172250000Y-86000000D02*
X171750000Y-86000000D01*
X173750000Y-84000000D02*
X173000000Y-85500000D01*
X166500000Y-80250000D02*
X166750000Y-81000000D01*
X173250000Y-80750000D02*
X173750000Y-83000000D01*
X167000000Y-86250000D02*
X166000000Y-87500000D01*
X169000000Y-88500000D02*
X169750000Y-88750000D01*
X168250000Y-80500000D02*
X169000000Y-79500000D01*
X169750000Y-88750000D02*
X171000000Y-89250000D01*
X167500000Y-81500000D02*
X168250000Y-80500000D01*
X197750000Y-91000000D02*
X198750000Y-88000000D01*
X165500000Y-89000000D02*
X166000000Y-89250000D01*
X203750000Y-80000000D02*
X204250000Y-78500000D01*
X159750000Y-58500000D02*
X159250000Y-58500000D01*
X176750000Y-89500000D02*
X177000000Y-89750000D01*
X174000000Y-88750000D02*
X175250000Y-88750000D01*
X168250000Y-87500000D02*
X168500000Y-88000000D01*
X172750000Y-89000000D02*
X174000000Y-88750000D01*
X165500000Y-88250000D02*
X165500000Y-89000000D01*
X171250000Y-78000000D02*
X172250000Y-78500000D01*
X175250000Y-88750000D02*
X176750000Y-89500000D01*
X168500000Y-88000000D02*
X169000000Y-88500000D01*
X173000000Y-85500000D02*
X172250000Y-86000000D01*
X171000000Y-89250000D02*
X172750000Y-89000000D01*
X169750000Y-85000000D02*
X168750000Y-85000000D01*
X167000000Y-81500000D02*
X167500000Y-81500000D01*
X169000000Y-79500000D02*
X169500000Y-78750000D01*
X170500000Y-85250000D02*
X169750000Y-85000000D01*
X220375000Y-58721502D02*
X226875000Y-58721502D01*
X166000000Y-87500000D02*
X165500000Y-88250000D01*
X173750000Y-83000000D02*
X173750000Y-84000000D01*
X160250000Y-57500000D02*
X159750000Y-58500000D01*
X170750000Y-85750000D02*
X170500000Y-85250000D01*
X170250000Y-78250000D02*
X171250000Y-78000000D01*
%TO.N,BUTTON-DOWN*%
X136750000Y-79500000D02*
X139000000Y-78000000D01*
X89250000Y-98750000D02*
X90750000Y-100750000D01*
X142000000Y-82250000D02*
X142750000Y-81250000D01*
X133500000Y-83500000D02*
X136500000Y-81250000D01*
X90750000Y-100750000D02*
X92750000Y-101000000D01*
X111750000Y-93000000D02*
X112500000Y-92000000D01*
X112500000Y-92000000D02*
X114000000Y-91750000D01*
X142000000Y-80000000D02*
X141500000Y-80000000D01*
X141500000Y-80000000D02*
X141000000Y-79750000D01*
X115000000Y-92000000D02*
X116000000Y-92500000D01*
X82750000Y-98750000D02*
X89250000Y-98750000D01*
X111250000Y-94500000D02*
X111750000Y-93000000D01*
X141000000Y-79750000D02*
X139750000Y-79500000D01*
X110250000Y-95250000D02*
X111250000Y-94500000D01*
X118500000Y-92000000D02*
X119500000Y-90500000D01*
X141750000Y-77750000D02*
X142250000Y-78500000D01*
X143250000Y-81000000D02*
X144000000Y-80750000D01*
X140250000Y-83250000D02*
X142000000Y-82250000D01*
X99000000Y-93500000D02*
X100750000Y-94250000D01*
X120750000Y-89750000D02*
X126750000Y-86000000D01*
X102750000Y-95250000D02*
X104750000Y-95750000D01*
X142250000Y-79500000D02*
X142000000Y-80000000D01*
X126750000Y-86000000D02*
X129250000Y-86000000D01*
X96250000Y-99000000D02*
X96750000Y-97500000D01*
X142250000Y-78500000D02*
X142250000Y-79500000D01*
X136500000Y-81250000D02*
X136750000Y-79500000D01*
X97250000Y-94250000D02*
X99000000Y-93500000D01*
X117500000Y-92750000D02*
X118500000Y-92000000D01*
X100750000Y-94250000D02*
X102750000Y-95250000D01*
X95500000Y-100000000D02*
X96250000Y-99000000D01*
X144500000Y-79000000D02*
X144000000Y-77000000D01*
X138750000Y-81250000D02*
X138750000Y-83250000D01*
X92750000Y-101000000D02*
X94500000Y-100750000D01*
X108250000Y-96000000D02*
X110250000Y-95250000D01*
X130500000Y-85000000D02*
X133500000Y-83500000D01*
X129250000Y-86000000D02*
X130500000Y-85000000D01*
X139000000Y-78000000D02*
X141750000Y-77750000D01*
X96750000Y-95000000D02*
X97250000Y-94250000D01*
X139250000Y-80000000D02*
X138750000Y-81250000D01*
X114000000Y-91750000D02*
X115000000Y-92000000D01*
X94500000Y-100750000D02*
X95500000Y-100000000D01*
X142750000Y-81250000D02*
X143250000Y-81000000D01*
X144250000Y-79750000D02*
X144500000Y-79000000D01*
X138750000Y-83250000D02*
X140250000Y-83250000D01*
X116750000Y-92750000D02*
X117500000Y-92750000D01*
X119500000Y-90500000D02*
X120750000Y-89750000D01*
X116000000Y-92500000D02*
X116750000Y-92750000D01*
X139750000Y-79500000D02*
X139250000Y-80000000D01*
X144000000Y-80750000D02*
X144250000Y-79750000D01*
X104750000Y-95750000D02*
X108250000Y-96000000D01*
%TO.N,BUTTON-LB*%
X104500000Y-75500000D02*
X103000000Y-75250000D01*
X87250000Y-72750000D02*
X86000000Y-73500000D01*
X113000000Y-85500000D02*
X114000000Y-84500000D01*
X72250000Y-56500000D02*
X72750000Y-51750000D01*
X112500000Y-88000000D02*
X112500000Y-87000000D01*
X143500000Y-84500000D02*
X142750000Y-85500000D01*
X107250000Y-78000000D02*
X106500000Y-76250000D01*
X114750000Y-90500000D02*
X113500000Y-90000000D01*
X74500000Y-48250000D02*
X75250000Y-48000000D01*
X81250000Y-72500000D02*
X79750000Y-70750000D01*
X98250000Y-68250000D02*
X97750000Y-68500000D01*
X143750000Y-59000000D02*
X144250000Y-60250000D01*
X105750000Y-75500000D02*
X104500000Y-75500000D01*
X72500000Y-31500000D02*
X72750000Y-29000000D01*
X144750000Y-76000000D02*
X144750000Y-77500000D01*
X74000000Y-23500000D02*
X75000000Y-22250000D01*
X76250000Y-38750000D02*
X74250000Y-36000000D01*
X122500000Y-87500000D02*
X121500000Y-87750000D01*
X80000000Y-67500000D02*
X79250000Y-66250000D01*
X75000000Y-22250000D02*
X76500000Y-21500000D01*
X115000000Y-81750000D02*
X114750000Y-81000000D01*
X142750000Y-85500000D02*
X142250000Y-86750000D01*
X101500000Y-70000000D02*
X100250000Y-68500000D01*
X76500000Y-21500000D02*
X77500000Y-21500000D01*
X97750000Y-68500000D02*
X97000000Y-69250000D01*
X120000000Y-89250000D02*
X118750000Y-89750000D01*
X121500000Y-87750000D02*
X120000000Y-89250000D01*
X72750000Y-29000000D02*
X73000000Y-26000000D01*
X95250000Y-70000000D02*
X93500000Y-70750000D01*
X144750000Y-73500000D02*
X144750000Y-76000000D01*
X76750000Y-65250000D02*
X75000000Y-64750000D01*
X88250000Y-71750000D02*
X87250000Y-72750000D01*
X101750000Y-71250000D02*
X101500000Y-70000000D01*
X103000000Y-75250000D02*
X102000000Y-74750000D01*
X112500000Y-87000000D02*
X112750000Y-86500000D01*
X79250000Y-68750000D02*
X80000000Y-67500000D01*
X77750000Y-43500000D02*
X77500000Y-41000000D01*
X112750000Y-86500000D02*
X113000000Y-85500000D01*
X82750000Y-73250000D02*
X81250000Y-72500000D01*
X102000000Y-74750000D02*
X101750000Y-73500000D01*
X89500000Y-71250000D02*
X88250000Y-71750000D01*
X114750000Y-81000000D02*
X114250000Y-80500000D01*
X97000000Y-69250000D02*
X95250000Y-70000000D01*
X74250000Y-36000000D02*
X73500000Y-35000000D01*
X144000000Y-83000000D02*
X143500000Y-84500000D01*
X116500000Y-90750000D02*
X114750000Y-90500000D01*
X72750000Y-51750000D02*
X73750000Y-49250000D01*
X142250000Y-86750000D02*
X141500000Y-87500000D01*
X100250000Y-68500000D02*
X98250000Y-68250000D01*
X73500000Y-35000000D02*
X72500000Y-31500000D01*
X76750000Y-46750000D02*
X77750000Y-43500000D01*
X73000000Y-26000000D02*
X74000000Y-23500000D01*
X114500000Y-83750000D02*
X115000000Y-81750000D01*
X141500000Y-87500000D02*
X140500000Y-87500000D01*
X144250000Y-81750000D02*
X144000000Y-83000000D01*
X140500000Y-87500000D02*
X136750000Y-87500000D01*
X101750000Y-73500000D02*
X101750000Y-71250000D01*
X79750000Y-70750000D02*
X79250000Y-68750000D01*
X144750000Y-77500000D02*
X145000000Y-79500000D01*
X144250000Y-60250000D02*
X144500000Y-61000000D01*
X143750000Y-55500000D02*
X143750000Y-59000000D01*
X144500000Y-61000000D02*
X144750000Y-73500000D01*
X106500000Y-76250000D02*
X105750000Y-75500000D01*
X110000000Y-80000000D02*
X108750000Y-79000000D01*
X75250000Y-48000000D02*
X76750000Y-46750000D01*
X93500000Y-70750000D02*
X91750000Y-71250000D01*
X114250000Y-80500000D02*
X113000000Y-80000000D01*
X114000000Y-84500000D02*
X114500000Y-83750000D01*
X75000000Y-64750000D02*
X73750000Y-64000000D01*
X136750000Y-87500000D02*
X126000000Y-87500000D01*
X143750000Y-53500000D02*
X143750000Y-55500000D01*
X84500000Y-73250000D02*
X82750000Y-73250000D01*
X113500000Y-90000000D02*
X112500000Y-88000000D01*
X77500000Y-21500000D02*
X79500000Y-21700000D01*
X86000000Y-73500000D02*
X84500000Y-73250000D01*
X118750000Y-89750000D02*
X116500000Y-90750000D01*
X73750000Y-64000000D02*
X72250000Y-61000000D01*
X113000000Y-80000000D02*
X110000000Y-80000000D01*
X145000000Y-79500000D02*
X144250000Y-81750000D01*
X73750000Y-49250000D02*
X74500000Y-48250000D01*
X77250000Y-65250000D02*
X76750000Y-65250000D01*
X72250000Y-61000000D02*
X72250000Y-56500000D01*
X77500000Y-41000000D02*
X76250000Y-38750000D01*
X79250000Y-66250000D02*
X77250000Y-65250000D01*
X143750000Y-45500000D02*
X143750000Y-51500000D01*
%TO.N,CV-3*%
X160500000Y-87500000D02*
X159750000Y-87500000D01*
X160250000Y-101250000D02*
X159500000Y-100750000D01*
X171500000Y-81500000D02*
X171500000Y-82500000D01*
X164500000Y-84250000D02*
X164000000Y-84250000D01*
X167000000Y-84750000D02*
X166250000Y-84750000D01*
X168250000Y-83500000D02*
X167750000Y-84000000D01*
X182750000Y-39250000D02*
X182250000Y-40000000D01*
X162500000Y-86750000D02*
X162750000Y-87250000D01*
X163500000Y-84500000D02*
X163000000Y-85000000D01*
X167750000Y-84000000D02*
X167500000Y-84500000D01*
X156250000Y-92500000D02*
X156250000Y-93000000D01*
X171500000Y-82500000D02*
X171250000Y-83750000D01*
X162000000Y-100000000D02*
X161750000Y-100500000D01*
X161250000Y-101500000D02*
X160750000Y-101500000D01*
X160750000Y-101500000D02*
X160250000Y-101250000D01*
X152750000Y-117500000D02*
X153750000Y-117750000D01*
X159000000Y-88250000D02*
X158500000Y-89250000D01*
X156500000Y-93500000D02*
X156250000Y-94000000D01*
X167500000Y-84500000D02*
X167000000Y-84750000D01*
X162750000Y-87250000D02*
X163000000Y-88000000D01*
X181250000Y-40500000D02*
X179750000Y-40750000D01*
X169250000Y-84000000D02*
X168750000Y-83750000D01*
X177000000Y-47500000D02*
X177000000Y-49000000D01*
X182250000Y-40000000D02*
X181250000Y-40500000D01*
X166500000Y-103750000D02*
X165500000Y-102250000D01*
X161250000Y-87750000D02*
X160500000Y-87500000D01*
X163000000Y-88000000D02*
X162500000Y-88250000D01*
X162250000Y-86000000D02*
X162500000Y-86750000D01*
X161750000Y-100500000D02*
X161750000Y-101250000D01*
X162500000Y-99750000D02*
X162000000Y-100000000D01*
X158500000Y-89250000D02*
X158250000Y-90250000D01*
X156500000Y-92000000D02*
X156250000Y-92500000D01*
X150750000Y-118250000D02*
X151750000Y-117750000D01*
X178000000Y-41000000D02*
X177000000Y-42250000D01*
%TO.N,BUTTON-A*%
X206750000Y-73750000D02*
X206250000Y-75250000D01*
X163500000Y-82750000D02*
X162500000Y-82000000D01*
X159250000Y-79000000D02*
X159750000Y-79000000D01*
X201500000Y-74750000D02*
X200000000Y-73250000D01*
X178250000Y-80500000D02*
X177000000Y-80500000D01*
X173500000Y-80000000D02*
X172500000Y-79500000D01*
X191250000Y-78750000D02*
X189500000Y-77250000D01*
X195750000Y-76750000D02*
X196000000Y-77750000D01*
X169500000Y-80250000D02*
X168500000Y-81000000D01*
X205500000Y-76250000D02*
X203500000Y-76250000D01*
X165750000Y-83000000D02*
X164750000Y-82750000D01*
X182250000Y-82500000D02*
X181250000Y-81250000D01*
X182500000Y-83000000D02*
X182250000Y-82500000D01*
X159000000Y-81500000D02*
X158250000Y-81000000D01*
X196250000Y-79250000D02*
X196000000Y-80500000D01*
X179500000Y-80750000D02*
X178250000Y-80500000D01*
X158000000Y-80250000D02*
X158250000Y-79750000D01*
X158250000Y-81000000D02*
X158000000Y-80250000D01*
X195750000Y-76250000D02*
X195750000Y-76750000D01*
X206750000Y-72250000D02*
X206750000Y-73750000D01*
X200000000Y-73250000D02*
X198500000Y-72500000D01*
X196250000Y-74500000D02*
X196250000Y-75250000D01*
X194750000Y-80750000D02*
X192500000Y-80250000D01*
X162500000Y-82000000D02*
X161000000Y-81000000D01*
X168000000Y-82000000D02*
X167500000Y-82750000D01*
X161000000Y-81000000D02*
X160000000Y-81000000D01*
X187250000Y-76500000D02*
X186250000Y-77250000D01*
X192500000Y-80250000D02*
X191250000Y-78750000D01*
X183750000Y-83750000D02*
X182500000Y-83000000D01*
X158250000Y-79750000D02*
X159250000Y-79000000D01*
X196250000Y-75250000D02*
X195750000Y-76250000D01*
X168500000Y-81000000D02*
X168000000Y-82000000D01*
X203500000Y-76250000D02*
X202250000Y-76250000D01*
X186250000Y-82500000D02*
X185250000Y-83750000D01*
X167500000Y-82750000D02*
X166750000Y-83000000D01*
X166750000Y-83000000D02*
X165750000Y-83000000D01*
X188500000Y-76500000D02*
X187250000Y-76500000D01*
X196000000Y-80500000D02*
X194750000Y-80750000D01*
X186500000Y-81750000D02*
X186250000Y-82500000D01*
X164750000Y-82750000D02*
X163500000Y-82750000D01*
X159500000Y-70500000D02*
X159500000Y-68500000D01*
X174500000Y-80500000D02*
X173500000Y-80000000D01*
X198500000Y-72500000D02*
X197250000Y-73250000D01*
X186250000Y-80750000D02*
X186500000Y-81750000D01*
X207000000Y-69500000D02*
X206500000Y-70500000D01*
X186250000Y-77250000D02*
X185750000Y-78500000D01*
X181250000Y-81250000D02*
X180250000Y-81000000D01*
X180250000Y-81000000D02*
X179500000Y-80750000D01*
X197250000Y-73250000D02*
X196250000Y-74500000D01*
X160000000Y-81000000D02*
X159000000Y-81500000D01*
X171000000Y-79750000D02*
X169500000Y-80250000D01*
X206500000Y-70500000D02*
X206750000Y-72250000D01*
X185250000Y-83750000D02*
X183750000Y-83750000D01*
X175000000Y-80750000D02*
X174500000Y-80500000D01*
X206250000Y-75250000D02*
X205500000Y-76250000D01*
X202250000Y-76250000D02*
X201500000Y-74750000D01*
X189500000Y-77250000D02*
X188500000Y-76500000D01*
X172500000Y-79500000D02*
X171000000Y-79750000D01*
X208500000Y-68721502D02*
X215000000Y-68721502D01*
X196000000Y-77750000D02*
X196250000Y-79250000D01*
X208500000Y-68721502D02*
X207000000Y-69500000D01*
%TO.N,CV-1*%
X102750000Y-42000000D02*
X100750000Y-43500000D01*
X94250000Y-42750000D02*
X96750000Y-42000000D01*
X100750000Y-43500000D02*
X101500000Y-46000000D01*
X100250000Y-41500000D02*
X102750000Y-42000000D01*
X97750000Y-47000000D02*
X96750000Y-44000000D01*
X97250000Y-41500000D02*
X99250000Y-39000000D01*
X96750000Y-44000000D02*
X94250000Y-42750000D01*
X101500000Y-46000000D02*
X99000000Y-44500000D01*
X99250000Y-39000000D02*
X100250000Y-41500000D01*
X99000000Y-44500000D02*
X97750000Y-47000000D01*
%TO.N,BUTTON-X*%
X188250000Y-59750000D02*
X189000000Y-57750000D01*
X192250000Y-65500000D02*
X189750000Y-66000000D01*
X189000000Y-57750000D02*
X188250000Y-56250000D01*
X196625000Y-58721502D02*
X195750000Y-61000000D01*
X168000000Y-76750000D02*
X167250000Y-77250000D01*
X188500000Y-71000000D02*
X186750000Y-73750000D01*
X183500000Y-65500000D02*
X185000000Y-67000000D01*
X188250000Y-56250000D02*
X187000000Y-56000000D01*
X182250000Y-80750000D02*
X181750000Y-80250000D01*
X185500000Y-62250000D02*
X186750000Y-60500000D01*
X169000000Y-76000000D02*
X168000000Y-76750000D01*
X158250000Y-65750000D02*
X157095596Y-65685000D01*
X174500000Y-76000000D02*
X173250000Y-76000000D01*
X186000000Y-65000000D02*
X185500000Y-63500000D01*
X184000000Y-60000000D02*
X183000000Y-62750000D01*
X188500000Y-68250000D02*
X188500000Y-71000000D01*
X181000000Y-80250000D02*
X180250000Y-80250000D01*
X183000000Y-62750000D02*
X183500000Y-65500000D01*
X160750000Y-67500000D02*
X161250000Y-67000000D01*
X162500000Y-73000000D02*
X161750000Y-72750000D01*
X158750000Y-65500000D02*
X158250000Y-65750000D01*
X186750000Y-73750000D02*
X185500000Y-75750000D01*
X160750000Y-72000000D02*
X160500000Y-71250000D01*
X171000000Y-76250000D02*
X170000000Y-76000000D01*
X161250000Y-67000000D02*
X161500000Y-66500000D01*
X185000000Y-67000000D02*
X187250000Y-67250000D01*
X185250000Y-80500000D02*
X185000000Y-81500000D01*
X172500000Y-76000000D02*
X171750000Y-76250000D01*
%TO.N,BUTTON-Y*%
X170250000Y-43250000D02*
X171000000Y-42000000D01*
X177250000Y-51250000D02*
X179000000Y-51750000D01*
X171750000Y-41500000D02*
X172750000Y-41250000D01*
X203000000Y-47250000D02*
X203500000Y-48000000D01*
X199250000Y-47250000D02*
X199750000Y-47000000D01*
X194250000Y-46500000D02*
X194750000Y-47250000D01*
X174250000Y-42750000D02*
X174500000Y-44000000D01*
X181750000Y-43000000D02*
X183000000Y-41750000D01*
X195750000Y-48750000D02*
X196750000Y-49250000D01*
X207750000Y-51750000D02*
X208250000Y-51500000D01*
X208750000Y-50250000D02*
X208500000Y-48721502D01*
X183000000Y-50500000D02*
X183000000Y-49000000D01*
X208500000Y-50750000D02*
X208750000Y-50250000D01*
X161000000Y-62500000D02*
X161500000Y-62500000D01*
X200750000Y-45750000D02*
X201750000Y-45750000D01*
X160500000Y-58250000D02*
X161000000Y-57750000D01*
X199750000Y-47000000D02*
X200000000Y-46250000D01*
X194000000Y-46000000D02*
X194250000Y-46500000D01*
X203500000Y-48000000D02*
X204000000Y-49000000D01*
X186750000Y-48750000D02*
X188000000Y-49000000D01*
X185500000Y-47750000D02*
X186000000Y-48500000D01*
X200000000Y-46250000D02*
X200750000Y-45750000D01*
X188000000Y-49000000D02*
X189000000Y-48250000D01*
X175000000Y-48500000D02*
X176000000Y-50500000D01*
X186000000Y-45750000D02*
X185500000Y-47750000D01*
X159750000Y-62250000D02*
X160500000Y-62250000D01*
X184750000Y-41750000D02*
X185250000Y-42000000D01*
X157095596Y-63145000D02*
X159750000Y-62250000D01*
X172750000Y-41250000D02*
X173500000Y-41750000D01*
X161500000Y-61250000D02*
X160750000Y-61000000D01*
X160000000Y-59000000D02*
X160500000Y-58250000D01*
X185250000Y-42000000D02*
X185500000Y-42250000D01*
X160000000Y-60250000D02*
X160000000Y-59000000D01*
X180500000Y-51750000D02*
X182000000Y-51500000D01*
X182750000Y-47750000D02*
X181750000Y-46750000D01*
X197750000Y-48750000D02*
X198500000Y-48250000D01*
X198500000Y-48250000D02*
X199250000Y-47250000D01*
X192000000Y-42500000D02*
X192500000Y-43000000D01*
X176000000Y-50500000D02*
X177250000Y-51250000D01*
X207000000Y-51750000D02*
X207750000Y-51750000D01*
X194750000Y-47250000D02*
X195000000Y-48500000D01*
X205750000Y-51250000D02*
X207000000Y-51750000D01*
X161500000Y-62500000D02*
X162000000Y-62250000D01*
X189000000Y-48250000D02*
X189000000Y-46500000D01*
X204000000Y-49000000D02*
X204250000Y-50250000D01*
X179000000Y-51750000D02*
X180500000Y-51750000D01*
X183000000Y-49000000D02*
X182750000Y-47750000D01*
X196750000Y-49250000D02*
X197750000Y-48750000D01*
X188750000Y-44750000D02*
X188750000Y-44000000D01*
X185750000Y-43000000D02*
X186000000Y-44000000D01*
X174500000Y-45750000D02*
X174750000Y-47000000D01*
X181000000Y-44750000D02*
X181000000Y-44250000D01*
X182750000Y-51000000D02*
X183000000Y-50500000D01*
X201750000Y-45750000D02*
X202500000Y-46250000D01*
X174500000Y-44000000D02*
X174500000Y-45750000D01*
X181750000Y-46750000D02*
X181500000Y-46500000D01*
X185500000Y-42250000D02*
X185750000Y-43000000D01*
X173500000Y-41750000D02*
X174250000Y-42750000D01*
X191500000Y-42250000D02*
X192000000Y-42500000D01*
X160500000Y-62250000D02*
X161000000Y-62500000D01*
X188750000Y-44000000D02*
X189250000Y-43000000D01*
X202500000Y-46250000D02*
X203000000Y-47250000D01*
X161000000Y-57750000D02*
X161750000Y-57750000D01*
X208250000Y-51500000D02*
X208500000Y-50750000D01*
X174750000Y-47000000D02*
X175000000Y-48500000D01*
X181500000Y-46500000D02*
X181000000Y-44750000D01*
X186000000Y-48500000D02*
X186750000Y-48750000D01*
X186000000Y-45000000D02*
X186000000Y-45750000D01*
X193000000Y-43750000D02*
X193500000Y-45000000D01*
X189250000Y-43000000D02*
X190500000Y-42250000D01*
X160750000Y-61000000D02*
X160250000Y-60750000D01*
X189000000Y-46500000D02*
X188750000Y-44750000D01*
X182000000Y-51500000D02*
X182750000Y-51000000D01*
X183750000Y-41750000D02*
X184750000Y-41750000D01*
X186000000Y-44000000D02*
X186000000Y-45000000D01*
X160250000Y-60750000D02*
X160000000Y-60250000D01*
X192500000Y-43000000D02*
X193000000Y-43750000D01*
X190500000Y-42250000D02*
X191500000Y-42250000D01*
X162250000Y-62000000D02*
X162000000Y-61500000D01*
X162000000Y-61500000D02*
X161500000Y-61250000D01*
X208500000Y-48721502D02*
X215000000Y-48721502D01*
X195000000Y-48500000D02*
X195750000Y-48750000D01*
X183000000Y-41750000D02*
X183750000Y-41750000D01*
X171000000Y-42000000D02*
X171750000Y-41500000D01*
X162000000Y-62250000D02*
X162250000Y-62000000D01*
X193500000Y-45000000D02*
X194000000Y-46000000D01*
X181000000Y-44250000D02*
X181750000Y-43000000D01*
%TO.N,LEFT-JOY-Y*%
X131750000Y-52500000D02*
X133500000Y-50500000D01*
X138500000Y-34250000D02*
X138500000Y-34000000D01*
X138500000Y-31500000D02*
X141855596Y-30125000D01*
X95172857Y-56014800D02*
X122250000Y-56250000D01*
X126750000Y-55250000D02*
X129250000Y-54000000D01*
X133500000Y-50500000D02*
X135500000Y-47250000D01*
X137000000Y-41250000D02*
X138250000Y-36750000D01*
X135500000Y-47250000D02*
X136500000Y-44750000D01*
X136500000Y-44750000D02*
X137000000Y-41250000D01*
X138250000Y-36750000D02*
X138500000Y-34250000D01*
X122250000Y-56250000D02*
X124500000Y-56250000D01*
X124500000Y-56250000D02*
X126750000Y-55250000D01*
X129250000Y-54000000D02*
X131750000Y-52500000D01*
%TO.N,+3.3V*%
X152000000Y-88750000D02*
X150250000Y-89500000D01*
X126750000Y-36750000D02*
X118500000Y-35250000D01*
X150250000Y-89500000D02*
X148250000Y-89250000D01*
X96375000Y-48875000D02*
X95172857Y-53474800D01*
X93750000Y-39250000D02*
X92500000Y-41000000D01*
X152000000Y-87750000D02*
X152000000Y-88750000D01*
X104000000Y-38000000D02*
X103000000Y-37500000D01*
X92500000Y-44250000D02*
X94500000Y-47750000D01*
X103000000Y-37500000D02*
X100250000Y-37250000D01*
%TO.N,BUTTON-LEFT*%
X79500000Y-84500000D02*
X85750000Y-86250000D01*
X79500000Y-84500000D02*
X79500001Y-90999998D01*
%TO.N,BUTTON-MISC1*%
X152000000Y-82500000D02*
X151500000Y-80750000D01*
X151500000Y-80750000D02*
X151500000Y-79750000D01*
X154500000Y-86500000D02*
X152500000Y-83250000D01*
X149750000Y-55000000D02*
X149750000Y-45500000D01*
X149750000Y-99750000D02*
X152250000Y-98750000D01*
X149750000Y-55000000D02*
X149500000Y-55500000D01*
X152500000Y-83250000D02*
X152000000Y-82500000D01*
X135000000Y-103750000D02*
X137500000Y-103750000D01*
X149750000Y-79750000D02*
X149500000Y-57250000D01*
%TO.N,BUTTON-MISC2*%
X157250000Y-85500000D02*
X155250000Y-82750000D01*
X155250000Y-82750000D02*
X154500000Y-81250000D01*
X150500000Y-55750000D02*
X150500000Y-46250000D01*
X150500000Y-81250000D02*
X150500000Y-57250000D01*
%TO.N,BUTTON-RB*%
X188500000Y-35500000D02*
X192500000Y-36250000D01*
%TO.N,BUTTON-RIGHT*%
X139000000Y-70500000D02*
X138750000Y-70000000D01*
X96750000Y-73000000D02*
X97000000Y-73500000D01*
X138750000Y-70000000D02*
X135000000Y-69250000D01*
X98250000Y-77250000D02*
X97750000Y-76500000D01*
X127500000Y-70250000D02*
X126250000Y-70500000D01*
X95000000Y-80250000D02*
X95500000Y-78750000D01*
X95500000Y-81500000D02*
X95250000Y-81000000D01*
X95500000Y-73250000D02*
X96250000Y-72750000D01*
X133250000Y-68500000D02*
X131750000Y-67750000D01*
X96250000Y-72750000D02*
X96750000Y-73000000D01*
X98250000Y-78000000D02*
X98250000Y-77250000D01*
X97750000Y-76500000D02*
X97000000Y-76250000D01*
X140250000Y-69750000D02*
X140000000Y-70250000D01*
X96500000Y-78500000D02*
X97500000Y-78500000D01*
X143000000Y-69500000D02*
X140500000Y-69500000D01*
X127750000Y-68750000D02*
X127500000Y-69500000D01*
X120000000Y-70000000D02*
X119500000Y-72500000D01*
X124250000Y-69750000D02*
X124000000Y-69000000D01*
X97000000Y-84500000D02*
X97750000Y-84000000D01*
X135000000Y-69250000D02*
X133250000Y-68500000D01*
X127500000Y-69500000D02*
X127500000Y-70250000D01*
X139500000Y-70500000D02*
X139000000Y-70500000D01*
X97500000Y-78500000D02*
X98250000Y-78000000D01*
X121250000Y-67250000D02*
X119750000Y-67750000D01*
X95250000Y-75250000D02*
X95250000Y-74250000D01*
X95250000Y-81000000D02*
X95000000Y-80250000D01*
X123250000Y-67750000D02*
X121250000Y-67250000D01*
X95500000Y-78750000D02*
X96500000Y-78500000D01*
X97750000Y-84000000D02*
X98000000Y-83250000D01*
X97000000Y-84500000D02*
X97000001Y-90999998D01*
X97000000Y-76250000D02*
X95750000Y-76000000D01*
X95250000Y-74250000D02*
X95500000Y-73250000D01*
X125500000Y-70500000D02*
X124250000Y-69750000D01*
X131750000Y-67750000D02*
X130000000Y-67750000D01*
X155250000Y-70500000D02*
X157095596Y-68225000D01*
X96250000Y-82000000D02*
X95500000Y-81500000D01*
X153750000Y-72250000D02*
X155250000Y-70500000D01*
X117500000Y-75750000D02*
X116500000Y-76750000D01*
X126250000Y-70500000D02*
X125500000Y-70500000D01*
X119500000Y-72500000D02*
X117500000Y-75750000D01*
X128750000Y-68000000D02*
X127750000Y-68750000D01*
X140000000Y-70250000D02*
X139500000Y-70500000D01*
X119750000Y-67750000D02*
X119500000Y-68500000D01*
X95750000Y-76000000D02*
X95250000Y-75250000D01*
X124000000Y-69000000D02*
X123250000Y-67750000D01*
X97750000Y-82500000D02*
X96250000Y-82000000D01*
X119500000Y-68500000D02*
X120000000Y-70000000D01*
X130000000Y-67750000D02*
X128750000Y-68000000D01*
X140500000Y-69500000D02*
X140250000Y-69750000D01*
X98000000Y-83250000D02*
X97750000Y-82500000D01*
%TO.N,BUTTON-UP*%
X126000000Y-77000000D02*
X126000000Y-76250000D01*
X122750000Y-78000000D02*
X123250000Y-78500000D01*
X123500000Y-80500000D02*
X123000000Y-80750000D01*
X93750000Y-71750000D02*
X93000000Y-73750000D01*
X103750000Y-81750000D02*
X101500000Y-81000000D01*
X119500000Y-75250000D02*
X120000000Y-76750000D01*
X101500000Y-81000000D02*
X101000000Y-79250000D01*
X119750000Y-78750000D02*
X119000000Y-80500000D01*
X115500000Y-76500000D02*
X114250000Y-74750000D01*
X119000000Y-80500000D02*
X118000000Y-80500000D01*
X121250000Y-80000000D02*
X121000000Y-78750000D01*
X116250000Y-78500000D02*
X115500000Y-76500000D01*
X122250000Y-74000000D02*
X121000000Y-73500000D01*
X109500000Y-72500000D02*
X108250000Y-73000000D01*
X101000000Y-79250000D02*
X101000000Y-75750000D01*
X114250000Y-74750000D02*
X112000000Y-73500000D01*
X130000000Y-77500000D02*
X131000000Y-77250000D01*
X125500000Y-78250000D02*
X126000000Y-77000000D01*
X132500000Y-77250000D02*
X133250000Y-77750000D01*
X123000000Y-80750000D02*
X122000000Y-80750000D01*
X100464286Y-74500000D02*
X100250000Y-73000000D01*
X126500000Y-81000000D02*
X125500000Y-81000000D01*
X89267857Y-81250000D02*
X90500000Y-81500000D01*
X123000000Y-77000000D02*
X122750000Y-78000000D01*
X121000000Y-77750000D02*
X122250000Y-75250000D01*
X134250000Y-78000000D02*
X137500000Y-76000000D01*
X93000000Y-79750000D02*
X92000000Y-81000000D01*
X110750000Y-72750000D02*
X109500000Y-72500000D01*
X117000000Y-80000000D02*
X116250000Y-78500000D01*
X137500000Y-76000000D02*
X139500000Y-74750000D01*
X133250000Y-77750000D02*
X134250000Y-78000000D01*
X128500000Y-78750000D02*
X130000000Y-77500000D01*
X122000000Y-80750000D02*
X121250000Y-80000000D01*
X93000000Y-73750000D02*
X92750000Y-75750000D01*
X123250000Y-78500000D02*
X123750000Y-79250000D01*
X108250000Y-73000000D02*
X108000000Y-75000000D01*
X140250000Y-74500000D02*
X139500000Y-74750000D01*
X125250000Y-79250000D02*
X125500000Y-78250000D01*
X106000000Y-81500000D02*
X103750000Y-81750000D01*
X155250000Y-75750000D02*
X157095596Y-75845000D01*
X97750000Y-71500000D02*
X95250000Y-71250000D01*
X125250000Y-75750000D02*
X124750000Y-75750000D01*
X131000000Y-77250000D02*
X132500000Y-77250000D01*
X92750000Y-75750000D02*
X93250000Y-77000000D01*
X93500000Y-78250000D02*
X93000000Y-79750000D01*
X112000000Y-73500000D02*
X110750000Y-72750000D01*
X125000000Y-79500000D02*
X125250000Y-79250000D01*
X123750000Y-79250000D02*
X123500000Y-80500000D01*
X121000000Y-73500000D02*
X120000000Y-73750000D01*
X108250000Y-76750000D02*
X108000000Y-78250000D01*
X124750000Y-75750000D02*
X123750000Y-76000000D01*
X95250000Y-71250000D02*
X93750000Y-71750000D01*
X127000000Y-80250000D02*
X126500000Y-81000000D01*
X118000000Y-80500000D02*
X117000000Y-80000000D01*
X153250000Y-74000000D02*
X153750000Y-74000000D01*
X121000000Y-78750000D02*
X121000000Y-77750000D01*
X126000000Y-76250000D02*
X125250000Y-75750000D01*
X101000000Y-75750000D02*
X100464286Y-74500000D01*
X122250000Y-75250000D02*
X122250000Y-74000000D01*
X120000000Y-76750000D02*
X119750000Y-78750000D01*
X107500000Y-80000000D02*
X106750000Y-81000000D01*
X82767857Y-81250000D02*
X89267857Y-81250000D01*
X127000000Y-80250000D02*
X128500000Y-78750000D01*
X106750000Y-81000000D02*
X106000000Y-81500000D01*
X125500000Y-81000000D02*
X125000000Y-80500000D01*
X153750000Y-74000000D02*
X155250000Y-75750000D01*
X93250000Y-77000000D02*
X93500000Y-78250000D01*
X123750000Y-76000000D02*
X123000000Y-77000000D01*
X120000000Y-73750000D02*
X119500000Y-75250000D01*
X108000000Y-78250000D02*
X107500000Y-80000000D01*
X100250000Y-73000000D02*
X97750000Y-71500000D01*
X108000000Y-75000000D02*
X108250000Y-76750000D01*
X125000000Y-80500000D02*
X125000000Y-79500000D01*
%TO.N,BUTTON-X*%
X184250000Y-82500000D02*
X183250000Y-81750000D01*
X161500000Y-66000000D02*
X161250000Y-65500000D01*
X185500000Y-75750000D02*
X185000000Y-77000000D01*
X185500000Y-63500000D02*
X185500000Y-62250000D01*
X194500000Y-63500000D02*
X192250000Y-65500000D01*
X173250000Y-76000000D02*
X172500000Y-76000000D01*
X189750000Y-66000000D02*
X187500000Y-66000000D01*
X187500000Y-66000000D02*
X186000000Y-65000000D01*
X177500000Y-78750000D02*
X176750000Y-77750000D01*
X161750000Y-72750000D02*
X161250000Y-72500000D01*
X164250000Y-72750000D02*
X163250000Y-73000000D01*
X170000000Y-76000000D02*
X169000000Y-76000000D01*
X185000000Y-77000000D02*
X184750000Y-78000000D01*
X160500000Y-68500000D02*
X160750000Y-67500000D01*
X159000000Y-65250000D02*
X158750000Y-65500000D01*
X161250000Y-72500000D02*
X160750000Y-72000000D01*
X159500000Y-65000000D02*
X159000000Y-65250000D01*
X163250000Y-73000000D02*
X162500000Y-73000000D01*
X184750000Y-57750000D02*
X184000000Y-60000000D01*
X178250000Y-79500000D02*
X177500000Y-78750000D01*
X176750000Y-77750000D02*
X175500000Y-76750000D01*
X179000000Y-80000000D02*
X178250000Y-79500000D01*
X175500000Y-76750000D02*
X174500000Y-76000000D01*
X185500000Y-56750000D02*
X184750000Y-57750000D01*
X185000000Y-81500000D02*
X184250000Y-82500000D01*
X195750000Y-61000000D02*
X194500000Y-63500000D01*
X181750000Y-80250000D02*
X181000000Y-80250000D01*
X186750000Y-60500000D02*
X188250000Y-59750000D01*
X160500000Y-71250000D02*
X160500000Y-68500000D01*
X161250000Y-65500000D02*
X160750000Y-65250000D01*
X196625000Y-58721502D02*
X203125000Y-58721502D01*
X187000000Y-56000000D02*
X185500000Y-56750000D01*
X171750000Y-76250000D02*
X171000000Y-76250000D01*
X160000000Y-65000000D02*
X159500000Y-65000000D01*
X160750000Y-65250000D02*
X160000000Y-65000000D01*
X161500000Y-66500000D02*
X161500000Y-66000000D01*
X183250000Y-81750000D02*
X182250000Y-80750000D01*
X187250000Y-67250000D02*
X188500000Y-68250000D01*
X180250000Y-80250000D02*
X179000000Y-80000000D01*
%TO.N,RIGHT-JOY-SEL*%
X164500000Y-64000000D02*
X163000000Y-62750000D01*
X169750000Y-41000000D02*
X170500000Y-39750000D01*
X166750000Y-78500000D02*
X169000000Y-77000000D01*
X200750000Y-94750000D02*
X200000000Y-94500000D01*
X175500000Y-80000000D02*
X176000000Y-80750000D01*
X178500000Y-87500000D02*
X179000000Y-88250000D01*
X184500000Y-93750000D02*
X182500000Y-94000000D01*
X167500000Y-67500000D02*
X166750000Y-66250000D01*
X163750000Y-75500000D02*
X164750000Y-75250000D01*
X168750000Y-44750000D02*
X168500000Y-43500000D01*
X214250000Y-102000000D02*
X212750000Y-103750000D01*
X170500000Y-46750000D02*
X169250000Y-45500000D01*
X169000000Y-42000000D02*
X169750000Y-41000000D01*
X189000000Y-90000000D02*
X186500000Y-91500000D01*
X179000000Y-89250000D02*
X178500000Y-90000000D01*
X178250000Y-93000000D02*
X178750000Y-93500000D01*
X195000000Y-90750000D02*
X192750000Y-89500000D01*
%TO.N,RIGHT-JOY-Y*%
X166750000Y-85500000D02*
X164750000Y-85000000D01*
X144750000Y-58500000D02*
X144750000Y-55500000D01*
X145250000Y-66500000D02*
X145000000Y-59500000D01*
X184500000Y-87500000D02*
X183500000Y-85250000D01*
X145500000Y-82000000D02*
X145250000Y-66500000D01*
X145000000Y-59500000D02*
X144750000Y-58500000D01*
X144750000Y-52000000D02*
X144500000Y-38500000D01*
X144500000Y-34500000D02*
X144500000Y-28250000D01*
%TO.N,RIGHT-JOY-X*%
X147500000Y-82000000D02*
X147005000Y-57250000D01*
X211735000Y-80604800D02*
X209750000Y-83500000D01*
X180500000Y-91500000D02*
X179500000Y-90500000D01*
X185750000Y-88250000D02*
X185750000Y-89500000D01*
X145500000Y-34500000D02*
X145500000Y-30250000D01*
X185500000Y-86250000D02*
X185750000Y-88250000D01*
X185000000Y-91000000D02*
X183750000Y-91500000D01*
X185750000Y-89500000D02*
X185000000Y-91000000D01*
X183750000Y-91500000D02*
X182500000Y-91750000D01*
X147000000Y-51000000D02*
X145500000Y-49000000D01*
X145500000Y-49000000D02*
X145500000Y-38500000D01*
X147000000Y-54750000D02*
X147000000Y-51000000D01*
X182500000Y-91750000D02*
X180500000Y-91500000D01*
X158250000Y-85500000D02*
X156250000Y-82000000D01*
%TO.N,BYPASS-SWITCH*%
X154500000Y-23500000D02*
X155250000Y-22500000D01*
X154500000Y-69000000D02*
X154500000Y-57250000D01*
X146960000Y-92500000D02*
X144500000Y-90500000D01*
X155750000Y-73250000D02*
X155000000Y-71750000D01*
X144500000Y-90500000D02*
X144000000Y-89250000D01*
X154500000Y-69000000D02*
X154500000Y-70250000D01*
X144000000Y-89250000D02*
X144250000Y-87000000D01*
X144250000Y-87000000D02*
X144000000Y-85250000D01*
X155250000Y-22500000D02*
X157095596Y-22505000D01*
X154500000Y-25500000D02*
X154500000Y-23500000D01*
X154500000Y-55750000D02*
X154500000Y-27000000D01*
%TO.N,ILI9341-DISPLAY-MOSI*%
X179935596Y-62970000D02*
X157095596Y-47905000D01*
%TO.N,ILI9341-DISPLAY-CS*%
X163250000Y-50750000D02*
X157095596Y-45365000D01*
X179935596Y-65510000D02*
X164000000Y-53750000D01*
%TO.N,ILI9341-DISPLAY-DC*%
X154750000Y-73000000D02*
X156000000Y-74500000D01*
X156000000Y-74500000D02*
X167500000Y-74500000D01*
X171250000Y-75000000D02*
X179935596Y-73130000D01*
%TO.N,LEFT-TRIGGER*%
X121250000Y-42250000D02*
X125000000Y-43250000D01*
%TO.N,RIGHT-TRIGGER*%
X167000000Y-83750000D02*
X165000000Y-83750000D01*
X146500000Y-82000000D02*
X145750000Y-55500000D01*
X172250000Y-54500000D02*
X175250000Y-56750000D01*
%TO.N,ILI9341-DISPLAY-RST*%
X170000000Y-70500000D02*
X171250000Y-70250000D01*
X165000000Y-76750000D02*
X165250000Y-77500000D01*
X164500000Y-76250000D02*
X165000000Y-76750000D01*
X166000000Y-75000000D02*
X166500000Y-75000000D01*
X170750000Y-74000000D02*
X173000000Y-74000000D01*
X165750000Y-77750000D02*
X166250000Y-77250000D01*
X165250000Y-77500000D02*
X165750000Y-77750000D01*
X170000000Y-72500000D02*
X169750000Y-73750000D01*
X155250000Y-78224138D02*
X161750000Y-78000000D01*
X166250000Y-76500000D02*
X166000000Y-75750000D01*
X143000000Y-78750000D02*
X141855596Y-75845000D01*
X166000000Y-75750000D02*
X166000000Y-75000000D01*
X162250000Y-78250000D02*
X163000000Y-78250000D01*
X163750000Y-76500000D02*
X164500000Y-76250000D01*
X163250000Y-77500000D02*
X163750000Y-76500000D01*
X169500000Y-71250000D02*
X170000000Y-70500000D01*
X167500000Y-76000000D02*
X168500000Y-75750000D01*
X166500000Y-75000000D02*
X167250000Y-75500000D01*
X172500000Y-71500000D02*
X170750000Y-71500000D01*
X163000000Y-78250000D02*
X163250000Y-77500000D01*
X161750000Y-78000000D02*
X162250000Y-78250000D01*
X175250000Y-71250000D02*
X176500000Y-70500000D01*
X174750000Y-72250000D02*
X175250000Y-71250000D01*
X167250000Y-75500000D02*
X167500000Y-76000000D01*
X168750000Y-72500000D02*
X169500000Y-71250000D01*
X154500000Y-78750000D02*
X155250000Y-78224138D01*
X176500000Y-70500000D02*
X178500000Y-70250000D01*
X168750000Y-75000000D02*
X168750000Y-72500000D01*
X173000000Y-74000000D02*
X174000000Y-73250000D01*
X173250000Y-70750000D02*
X172500000Y-71500000D01*
X166250000Y-77250000D02*
X166250000Y-76500000D01*
X178500000Y-70250000D02*
X180160535Y-70440075D01*
X171250000Y-70250000D02*
X173250000Y-70750000D01*
X169750000Y-73750000D02*
X170750000Y-74000000D01*
X170750000Y-71500000D02*
X170000000Y-72500000D01*
X174000000Y-73250000D02*
X174750000Y-72250000D01*
X168500000Y-75750000D02*
X168750000Y-75000000D01*
%TO.N,+3.3V*%
X104750000Y-38500000D02*
X104000000Y-38000000D01*
X95973684Y-38223684D02*
X93250000Y-35500000D01*
X146750000Y-88750000D02*
X145000000Y-89250000D01*
X95973684Y-38223684D02*
X93750000Y-39250000D01*
X118500000Y-35250000D02*
X114750000Y-36250000D01*
X108750000Y-38500000D02*
X104750000Y-38500000D01*
X148250000Y-89250000D02*
X146750000Y-88750000D01*
X94500000Y-47750000D02*
X96375000Y-48875000D01*
X92500000Y-41000000D02*
X92500000Y-44250000D01*
X100250000Y-37250000D02*
X97000000Y-37750000D01*
X112750000Y-38500000D02*
X108750000Y-38500000D01*
X150000000Y-86250000D02*
X152000000Y-87750000D01*
X97000000Y-37750000D02*
X95973684Y-38223684D01*
X114750000Y-36250000D02*
X112750000Y-38500000D01*
%TO.N,LEFT-JOY-X*%
X99750000Y-32500000D02*
X94500000Y-33750000D01*
X85750000Y-45250000D02*
X86252857Y-47104800D01*
X94500000Y-33750000D02*
X90750000Y-35500000D01*
X90750000Y-35500000D02*
X88750000Y-37250000D01*
X141855596Y-32665000D02*
X99750000Y-32500000D01*
X87250000Y-40500000D02*
X85750000Y-45250000D01*
X88750000Y-37250000D02*
X87250000Y-40500000D01*
%TO.N,LEFT-JOY-SEL*%
X101000000Y-64250000D02*
X102500000Y-63250000D01*
X104250000Y-53000000D02*
X104000000Y-54750000D01*
X133250000Y-34500000D02*
X135500000Y-34500000D01*
X142500000Y-26250000D02*
X154750000Y-26250000D01*
X93250000Y-65500000D02*
X96000000Y-65000000D01*
X137250000Y-29250000D02*
X138500000Y-27500000D01*
X104500000Y-60500000D02*
X105250000Y-57750000D01*
X154750000Y-26250000D02*
X157095596Y-25045000D01*
X104000000Y-62000000D02*
X104500000Y-60500000D01*
X127500000Y-47000000D02*
X129250000Y-46500000D01*
X131250000Y-44750000D02*
X131750000Y-43500000D01*
X130250000Y-45750000D02*
X131250000Y-44750000D01*
X102500000Y-63250000D02*
X104000000Y-62000000D01*
X105250000Y-57750000D02*
X105000000Y-57000000D01*
X118750000Y-44500000D02*
X116250000Y-44000000D01*
X125250000Y-46750000D02*
X127500000Y-47000000D01*
X131000000Y-37500000D02*
X131500000Y-35750000D01*
X123250000Y-46250000D02*
X125250000Y-46750000D01*
X89442857Y-66814800D02*
X90750000Y-64750000D01*
X106750000Y-47500000D02*
X105000000Y-51000000D01*
X140000000Y-26500000D02*
X142500000Y-26250000D01*
X123250000Y-46250000D02*
X120250000Y-45500000D01*
X116250000Y-44000000D02*
X114250000Y-43750000D01*
X131750000Y-43500000D02*
X132000000Y-42250000D01*
X105000000Y-51000000D02*
X104250000Y-53000000D01*
X132000000Y-42250000D02*
X131500000Y-39750000D01*
X131500000Y-39750000D02*
X131000000Y-39000000D01*
X131500000Y-35750000D02*
X133250000Y-34500000D01*
X114250000Y-43750000D02*
X111000000Y-44500000D01*
X96000000Y-65000000D02*
X99000000Y-64750000D01*
X131000000Y-39000000D02*
X131000000Y-37500000D01*
X108500000Y-45750000D02*
X106750000Y-47500000D01*
X120250000Y-45500000D02*
X118750000Y-44500000D01*
X129250000Y-46500000D02*
X130250000Y-45750000D01*
X135500000Y-34500000D02*
X137250000Y-33750000D01*
X138500000Y-27500000D02*
X140000000Y-26500000D01*
X99000000Y-64750000D02*
X101000000Y-64250000D01*
X111000000Y-44500000D02*
X108500000Y-45750000D01*
%TO.N,WIRE1-SDA*%
X148750000Y-37750000D02*
X141855596Y-37745000D01*
X161000000Y-112000000D02*
X162000000Y-110250000D01*
X155250000Y-84000000D02*
X154000000Y-82250000D01*
X151250000Y-40750000D02*
X148750000Y-37750000D01*
X154000000Y-82250000D02*
X153250000Y-80750000D01*
X156250000Y-85250000D02*
X155250000Y-84000000D01*
X161000000Y-113000000D02*
X161000000Y-112000000D01*
X151500000Y-57250000D02*
X151750000Y-76500000D01*
X162750000Y-109250000D02*
X163370000Y-108256117D01*
X153250000Y-79750000D02*
X153250000Y-77500000D01*
X153250000Y-80750000D02*
X153250000Y-79750000D01*
X162000000Y-110250000D02*
X162750000Y-109250000D01*
X158000000Y-102250000D02*
X157250000Y-100750000D01*
X151500000Y-55750000D02*
X151250000Y-40750000D01*
%TO.N,INTERRUPT-2*%
X163000000Y-105250000D02*
X164000000Y-105500000D01*
X164000000Y-105500000D02*
X164500000Y-106000000D01*
X173250000Y-104500000D02*
X173750000Y-105250000D01*
X171750000Y-104000000D02*
X172750000Y-104250000D01*
X168000000Y-106000000D02*
X168250000Y-105750000D01*
X174000000Y-106750000D02*
X173529996Y-108256119D01*
X173750000Y-105250000D02*
X174000000Y-106000000D01*
X148250000Y-85250000D02*
X148250000Y-86750000D01*
X165500000Y-106250000D02*
X167000000Y-106250000D01*
X168750000Y-105000000D02*
X169500000Y-104500000D01*
X170500000Y-104000000D02*
X171750000Y-104000000D01*
X174000000Y-106000000D02*
X174000000Y-106750000D01*
X167000000Y-106250000D02*
X168000000Y-106000000D01*
X148750000Y-87500000D02*
X149750000Y-88250000D01*
X168250000Y-105750000D02*
X168750000Y-105000000D01*
X172750000Y-104250000D02*
X173250000Y-104500000D01*
X169750000Y-104250000D02*
X170500000Y-104000000D01*
X169500000Y-104500000D02*
X169750000Y-104250000D01*
X164500000Y-106000000D02*
X165500000Y-106250000D01*
X148250000Y-86750000D02*
X148750000Y-87500000D01*
X148000000Y-65500000D02*
X148250000Y-85250000D01*
%TO.N,WIRE1-SCL*%
X152500000Y-57250000D02*
X152500000Y-80500000D01*
X152500000Y-55750000D02*
X152250000Y-38750000D01*
X155750000Y-100250000D02*
X157000000Y-102250000D01*
X149000000Y-35250000D02*
X141855596Y-35205000D01*
X152500000Y-80500000D02*
X153000000Y-82750000D01*
X156000000Y-91500000D02*
X154750000Y-95500000D01*
X156000000Y-89000000D02*
X156000000Y-91500000D01*
X153000000Y-82750000D02*
X155000000Y-85750000D01*
X152250000Y-38750000D02*
X149000000Y-35250000D01*
X155000000Y-85750000D02*
X156000000Y-89000000D01*
%TO.N,RIGHT-JOY-SEL*%
X169000000Y-77000000D02*
X170500000Y-76750000D01*
X168500000Y-43500000D02*
X169000000Y-42000000D01*
X176000000Y-80750000D02*
X176500000Y-82000000D01*
X158500000Y-27000000D02*
X157095596Y-27585000D01*
X200000000Y-94500000D02*
X198250000Y-93750000D01*
X170500000Y-39750000D02*
X170500000Y-37750000D01*
X201750000Y-98750000D02*
X202250000Y-97250000D01*
X176500000Y-82000000D02*
X176250000Y-84750000D01*
X164000000Y-32500000D02*
X164000000Y-30250000D01*
X164000000Y-30250000D02*
X163250000Y-29250000D01*
X168000000Y-70750000D02*
X168250000Y-69000000D01*
X179000000Y-88250000D02*
X179000000Y-89250000D01*
X202250000Y-103750000D02*
X201500000Y-102250000D01*
X201500000Y-102250000D02*
X201500000Y-100500000D01*
X175500000Y-86000000D02*
X174750000Y-86750000D01*
X186500000Y-91500000D02*
X184500000Y-93750000D01*
X167500000Y-34250000D02*
X166250000Y-34000000D01*
X178500000Y-90000000D02*
X178000000Y-91000000D01*
X191250000Y-89500000D02*
X190000000Y-89750000D01*
X170500000Y-37750000D02*
X169750000Y-36000000D01*
X176250000Y-84750000D02*
X175500000Y-86000000D01*
X162500000Y-58750000D02*
X163500000Y-57750000D01*
X170500000Y-76750000D02*
X171750000Y-77000000D01*
X160500000Y-27500000D02*
X158500000Y-27000000D01*
X169750000Y-36000000D02*
X168750000Y-34750000D01*
X171500000Y-47500000D02*
X170500000Y-46750000D01*
X178000000Y-91000000D02*
X177750000Y-92250000D01*
X164750000Y-33500000D02*
X164000000Y-32500000D01*
X201750000Y-96250000D02*
X200750000Y-94750000D01*
X165500000Y-65000000D02*
X164500000Y-64000000D01*
X175500000Y-87250000D02*
X177500000Y-86750000D01*
X172000000Y-48750000D02*
X171500000Y-47500000D01*
X162000000Y-28000000D02*
X160500000Y-27500000D01*
X172250000Y-50500000D02*
X172000000Y-48750000D01*
X201500000Y-100500000D02*
X201750000Y-98750000D01*
X168250000Y-69000000D02*
X167500000Y-67500000D01*
X165250000Y-73750000D02*
X167000000Y-72000000D01*
X163000000Y-62750000D02*
X162250000Y-60500000D01*
X178750000Y-93500000D02*
X179500000Y-93500000D01*
X192750000Y-89500000D02*
X191250000Y-89500000D01*
X163000000Y-76250000D02*
X163750000Y-75500000D01*
X182500000Y-94000000D02*
X179750000Y-93250000D01*
X167000000Y-72000000D02*
X168000000Y-70750000D01*
X166750000Y-66250000D02*
X165500000Y-65000000D01*
X207250000Y-105000000D02*
X204750000Y-104500000D01*
X171750000Y-52000000D02*
X172250000Y-50500000D01*
X162250000Y-60500000D02*
X162500000Y-58750000D01*
X164000000Y-77750000D02*
X164500000Y-78000000D01*
X196500000Y-92750000D02*
X195000000Y-90750000D01*
X214925000Y-100314800D02*
X214250000Y-102000000D01*
X171750000Y-77000000D02*
X173250000Y-78000000D01*
X202250000Y-97250000D02*
X201750000Y-96250000D01*
X198250000Y-93750000D02*
X196500000Y-92750000D01*
X169250000Y-45500000D02*
X168750000Y-44750000D01*
X177750000Y-92250000D02*
X178250000Y-93000000D01*
X204750000Y-104500000D02*
X202250000Y-103750000D01*
X177500000Y-86750000D02*
X178500000Y-87500000D01*
X170750000Y-53750000D02*
X171750000Y-52000000D01*
X190000000Y-89750000D02*
X189000000Y-90000000D01*
X210500000Y-104750000D02*
X207250000Y-105000000D01*
X173250000Y-78000000D02*
X174250000Y-78750000D01*
X164500000Y-78000000D02*
X165750000Y-78500000D01*
X168750000Y-34750000D02*
X167500000Y-34250000D01*
X163250000Y-29250000D02*
X162000000Y-28000000D01*
X174750000Y-86750000D02*
X175500000Y-87250000D01*
X179500000Y-93500000D02*
X179750000Y-93250000D01*
X166250000Y-34000000D02*
X164750000Y-33500000D01*
X174250000Y-78750000D02*
X175500000Y-80000000D01*
X212750000Y-103750000D02*
X210500000Y-104750000D01*
X165750000Y-78500000D02*
X166750000Y-78500000D01*
%TO.N,WIRE1-SCL*%
X149250000Y-121500000D02*
X150000000Y-120500000D01*
X148500000Y-122250000D02*
X149250000Y-121500000D01*
X140750000Y-123250000D02*
X144250000Y-123250000D01*
X139000000Y-123500000D02*
X140750000Y-123250000D01*
X137250000Y-122750000D02*
X138000000Y-123250000D01*
X144250000Y-123250000D02*
X145250000Y-123500000D01*
X150000000Y-120500000D02*
X150250000Y-119500000D01*
X150250000Y-119500000D02*
X151750000Y-118750000D01*
X151750000Y-118750000D02*
X153000000Y-118250000D01*
X147250000Y-123000000D02*
X148500000Y-122250000D01*
X136942285Y-120956116D02*
X137250000Y-122750000D01*
X145250000Y-123500000D02*
X147250000Y-123000000D01*
X138000000Y-123250000D02*
X139000000Y-123500000D01*
%TD*%
M02*
