%TF.GenerationSoftware,KiCad,Pcbnew,9.0.1*%
%TF.CreationDate,2025-11-13T15:57:43-05:00*%
%TF.ProjectId,prod-design-sound-controller-v2,70726f64-2d64-4657-9369-676e2d736f75,rev?*%
%TF.SameCoordinates,Original*%
%TF.FileFunction,Legend,Bot*%
%TF.FilePolarity,Positive*%
%FSLAX46Y46*%
G04 Gerber Fmt 4.6, Leading zero omitted, Abs format (unit mm)*
G04 Created by KiCad (PCBNEW 9.0.1) date 2025-11-13 15:57:43*
%MOMM*%
%LPD*%
G01*
G04 APERTURE LIST*
%ADD10C,0.100000*%
%ADD11C,0.142240*%
%ADD12C,0.165100*%
%ADD13C,0.152400*%
%ADD14C,0.220980*%
%ADD15C,0.150000*%
%ADD16C,0.120000*%
%ADD17C,0.050000*%
G04 APERTURE END LIST*
D10*
X157579806Y-115098264D02*
X157103616Y-115098264D01*
X157103616Y-115098264D02*
X157103616Y-116098264D01*
X157865521Y-115145884D02*
X158008378Y-115098264D01*
X158008378Y-115098264D02*
X158246473Y-115098264D01*
X158246473Y-115098264D02*
X158341711Y-115145884D01*
X158341711Y-115145884D02*
X158389330Y-115193503D01*
X158389330Y-115193503D02*
X158436949Y-115288741D01*
X158436949Y-115288741D02*
X158436949Y-115383979D01*
X158436949Y-115383979D02*
X158389330Y-115479217D01*
X158389330Y-115479217D02*
X158341711Y-115526836D01*
X158341711Y-115526836D02*
X158246473Y-115574455D01*
X158246473Y-115574455D02*
X158055997Y-115622074D01*
X158055997Y-115622074D02*
X157960759Y-115669693D01*
X157960759Y-115669693D02*
X157913140Y-115717312D01*
X157913140Y-115717312D02*
X157865521Y-115812550D01*
X157865521Y-115812550D02*
X157865521Y-115907788D01*
X157865521Y-115907788D02*
X157913140Y-116003026D01*
X157913140Y-116003026D02*
X157960759Y-116050645D01*
X157960759Y-116050645D02*
X158055997Y-116098264D01*
X158055997Y-116098264D02*
X158294092Y-116098264D01*
X158294092Y-116098264D02*
X158436949Y-116050645D01*
X158865521Y-115098264D02*
X158865521Y-116098264D01*
X158865521Y-116098264D02*
X159198854Y-115383979D01*
X159198854Y-115383979D02*
X159532187Y-116098264D01*
X159532187Y-116098264D02*
X159532187Y-115098264D01*
X160436949Y-116098264D02*
X160246473Y-116098264D01*
X160246473Y-116098264D02*
X160151235Y-116050645D01*
X160151235Y-116050645D02*
X160103616Y-116003026D01*
X160103616Y-116003026D02*
X160008378Y-115860169D01*
X160008378Y-115860169D02*
X159960759Y-115669693D01*
X159960759Y-115669693D02*
X159960759Y-115288741D01*
X159960759Y-115288741D02*
X160008378Y-115193503D01*
X160008378Y-115193503D02*
X160055997Y-115145884D01*
X160055997Y-115145884D02*
X160151235Y-115098264D01*
X160151235Y-115098264D02*
X160341711Y-115098264D01*
X160341711Y-115098264D02*
X160436949Y-115145884D01*
X160436949Y-115145884D02*
X160484568Y-115193503D01*
X160484568Y-115193503D02*
X160532187Y-115288741D01*
X160532187Y-115288741D02*
X160532187Y-115526836D01*
X160532187Y-115526836D02*
X160484568Y-115622074D01*
X160484568Y-115622074D02*
X160436949Y-115669693D01*
X160436949Y-115669693D02*
X160341711Y-115717312D01*
X160341711Y-115717312D02*
X160151235Y-115717312D01*
X160151235Y-115717312D02*
X160055997Y-115669693D01*
X160055997Y-115669693D02*
X160008378Y-115622074D01*
X160008378Y-115622074D02*
X159960759Y-115526836D01*
X160960759Y-115098264D02*
X160960759Y-116098264D01*
X160960759Y-116098264D02*
X161198854Y-116098264D01*
X161198854Y-116098264D02*
X161341711Y-116050645D01*
X161341711Y-116050645D02*
X161436949Y-115955407D01*
X161436949Y-115955407D02*
X161484568Y-115860169D01*
X161484568Y-115860169D02*
X161532187Y-115669693D01*
X161532187Y-115669693D02*
X161532187Y-115526836D01*
X161532187Y-115526836D02*
X161484568Y-115336360D01*
X161484568Y-115336360D02*
X161436949Y-115241122D01*
X161436949Y-115241122D02*
X161341711Y-115145884D01*
X161341711Y-115145884D02*
X161198854Y-115098264D01*
X161198854Y-115098264D02*
X160960759Y-115098264D01*
X161913140Y-115145884D02*
X162055997Y-115098264D01*
X162055997Y-115098264D02*
X162294092Y-115098264D01*
X162294092Y-115098264D02*
X162389330Y-115145884D01*
X162389330Y-115145884D02*
X162436949Y-115193503D01*
X162436949Y-115193503D02*
X162484568Y-115288741D01*
X162484568Y-115288741D02*
X162484568Y-115383979D01*
X162484568Y-115383979D02*
X162436949Y-115479217D01*
X162436949Y-115479217D02*
X162389330Y-115526836D01*
X162389330Y-115526836D02*
X162294092Y-115574455D01*
X162294092Y-115574455D02*
X162103616Y-115622074D01*
X162103616Y-115622074D02*
X162008378Y-115669693D01*
X162008378Y-115669693D02*
X161960759Y-115717312D01*
X161960759Y-115717312D02*
X161913140Y-115812550D01*
X161913140Y-115812550D02*
X161913140Y-115907788D01*
X161913140Y-115907788D02*
X161960759Y-116003026D01*
X161960759Y-116003026D02*
X162008378Y-116050645D01*
X162008378Y-116050645D02*
X162103616Y-116098264D01*
X162103616Y-116098264D02*
X162341711Y-116098264D01*
X162341711Y-116098264D02*
X162484568Y-116050645D01*
X163103616Y-116098264D02*
X163294092Y-116098264D01*
X163294092Y-116098264D02*
X163389330Y-116050645D01*
X163389330Y-116050645D02*
X163484568Y-115955407D01*
X163484568Y-115955407D02*
X163532187Y-115764931D01*
X163532187Y-115764931D02*
X163532187Y-115431598D01*
X163532187Y-115431598D02*
X163484568Y-115241122D01*
X163484568Y-115241122D02*
X163389330Y-115145884D01*
X163389330Y-115145884D02*
X163294092Y-115098264D01*
X163294092Y-115098264D02*
X163103616Y-115098264D01*
X163103616Y-115098264D02*
X163008378Y-115145884D01*
X163008378Y-115145884D02*
X162913140Y-115241122D01*
X162913140Y-115241122D02*
X162865521Y-115431598D01*
X162865521Y-115431598D02*
X162865521Y-115764931D01*
X162865521Y-115764931D02*
X162913140Y-115955407D01*
X162913140Y-115955407D02*
X163008378Y-116050645D01*
X163008378Y-116050645D02*
X163103616Y-116098264D01*
X163865521Y-116098264D02*
X164532187Y-115098264D01*
X164532187Y-116098264D02*
X163865521Y-115098264D01*
X164675045Y-115003026D02*
X165436949Y-115003026D01*
X166198854Y-116050645D02*
X166103616Y-116098264D01*
X166103616Y-116098264D02*
X165960759Y-116098264D01*
X165960759Y-116098264D02*
X165817902Y-116050645D01*
X165817902Y-116050645D02*
X165722664Y-115955407D01*
X165722664Y-115955407D02*
X165675045Y-115860169D01*
X165675045Y-115860169D02*
X165627426Y-115669693D01*
X165627426Y-115669693D02*
X165627426Y-115526836D01*
X165627426Y-115526836D02*
X165675045Y-115336360D01*
X165675045Y-115336360D02*
X165722664Y-115241122D01*
X165722664Y-115241122D02*
X165817902Y-115145884D01*
X165817902Y-115145884D02*
X165960759Y-115098264D01*
X165960759Y-115098264D02*
X166055997Y-115098264D01*
X166055997Y-115098264D02*
X166198854Y-115145884D01*
X166198854Y-115145884D02*
X166246473Y-115193503D01*
X166246473Y-115193503D02*
X166246473Y-115526836D01*
X166246473Y-115526836D02*
X166055997Y-115526836D01*
X166865521Y-115574455D02*
X166865521Y-115098264D01*
X166532188Y-116098264D02*
X166865521Y-115574455D01*
X166865521Y-115574455D02*
X167198854Y-116098264D01*
X168103616Y-115098264D02*
X167770283Y-115574455D01*
X167532188Y-115098264D02*
X167532188Y-116098264D01*
X167532188Y-116098264D02*
X167913140Y-116098264D01*
X167913140Y-116098264D02*
X168008378Y-116050645D01*
X168008378Y-116050645D02*
X168055997Y-116003026D01*
X168055997Y-116003026D02*
X168103616Y-115907788D01*
X168103616Y-115907788D02*
X168103616Y-115764931D01*
X168103616Y-115764931D02*
X168055997Y-115669693D01*
X168055997Y-115669693D02*
X168008378Y-115622074D01*
X168008378Y-115622074D02*
X167913140Y-115574455D01*
X167913140Y-115574455D02*
X167532188Y-115574455D01*
X168722664Y-116098264D02*
X168913140Y-116098264D01*
X168913140Y-116098264D02*
X169008378Y-116050645D01*
X169008378Y-116050645D02*
X169103616Y-115955407D01*
X169103616Y-115955407D02*
X169151235Y-115764931D01*
X169151235Y-115764931D02*
X169151235Y-115431598D01*
X169151235Y-115431598D02*
X169103616Y-115241122D01*
X169103616Y-115241122D02*
X169008378Y-115145884D01*
X169008378Y-115145884D02*
X168913140Y-115098264D01*
X168913140Y-115098264D02*
X168722664Y-115098264D01*
X168722664Y-115098264D02*
X168627426Y-115145884D01*
X168627426Y-115145884D02*
X168532188Y-115241122D01*
X168532188Y-115241122D02*
X168484569Y-115431598D01*
X168484569Y-115431598D02*
X168484569Y-115764931D01*
X168484569Y-115764931D02*
X168532188Y-115955407D01*
X168532188Y-115955407D02*
X168627426Y-116050645D01*
X168627426Y-116050645D02*
X168722664Y-116098264D01*
X170103616Y-115098264D02*
X169532188Y-115098264D01*
X169817902Y-115098264D02*
X169817902Y-116098264D01*
X169817902Y-116098264D02*
X169722664Y-115955407D01*
X169722664Y-115955407D02*
X169627426Y-115860169D01*
X169627426Y-115860169D02*
X169532188Y-115812550D01*
D11*
X162436006Y-106294356D02*
X162560829Y-106252748D01*
X162560829Y-106252748D02*
X162768867Y-106252748D01*
X162768867Y-106252748D02*
X162852082Y-106294356D01*
X162852082Y-106294356D02*
X162893690Y-106335963D01*
X162893690Y-106335963D02*
X162935297Y-106419178D01*
X162935297Y-106419178D02*
X162935297Y-106502394D01*
X162935297Y-106502394D02*
X162893690Y-106585609D01*
X162893690Y-106585609D02*
X162852082Y-106627216D01*
X162852082Y-106627216D02*
X162768867Y-106668824D01*
X162768867Y-106668824D02*
X162602436Y-106710432D01*
X162602436Y-106710432D02*
X162519221Y-106752039D01*
X162519221Y-106752039D02*
X162477614Y-106793647D01*
X162477614Y-106793647D02*
X162436006Y-106876862D01*
X162436006Y-106876862D02*
X162436006Y-106960077D01*
X162436006Y-106960077D02*
X162477614Y-107043293D01*
X162477614Y-107043293D02*
X162519221Y-107084900D01*
X162519221Y-107084900D02*
X162602436Y-107126508D01*
X162602436Y-107126508D02*
X162810475Y-107126508D01*
X162810475Y-107126508D02*
X162935297Y-107084900D01*
X163309766Y-106252748D02*
X163309766Y-107126508D01*
X163309766Y-107126508D02*
X163517804Y-107126508D01*
X163517804Y-107126508D02*
X163642627Y-107084900D01*
X163642627Y-107084900D02*
X163725842Y-107001685D01*
X163725842Y-107001685D02*
X163767449Y-106918470D01*
X163767449Y-106918470D02*
X163809057Y-106752039D01*
X163809057Y-106752039D02*
X163809057Y-106627216D01*
X163809057Y-106627216D02*
X163767449Y-106460786D01*
X163767449Y-106460786D02*
X163725842Y-106377571D01*
X163725842Y-106377571D02*
X163642627Y-106294356D01*
X163642627Y-106294356D02*
X163517804Y-106252748D01*
X163517804Y-106252748D02*
X163309766Y-106252748D01*
X164141918Y-106502394D02*
X164557994Y-106502394D01*
X164058703Y-106252748D02*
X164349956Y-107126508D01*
X164349956Y-107126508D02*
X164641209Y-106252748D01*
X159726304Y-106294359D02*
X159851127Y-106252751D01*
X159851127Y-106252751D02*
X160059165Y-106252751D01*
X160059165Y-106252751D02*
X160142380Y-106294359D01*
X160142380Y-106294359D02*
X160183988Y-106335966D01*
X160183988Y-106335966D02*
X160225595Y-106419181D01*
X160225595Y-106419181D02*
X160225595Y-106502397D01*
X160225595Y-106502397D02*
X160183988Y-106585612D01*
X160183988Y-106585612D02*
X160142380Y-106627219D01*
X160142380Y-106627219D02*
X160059165Y-106668827D01*
X160059165Y-106668827D02*
X159892734Y-106710435D01*
X159892734Y-106710435D02*
X159809519Y-106752042D01*
X159809519Y-106752042D02*
X159767912Y-106793650D01*
X159767912Y-106793650D02*
X159726304Y-106876865D01*
X159726304Y-106876865D02*
X159726304Y-106960080D01*
X159726304Y-106960080D02*
X159767912Y-107043296D01*
X159767912Y-107043296D02*
X159809519Y-107084903D01*
X159809519Y-107084903D02*
X159892734Y-107126511D01*
X159892734Y-107126511D02*
X160100773Y-107126511D01*
X160100773Y-107126511D02*
X160225595Y-107084903D01*
X161099355Y-106335966D02*
X161057747Y-106294359D01*
X161057747Y-106294359D02*
X160932925Y-106252751D01*
X160932925Y-106252751D02*
X160849709Y-106252751D01*
X160849709Y-106252751D02*
X160724886Y-106294359D01*
X160724886Y-106294359D02*
X160641671Y-106377574D01*
X160641671Y-106377574D02*
X160600064Y-106460789D01*
X160600064Y-106460789D02*
X160558456Y-106627219D01*
X160558456Y-106627219D02*
X160558456Y-106752042D01*
X160558456Y-106752042D02*
X160600064Y-106918473D01*
X160600064Y-106918473D02*
X160641671Y-107001688D01*
X160641671Y-107001688D02*
X160724886Y-107084903D01*
X160724886Y-107084903D02*
X160849709Y-107126511D01*
X160849709Y-107126511D02*
X160932925Y-107126511D01*
X160932925Y-107126511D02*
X161057747Y-107084903D01*
X161057747Y-107084903D02*
X161099355Y-107043296D01*
X161889900Y-106252751D02*
X161473824Y-106252751D01*
X161473824Y-106252751D02*
X161473824Y-107126511D01*
X156615897Y-122169352D02*
X156740720Y-122127744D01*
X156740720Y-122127744D02*
X156948758Y-122127744D01*
X156948758Y-122127744D02*
X157031973Y-122169352D01*
X157031973Y-122169352D02*
X157073581Y-122210959D01*
X157073581Y-122210959D02*
X157115188Y-122294174D01*
X157115188Y-122294174D02*
X157115188Y-122377390D01*
X157115188Y-122377390D02*
X157073581Y-122460605D01*
X157073581Y-122460605D02*
X157031973Y-122502212D01*
X157031973Y-122502212D02*
X156948758Y-122543820D01*
X156948758Y-122543820D02*
X156782327Y-122585428D01*
X156782327Y-122585428D02*
X156699112Y-122627035D01*
X156699112Y-122627035D02*
X156657505Y-122668643D01*
X156657505Y-122668643D02*
X156615897Y-122751858D01*
X156615897Y-122751858D02*
X156615897Y-122835073D01*
X156615897Y-122835073D02*
X156657505Y-122918289D01*
X156657505Y-122918289D02*
X156699112Y-122959896D01*
X156699112Y-122959896D02*
X156782327Y-123001504D01*
X156782327Y-123001504D02*
X156990366Y-123001504D01*
X156990366Y-123001504D02*
X157115188Y-122959896D01*
X157988948Y-122210959D02*
X157947340Y-122169352D01*
X157947340Y-122169352D02*
X157822518Y-122127744D01*
X157822518Y-122127744D02*
X157739302Y-122127744D01*
X157739302Y-122127744D02*
X157614479Y-122169352D01*
X157614479Y-122169352D02*
X157531264Y-122252567D01*
X157531264Y-122252567D02*
X157489657Y-122335782D01*
X157489657Y-122335782D02*
X157448049Y-122502212D01*
X157448049Y-122502212D02*
X157448049Y-122627035D01*
X157448049Y-122627035D02*
X157489657Y-122793466D01*
X157489657Y-122793466D02*
X157531264Y-122876681D01*
X157531264Y-122876681D02*
X157614479Y-122959896D01*
X157614479Y-122959896D02*
X157739302Y-123001504D01*
X157739302Y-123001504D02*
X157822518Y-123001504D01*
X157822518Y-123001504D02*
X157947340Y-122959896D01*
X157947340Y-122959896D02*
X157988948Y-122918289D01*
X158280201Y-123001504D02*
X158862708Y-122127744D01*
X158862708Y-123001504D02*
X158280201Y-122127744D01*
X151872021Y-110384058D02*
X152163274Y-109510298D01*
X152163274Y-109510298D02*
X152454527Y-110384058D01*
X152745781Y-109510298D02*
X152745781Y-110384058D01*
X153161857Y-109510298D02*
X153161857Y-110384058D01*
X153161857Y-110384058D02*
X153661148Y-109510298D01*
X153661148Y-109510298D02*
X153661148Y-110384058D01*
X157414088Y-106991015D02*
X157330873Y-107032623D01*
X157330873Y-107032623D02*
X157206050Y-107032623D01*
X157206050Y-107032623D02*
X157081227Y-106991015D01*
X157081227Y-106991015D02*
X156998012Y-106907800D01*
X156998012Y-106907800D02*
X156956405Y-106824585D01*
X156956405Y-106824585D02*
X156914797Y-106658154D01*
X156914797Y-106658154D02*
X156914797Y-106533331D01*
X156914797Y-106533331D02*
X156956405Y-106366901D01*
X156956405Y-106366901D02*
X156998012Y-106283686D01*
X156998012Y-106283686D02*
X157081227Y-106200471D01*
X157081227Y-106200471D02*
X157206050Y-106158863D01*
X157206050Y-106158863D02*
X157289266Y-106158863D01*
X157289266Y-106158863D02*
X157414088Y-106200471D01*
X157414088Y-106200471D02*
X157455696Y-106242078D01*
X157455696Y-106242078D02*
X157455696Y-106533331D01*
X157455696Y-106533331D02*
X157289266Y-106533331D01*
X157830165Y-106158863D02*
X157830165Y-107032623D01*
X157830165Y-107032623D02*
X158329456Y-106158863D01*
X158329456Y-106158863D02*
X158329456Y-107032623D01*
X158745533Y-106158863D02*
X158745533Y-107032623D01*
X158745533Y-107032623D02*
X158953571Y-107032623D01*
X158953571Y-107032623D02*
X159078394Y-106991015D01*
X159078394Y-106991015D02*
X159161609Y-106907800D01*
X159161609Y-106907800D02*
X159203216Y-106824585D01*
X159203216Y-106824585D02*
X159244824Y-106658154D01*
X159244824Y-106658154D02*
X159244824Y-106533331D01*
X159244824Y-106533331D02*
X159203216Y-106366901D01*
X159203216Y-106366901D02*
X159161609Y-106283686D01*
X159161609Y-106283686D02*
X159078394Y-106200471D01*
X159078394Y-106200471D02*
X158953571Y-106158863D01*
X158953571Y-106158863D02*
X158745533Y-106158863D01*
X173266324Y-106252749D02*
X173266324Y-107126509D01*
X173640792Y-107043294D02*
X173682400Y-107084901D01*
X173682400Y-107084901D02*
X173765615Y-107126509D01*
X173765615Y-107126509D02*
X173973653Y-107126509D01*
X173973653Y-107126509D02*
X174056868Y-107084901D01*
X174056868Y-107084901D02*
X174098476Y-107043294D01*
X174098476Y-107043294D02*
X174140083Y-106960078D01*
X174140083Y-106960078D02*
X174140083Y-106876863D01*
X174140083Y-106876863D02*
X174098476Y-106752040D01*
X174098476Y-106752040D02*
X173599184Y-106252749D01*
X173599184Y-106252749D02*
X174140083Y-106252749D01*
X167847774Y-122959900D02*
X167764559Y-123001508D01*
X167764559Y-123001508D02*
X167639736Y-123001508D01*
X167639736Y-123001508D02*
X167514913Y-122959900D01*
X167514913Y-122959900D02*
X167431698Y-122876685D01*
X167431698Y-122876685D02*
X167390091Y-122793470D01*
X167390091Y-122793470D02*
X167348483Y-122627039D01*
X167348483Y-122627039D02*
X167348483Y-122502216D01*
X167348483Y-122502216D02*
X167390091Y-122335786D01*
X167390091Y-122335786D02*
X167431698Y-122252571D01*
X167431698Y-122252571D02*
X167514913Y-122169356D01*
X167514913Y-122169356D02*
X167639736Y-122127748D01*
X167639736Y-122127748D02*
X167722952Y-122127748D01*
X167722952Y-122127748D02*
X167847774Y-122169356D01*
X167847774Y-122169356D02*
X167889382Y-122210963D01*
X167889382Y-122210963D02*
X167889382Y-122502216D01*
X167889382Y-122502216D02*
X167722952Y-122502216D01*
X168263851Y-122127748D02*
X168263851Y-123001508D01*
X168263851Y-123001508D02*
X168763142Y-122127748D01*
X168763142Y-122127748D02*
X168763142Y-123001508D01*
X169179219Y-122127748D02*
X169179219Y-123001508D01*
X169179219Y-123001508D02*
X169387257Y-123001508D01*
X169387257Y-123001508D02*
X169512080Y-122959900D01*
X169512080Y-122959900D02*
X169595295Y-122876685D01*
X169595295Y-122876685D02*
X169636902Y-122793470D01*
X169636902Y-122793470D02*
X169678510Y-122627039D01*
X169678510Y-122627039D02*
X169678510Y-122502216D01*
X169678510Y-122502216D02*
X169636902Y-122335786D01*
X169636902Y-122335786D02*
X169595295Y-122252571D01*
X169595295Y-122252571D02*
X169512080Y-122169356D01*
X169512080Y-122169356D02*
X169387257Y-122127748D01*
X169387257Y-122127748D02*
X169179219Y-122127748D01*
X165363169Y-106252748D02*
X165363169Y-107126508D01*
X165363169Y-107126508D02*
X165571207Y-107126508D01*
X165571207Y-107126508D02*
X165696030Y-107084900D01*
X165696030Y-107084900D02*
X165779245Y-107001685D01*
X165779245Y-107001685D02*
X165820852Y-106918470D01*
X165820852Y-106918470D02*
X165862460Y-106752039D01*
X165862460Y-106752039D02*
X165862460Y-106627216D01*
X165862460Y-106627216D02*
X165820852Y-106460786D01*
X165820852Y-106460786D02*
X165779245Y-106377571D01*
X165779245Y-106377571D02*
X165696030Y-106294356D01*
X165696030Y-106294356D02*
X165571207Y-106252748D01*
X165571207Y-106252748D02*
X165363169Y-106252748D01*
X166403359Y-107126508D02*
X166569790Y-107126508D01*
X166569790Y-107126508D02*
X166653005Y-107084900D01*
X166653005Y-107084900D02*
X166736220Y-107001685D01*
X166736220Y-107001685D02*
X166777828Y-106835255D01*
X166777828Y-106835255D02*
X166777828Y-106544001D01*
X166777828Y-106544001D02*
X166736220Y-106377571D01*
X166736220Y-106377571D02*
X166653005Y-106294356D01*
X166653005Y-106294356D02*
X166569790Y-106252748D01*
X166569790Y-106252748D02*
X166403359Y-106252748D01*
X166403359Y-106252748D02*
X166320144Y-106294356D01*
X166320144Y-106294356D02*
X166236929Y-106377571D01*
X166236929Y-106377571D02*
X166195321Y-106544001D01*
X166195321Y-106544001D02*
X166195321Y-106835255D01*
X166195321Y-106835255D02*
X166236929Y-107001685D01*
X166236929Y-107001685D02*
X166320144Y-107084900D01*
X166320144Y-107084900D02*
X166403359Y-107126508D01*
X168329768Y-106335962D02*
X168288160Y-106294355D01*
X168288160Y-106294355D02*
X168163338Y-106252747D01*
X168163338Y-106252747D02*
X168080122Y-106252747D01*
X168080122Y-106252747D02*
X167955299Y-106294355D01*
X167955299Y-106294355D02*
X167872084Y-106377570D01*
X167872084Y-106377570D02*
X167830477Y-106460785D01*
X167830477Y-106460785D02*
X167788869Y-106627215D01*
X167788869Y-106627215D02*
X167788869Y-106752038D01*
X167788869Y-106752038D02*
X167830477Y-106918469D01*
X167830477Y-106918469D02*
X167872084Y-107001684D01*
X167872084Y-107001684D02*
X167955299Y-107084899D01*
X167955299Y-107084899D02*
X168080122Y-107126507D01*
X168080122Y-107126507D02*
X168163338Y-107126507D01*
X168163338Y-107126507D02*
X168288160Y-107084899D01*
X168288160Y-107084899D02*
X168329768Y-107043292D01*
X168662629Y-106294355D02*
X168787452Y-106252747D01*
X168787452Y-106252747D02*
X168995490Y-106252747D01*
X168995490Y-106252747D02*
X169078705Y-106294355D01*
X169078705Y-106294355D02*
X169120313Y-106335962D01*
X169120313Y-106335962D02*
X169161920Y-106419177D01*
X169161920Y-106419177D02*
X169161920Y-106502393D01*
X169161920Y-106502393D02*
X169120313Y-106585608D01*
X169120313Y-106585608D02*
X169078705Y-106627215D01*
X169078705Y-106627215D02*
X168995490Y-106668823D01*
X168995490Y-106668823D02*
X168829059Y-106710431D01*
X168829059Y-106710431D02*
X168745844Y-106752038D01*
X168745844Y-106752038D02*
X168704237Y-106793646D01*
X168704237Y-106793646D02*
X168662629Y-106876861D01*
X168662629Y-106876861D02*
X168662629Y-106960076D01*
X168662629Y-106960076D02*
X168704237Y-107043292D01*
X168704237Y-107043292D02*
X168745844Y-107084899D01*
X168745844Y-107084899D02*
X168829059Y-107126507D01*
X168829059Y-107126507D02*
X169037098Y-107126507D01*
X169037098Y-107126507D02*
X169161920Y-107084899D01*
X170751723Y-106252744D02*
X170751723Y-107126504D01*
X171625482Y-106252744D02*
X171126191Y-106252744D01*
X171375837Y-106252744D02*
X171375837Y-107126504D01*
X171375837Y-107126504D02*
X171292621Y-107001681D01*
X171292621Y-107001681D02*
X171209406Y-106918466D01*
X171209406Y-106918466D02*
X171126191Y-106876858D01*
X165286968Y-122127745D02*
X165286968Y-123001505D01*
X165286968Y-123001505D02*
X165495006Y-123001505D01*
X165495006Y-123001505D02*
X165619829Y-122959897D01*
X165619829Y-122959897D02*
X165703044Y-122876682D01*
X165703044Y-122876682D02*
X165744651Y-122793467D01*
X165744651Y-122793467D02*
X165786259Y-122627036D01*
X165786259Y-122627036D02*
X165786259Y-122502213D01*
X165786259Y-122502213D02*
X165744651Y-122335783D01*
X165744651Y-122335783D02*
X165703044Y-122252568D01*
X165703044Y-122252568D02*
X165619829Y-122169353D01*
X165619829Y-122169353D02*
X165495006Y-122127745D01*
X165495006Y-122127745D02*
X165286968Y-122127745D01*
X166327158Y-123001505D02*
X166493589Y-123001505D01*
X166493589Y-123001505D02*
X166576804Y-122959897D01*
X166576804Y-122959897D02*
X166660019Y-122876682D01*
X166660019Y-122876682D02*
X166701627Y-122710252D01*
X166701627Y-122710252D02*
X166701627Y-122418998D01*
X166701627Y-122418998D02*
X166660019Y-122252568D01*
X166660019Y-122252568D02*
X166576804Y-122169353D01*
X166576804Y-122169353D02*
X166493589Y-122127745D01*
X166493589Y-122127745D02*
X166327158Y-122127745D01*
X166327158Y-122127745D02*
X166243943Y-122169353D01*
X166243943Y-122169353D02*
X166160728Y-122252568D01*
X166160728Y-122252568D02*
X166119120Y-122418998D01*
X166119120Y-122418998D02*
X166119120Y-122710252D01*
X166119120Y-122710252D02*
X166160728Y-122876682D01*
X166160728Y-122876682D02*
X166243943Y-122959897D01*
X166243943Y-122959897D02*
X166327158Y-123001505D01*
X154689002Y-110532624D02*
X155229901Y-110532624D01*
X155229901Y-110532624D02*
X154938648Y-110199763D01*
X154938648Y-110199763D02*
X155063471Y-110199763D01*
X155063471Y-110199763D02*
X155146686Y-110158155D01*
X155146686Y-110158155D02*
X155188294Y-110116548D01*
X155188294Y-110116548D02*
X155229901Y-110033332D01*
X155229901Y-110033332D02*
X155229901Y-109825294D01*
X155229901Y-109825294D02*
X155188294Y-109742079D01*
X155188294Y-109742079D02*
X155146686Y-109700472D01*
X155146686Y-109700472D02*
X155063471Y-109658864D01*
X155063471Y-109658864D02*
X154813825Y-109658864D01*
X154813825Y-109658864D02*
X154730610Y-109700472D01*
X154730610Y-109700472D02*
X154689002Y-109742079D01*
X155479547Y-110532624D02*
X155770800Y-109658864D01*
X155770800Y-109658864D02*
X156062053Y-110532624D01*
X156478129Y-109658864D02*
X156394914Y-109700472D01*
X156394914Y-109700472D02*
X156353307Y-109742079D01*
X156353307Y-109742079D02*
X156311699Y-109825294D01*
X156311699Y-109825294D02*
X156311699Y-110074940D01*
X156311699Y-110074940D02*
X156353307Y-110158155D01*
X156353307Y-110158155D02*
X156394914Y-110199763D01*
X156394914Y-110199763D02*
X156478129Y-110241371D01*
X156478129Y-110241371D02*
X156602952Y-110241371D01*
X156602952Y-110241371D02*
X156686168Y-110199763D01*
X156686168Y-110199763D02*
X156727775Y-110158155D01*
X156727775Y-110158155D02*
X156769383Y-110074940D01*
X156769383Y-110074940D02*
X156769383Y-109825294D01*
X156769383Y-109825294D02*
X156727775Y-109742079D01*
X156727775Y-109742079D02*
X156686168Y-109700472D01*
X156686168Y-109700472D02*
X156602952Y-109658864D01*
X156602952Y-109658864D02*
X156478129Y-109658864D01*
D12*
X159554814Y-111605410D02*
X159449586Y-111658024D01*
X159449586Y-111658024D02*
X159291743Y-111658024D01*
X159291743Y-111658024D02*
X159133900Y-111605410D01*
X159133900Y-111605410D02*
X159028671Y-111500181D01*
X159028671Y-111500181D02*
X158976057Y-111394953D01*
X158976057Y-111394953D02*
X158923443Y-111184496D01*
X158923443Y-111184496D02*
X158923443Y-111026653D01*
X158923443Y-111026653D02*
X158976057Y-110816196D01*
X158976057Y-110816196D02*
X159028671Y-110710967D01*
X159028671Y-110710967D02*
X159133900Y-110605739D01*
X159133900Y-110605739D02*
X159291743Y-110553124D01*
X159291743Y-110553124D02*
X159396971Y-110553124D01*
X159396971Y-110553124D02*
X159554814Y-110605739D01*
X159554814Y-110605739D02*
X159607428Y-110658353D01*
X159607428Y-110658353D02*
X159607428Y-111026653D01*
X159607428Y-111026653D02*
X159396971Y-111026653D01*
X160291414Y-111079267D02*
X160291414Y-110553124D01*
X159923114Y-111658024D02*
X160291414Y-111079267D01*
X160291414Y-111079267D02*
X160659714Y-111658024D01*
X161659385Y-110553124D02*
X161291085Y-111079267D01*
X161028014Y-110553124D02*
X161028014Y-111658024D01*
X161028014Y-111658024D02*
X161448928Y-111658024D01*
X161448928Y-111658024D02*
X161554157Y-111605410D01*
X161554157Y-111605410D02*
X161606771Y-111552796D01*
X161606771Y-111552796D02*
X161659385Y-111447567D01*
X161659385Y-111447567D02*
X161659385Y-111289724D01*
X161659385Y-111289724D02*
X161606771Y-111184496D01*
X161606771Y-111184496D02*
X161554157Y-111131881D01*
X161554157Y-111131881D02*
X161448928Y-111079267D01*
X161448928Y-111079267D02*
X161028014Y-111079267D01*
X162343371Y-111658024D02*
X162553828Y-111658024D01*
X162553828Y-111658024D02*
X162659057Y-111605410D01*
X162659057Y-111605410D02*
X162764285Y-111500181D01*
X162764285Y-111500181D02*
X162816900Y-111289724D01*
X162816900Y-111289724D02*
X162816900Y-110921424D01*
X162816900Y-110921424D02*
X162764285Y-110710967D01*
X162764285Y-110710967D02*
X162659057Y-110605739D01*
X162659057Y-110605739D02*
X162553828Y-110553124D01*
X162553828Y-110553124D02*
X162343371Y-110553124D01*
X162343371Y-110553124D02*
X162238143Y-110605739D01*
X162238143Y-110605739D02*
X162132914Y-110710967D01*
X162132914Y-110710967D02*
X162080300Y-110921424D01*
X162080300Y-110921424D02*
X162080300Y-111289724D01*
X162080300Y-111289724D02*
X162132914Y-111500181D01*
X162132914Y-111500181D02*
X162238143Y-111605410D01*
X162238143Y-111605410D02*
X162343371Y-111658024D01*
X163237814Y-110605739D02*
X163395657Y-110553124D01*
X163395657Y-110553124D02*
X163658728Y-110553124D01*
X163658728Y-110553124D02*
X163763957Y-110605739D01*
X163763957Y-110605739D02*
X163816571Y-110658353D01*
X163816571Y-110658353D02*
X163869185Y-110763581D01*
X163869185Y-110763581D02*
X163869185Y-110868810D01*
X163869185Y-110868810D02*
X163816571Y-110974039D01*
X163816571Y-110974039D02*
X163763957Y-111026653D01*
X163763957Y-111026653D02*
X163658728Y-111079267D01*
X163658728Y-111079267D02*
X163448271Y-111131881D01*
X163448271Y-111131881D02*
X163343042Y-111184496D01*
X163343042Y-111184496D02*
X163290428Y-111237110D01*
X163290428Y-111237110D02*
X163237814Y-111342339D01*
X163237814Y-111342339D02*
X163237814Y-111447567D01*
X163237814Y-111447567D02*
X163290428Y-111552796D01*
X163290428Y-111552796D02*
X163343042Y-111605410D01*
X163343042Y-111605410D02*
X163448271Y-111658024D01*
X163448271Y-111658024D02*
X163711342Y-111658024D01*
X163711342Y-111658024D02*
X163869185Y-111605410D01*
X164974085Y-110658353D02*
X164921471Y-110605739D01*
X164921471Y-110605739D02*
X164763628Y-110553124D01*
X164763628Y-110553124D02*
X164658400Y-110553124D01*
X164658400Y-110553124D02*
X164500557Y-110605739D01*
X164500557Y-110605739D02*
X164395328Y-110710967D01*
X164395328Y-110710967D02*
X164342714Y-110816196D01*
X164342714Y-110816196D02*
X164290100Y-111026653D01*
X164290100Y-111026653D02*
X164290100Y-111184496D01*
X164290100Y-111184496D02*
X164342714Y-111394953D01*
X164342714Y-111394953D02*
X164395328Y-111500181D01*
X164395328Y-111500181D02*
X164500557Y-111605410D01*
X164500557Y-111605410D02*
X164658400Y-111658024D01*
X164658400Y-111658024D02*
X164763628Y-111658024D01*
X164763628Y-111658024D02*
X164921471Y-111605410D01*
X164921471Y-111605410D02*
X164974085Y-111552796D01*
X165658071Y-111658024D02*
X165868528Y-111658024D01*
X165868528Y-111658024D02*
X165973757Y-111605410D01*
X165973757Y-111605410D02*
X166078985Y-111500181D01*
X166078985Y-111500181D02*
X166131600Y-111289724D01*
X166131600Y-111289724D02*
X166131600Y-110921424D01*
X166131600Y-110921424D02*
X166078985Y-110710967D01*
X166078985Y-110710967D02*
X165973757Y-110605739D01*
X165973757Y-110605739D02*
X165868528Y-110553124D01*
X165868528Y-110553124D02*
X165658071Y-110553124D01*
X165658071Y-110553124D02*
X165552843Y-110605739D01*
X165552843Y-110605739D02*
X165447614Y-110710967D01*
X165447614Y-110710967D02*
X165395000Y-110921424D01*
X165395000Y-110921424D02*
X165395000Y-111289724D01*
X165395000Y-111289724D02*
X165447614Y-111500181D01*
X165447614Y-111500181D02*
X165552843Y-111605410D01*
X165552843Y-111605410D02*
X165658071Y-111658024D01*
X166605128Y-110553124D02*
X166605128Y-111658024D01*
X166605128Y-111658024D02*
X167026042Y-111658024D01*
X167026042Y-111658024D02*
X167131271Y-111605410D01*
X167131271Y-111605410D02*
X167183885Y-111552796D01*
X167183885Y-111552796D02*
X167236499Y-111447567D01*
X167236499Y-111447567D02*
X167236499Y-111289724D01*
X167236499Y-111289724D02*
X167183885Y-111184496D01*
X167183885Y-111184496D02*
X167131271Y-111131881D01*
X167131271Y-111131881D02*
X167026042Y-111079267D01*
X167026042Y-111079267D02*
X166605128Y-111079267D01*
X167710028Y-111131881D02*
X168078328Y-111131881D01*
X168236171Y-110553124D02*
X167710028Y-110553124D01*
X167710028Y-110553124D02*
X167710028Y-111658024D01*
X167710028Y-111658024D02*
X168236171Y-111658024D01*
D11*
X159778200Y-122169352D02*
X159903023Y-122127744D01*
X159903023Y-122127744D02*
X160111061Y-122127744D01*
X160111061Y-122127744D02*
X160194276Y-122169352D01*
X160194276Y-122169352D02*
X160235884Y-122210959D01*
X160235884Y-122210959D02*
X160277491Y-122294174D01*
X160277491Y-122294174D02*
X160277491Y-122377390D01*
X160277491Y-122377390D02*
X160235884Y-122460605D01*
X160235884Y-122460605D02*
X160194276Y-122502212D01*
X160194276Y-122502212D02*
X160111061Y-122543820D01*
X160111061Y-122543820D02*
X159944630Y-122585428D01*
X159944630Y-122585428D02*
X159861415Y-122627035D01*
X159861415Y-122627035D02*
X159819808Y-122668643D01*
X159819808Y-122668643D02*
X159778200Y-122751858D01*
X159778200Y-122751858D02*
X159778200Y-122835073D01*
X159778200Y-122835073D02*
X159819808Y-122918289D01*
X159819808Y-122918289D02*
X159861415Y-122959896D01*
X159861415Y-122959896D02*
X159944630Y-123001504D01*
X159944630Y-123001504D02*
X160152669Y-123001504D01*
X160152669Y-123001504D02*
X160277491Y-122959896D01*
X160651960Y-122127744D02*
X160651960Y-123001504D01*
X160651960Y-123001504D02*
X160859998Y-123001504D01*
X160859998Y-123001504D02*
X160984821Y-122959896D01*
X160984821Y-122959896D02*
X161068036Y-122876681D01*
X161068036Y-122876681D02*
X161109643Y-122793466D01*
X161109643Y-122793466D02*
X161151251Y-122627035D01*
X161151251Y-122627035D02*
X161151251Y-122502212D01*
X161151251Y-122502212D02*
X161109643Y-122335782D01*
X161109643Y-122335782D02*
X161068036Y-122252567D01*
X161068036Y-122252567D02*
X160984821Y-122169352D01*
X160984821Y-122169352D02*
X160859998Y-122127744D01*
X160859998Y-122127744D02*
X160651960Y-122127744D01*
X161442504Y-123001504D02*
X162025011Y-122127744D01*
X162025011Y-123001504D02*
X161442504Y-122127744D01*
D12*
X160054652Y-117053120D02*
X159528509Y-117053120D01*
X159528509Y-117053120D02*
X159528509Y-118158020D01*
X160370338Y-117105735D02*
X160528181Y-117053120D01*
X160528181Y-117053120D02*
X160791252Y-117053120D01*
X160791252Y-117053120D02*
X160896481Y-117105735D01*
X160896481Y-117105735D02*
X160949095Y-117158349D01*
X160949095Y-117158349D02*
X161001709Y-117263577D01*
X161001709Y-117263577D02*
X161001709Y-117368806D01*
X161001709Y-117368806D02*
X160949095Y-117474035D01*
X160949095Y-117474035D02*
X160896481Y-117526649D01*
X160896481Y-117526649D02*
X160791252Y-117579263D01*
X160791252Y-117579263D02*
X160580795Y-117631877D01*
X160580795Y-117631877D02*
X160475566Y-117684492D01*
X160475566Y-117684492D02*
X160422952Y-117737106D01*
X160422952Y-117737106D02*
X160370338Y-117842335D01*
X160370338Y-117842335D02*
X160370338Y-117947563D01*
X160370338Y-117947563D02*
X160422952Y-118052792D01*
X160422952Y-118052792D02*
X160475566Y-118105406D01*
X160475566Y-118105406D02*
X160580795Y-118158020D01*
X160580795Y-118158020D02*
X160843866Y-118158020D01*
X160843866Y-118158020D02*
X161001709Y-118105406D01*
X161475238Y-117053120D02*
X161475238Y-118158020D01*
X161475238Y-118158020D02*
X161843538Y-117368806D01*
X161843538Y-117368806D02*
X162211838Y-118158020D01*
X162211838Y-118158020D02*
X162211838Y-117053120D01*
X163211510Y-118158020D02*
X163001052Y-118158020D01*
X163001052Y-118158020D02*
X162895824Y-118105406D01*
X162895824Y-118105406D02*
X162843210Y-118052792D01*
X162843210Y-118052792D02*
X162737981Y-117894949D01*
X162737981Y-117894949D02*
X162685367Y-117684492D01*
X162685367Y-117684492D02*
X162685367Y-117263577D01*
X162685367Y-117263577D02*
X162737981Y-117158349D01*
X162737981Y-117158349D02*
X162790595Y-117105735D01*
X162790595Y-117105735D02*
X162895824Y-117053120D01*
X162895824Y-117053120D02*
X163106281Y-117053120D01*
X163106281Y-117053120D02*
X163211510Y-117105735D01*
X163211510Y-117105735D02*
X163264124Y-117158349D01*
X163264124Y-117158349D02*
X163316738Y-117263577D01*
X163316738Y-117263577D02*
X163316738Y-117526649D01*
X163316738Y-117526649D02*
X163264124Y-117631877D01*
X163264124Y-117631877D02*
X163211510Y-117684492D01*
X163211510Y-117684492D02*
X163106281Y-117737106D01*
X163106281Y-117737106D02*
X162895824Y-117737106D01*
X162895824Y-117737106D02*
X162790595Y-117684492D01*
X162790595Y-117684492D02*
X162737981Y-117631877D01*
X162737981Y-117631877D02*
X162685367Y-117526649D01*
X163790267Y-117053120D02*
X163790267Y-118158020D01*
X163790267Y-118158020D02*
X164053338Y-118158020D01*
X164053338Y-118158020D02*
X164211181Y-118105406D01*
X164211181Y-118105406D02*
X164316410Y-118000177D01*
X164316410Y-118000177D02*
X164369024Y-117894949D01*
X164369024Y-117894949D02*
X164421638Y-117684492D01*
X164421638Y-117684492D02*
X164421638Y-117526649D01*
X164421638Y-117526649D02*
X164369024Y-117316192D01*
X164369024Y-117316192D02*
X164316410Y-117210963D01*
X164316410Y-117210963D02*
X164211181Y-117105735D01*
X164211181Y-117105735D02*
X164053338Y-117053120D01*
X164053338Y-117053120D02*
X163790267Y-117053120D01*
X164842553Y-117105735D02*
X165000396Y-117053120D01*
X165000396Y-117053120D02*
X165263467Y-117053120D01*
X165263467Y-117053120D02*
X165368696Y-117105735D01*
X165368696Y-117105735D02*
X165421310Y-117158349D01*
X165421310Y-117158349D02*
X165473924Y-117263577D01*
X165473924Y-117263577D02*
X165473924Y-117368806D01*
X165473924Y-117368806D02*
X165421310Y-117474035D01*
X165421310Y-117474035D02*
X165368696Y-117526649D01*
X165368696Y-117526649D02*
X165263467Y-117579263D01*
X165263467Y-117579263D02*
X165053010Y-117631877D01*
X165053010Y-117631877D02*
X164947781Y-117684492D01*
X164947781Y-117684492D02*
X164895167Y-117737106D01*
X164895167Y-117737106D02*
X164842553Y-117842335D01*
X164842553Y-117842335D02*
X164842553Y-117947563D01*
X164842553Y-117947563D02*
X164895167Y-118052792D01*
X164895167Y-118052792D02*
X164947781Y-118105406D01*
X164947781Y-118105406D02*
X165053010Y-118158020D01*
X165053010Y-118158020D02*
X165316081Y-118158020D01*
X165316081Y-118158020D02*
X165473924Y-118105406D01*
X166157910Y-118158020D02*
X166368367Y-118158020D01*
X166368367Y-118158020D02*
X166473596Y-118105406D01*
X166473596Y-118105406D02*
X166578824Y-118000177D01*
X166578824Y-118000177D02*
X166631439Y-117789720D01*
X166631439Y-117789720D02*
X166631439Y-117421420D01*
X166631439Y-117421420D02*
X166578824Y-117210963D01*
X166578824Y-117210963D02*
X166473596Y-117105735D01*
X166473596Y-117105735D02*
X166368367Y-117053120D01*
X166368367Y-117053120D02*
X166157910Y-117053120D01*
X166157910Y-117053120D02*
X166052682Y-117105735D01*
X166052682Y-117105735D02*
X165947453Y-117210963D01*
X165947453Y-117210963D02*
X165894839Y-117421420D01*
X165894839Y-117421420D02*
X165894839Y-117789720D01*
X165894839Y-117789720D02*
X165947453Y-118000177D01*
X165947453Y-118000177D02*
X166052682Y-118105406D01*
X166052682Y-118105406D02*
X166157910Y-118158020D01*
X166999738Y-118158020D02*
X167736338Y-117053120D01*
X167736338Y-118158020D02*
X166999738Y-117053120D01*
D11*
X163325970Y-122210956D02*
X163284362Y-122169349D01*
X163284362Y-122169349D02*
X163159540Y-122127741D01*
X163159540Y-122127741D02*
X163076324Y-122127741D01*
X163076324Y-122127741D02*
X162951501Y-122169349D01*
X162951501Y-122169349D02*
X162868286Y-122252564D01*
X162868286Y-122252564D02*
X162826679Y-122335779D01*
X162826679Y-122335779D02*
X162785071Y-122502209D01*
X162785071Y-122502209D02*
X162785071Y-122627032D01*
X162785071Y-122627032D02*
X162826679Y-122793463D01*
X162826679Y-122793463D02*
X162868286Y-122876678D01*
X162868286Y-122876678D02*
X162951501Y-122959893D01*
X162951501Y-122959893D02*
X163076324Y-123001501D01*
X163076324Y-123001501D02*
X163159540Y-123001501D01*
X163159540Y-123001501D02*
X163284362Y-122959893D01*
X163284362Y-122959893D02*
X163325970Y-122918286D01*
X163658831Y-122169349D02*
X163783654Y-122127741D01*
X163783654Y-122127741D02*
X163991692Y-122127741D01*
X163991692Y-122127741D02*
X164074907Y-122169349D01*
X164074907Y-122169349D02*
X164116515Y-122210956D01*
X164116515Y-122210956D02*
X164158122Y-122294171D01*
X164158122Y-122294171D02*
X164158122Y-122377387D01*
X164158122Y-122377387D02*
X164116515Y-122460602D01*
X164116515Y-122460602D02*
X164074907Y-122502209D01*
X164074907Y-122502209D02*
X163991692Y-122543817D01*
X163991692Y-122543817D02*
X163825261Y-122585425D01*
X163825261Y-122585425D02*
X163742046Y-122627032D01*
X163742046Y-122627032D02*
X163700439Y-122668640D01*
X163700439Y-122668640D02*
X163658831Y-122751855D01*
X163658831Y-122751855D02*
X163658831Y-122835070D01*
X163658831Y-122835070D02*
X163700439Y-122918286D01*
X163700439Y-122918286D02*
X163742046Y-122959893D01*
X163742046Y-122959893D02*
X163825261Y-123001501D01*
X163825261Y-123001501D02*
X164033300Y-123001501D01*
X164033300Y-123001501D02*
X164158122Y-122959893D01*
D10*
X141023809Y-114957419D02*
X141023809Y-113957419D01*
X141023809Y-113957419D02*
X140690476Y-114671704D01*
X140690476Y-114671704D02*
X140357143Y-113957419D01*
X140357143Y-113957419D02*
X140357143Y-114957419D01*
X139309524Y-114862180D02*
X139357143Y-114909800D01*
X139357143Y-114909800D02*
X139500000Y-114957419D01*
X139500000Y-114957419D02*
X139595238Y-114957419D01*
X139595238Y-114957419D02*
X139738095Y-114909800D01*
X139738095Y-114909800D02*
X139833333Y-114814561D01*
X139833333Y-114814561D02*
X139880952Y-114719323D01*
X139880952Y-114719323D02*
X139928571Y-114528847D01*
X139928571Y-114528847D02*
X139928571Y-114385990D01*
X139928571Y-114385990D02*
X139880952Y-114195514D01*
X139880952Y-114195514D02*
X139833333Y-114100276D01*
X139833333Y-114100276D02*
X139738095Y-114005038D01*
X139738095Y-114005038D02*
X139595238Y-113957419D01*
X139595238Y-113957419D02*
X139500000Y-113957419D01*
X139500000Y-113957419D02*
X139357143Y-114005038D01*
X139357143Y-114005038D02*
X139309524Y-114052657D01*
X138880952Y-114957419D02*
X138880952Y-113957419D01*
X138880952Y-113957419D02*
X138500000Y-113957419D01*
X138500000Y-113957419D02*
X138404762Y-114005038D01*
X138404762Y-114005038D02*
X138357143Y-114052657D01*
X138357143Y-114052657D02*
X138309524Y-114147895D01*
X138309524Y-114147895D02*
X138309524Y-114290752D01*
X138309524Y-114290752D02*
X138357143Y-114385990D01*
X138357143Y-114385990D02*
X138404762Y-114433609D01*
X138404762Y-114433609D02*
X138500000Y-114481228D01*
X138500000Y-114481228D02*
X138880952Y-114481228D01*
X137452381Y-114290752D02*
X137452381Y-114957419D01*
X137690476Y-113909800D02*
X137928571Y-114624085D01*
X137928571Y-114624085D02*
X137309524Y-114624085D01*
X137023809Y-113957419D02*
X136357143Y-113957419D01*
X136357143Y-113957419D02*
X136785714Y-114957419D01*
X136023809Y-114052657D02*
X135976190Y-114005038D01*
X135976190Y-114005038D02*
X135880952Y-113957419D01*
X135880952Y-113957419D02*
X135642857Y-113957419D01*
X135642857Y-113957419D02*
X135547619Y-114005038D01*
X135547619Y-114005038D02*
X135500000Y-114052657D01*
X135500000Y-114052657D02*
X135452381Y-114147895D01*
X135452381Y-114147895D02*
X135452381Y-114243133D01*
X135452381Y-114243133D02*
X135500000Y-114385990D01*
X135500000Y-114385990D02*
X136071428Y-114957419D01*
X136071428Y-114957419D02*
X135452381Y-114957419D01*
X134880952Y-114385990D02*
X134976190Y-114338371D01*
X134976190Y-114338371D02*
X135023809Y-114290752D01*
X135023809Y-114290752D02*
X135071428Y-114195514D01*
X135071428Y-114195514D02*
X135071428Y-114147895D01*
X135071428Y-114147895D02*
X135023809Y-114052657D01*
X135023809Y-114052657D02*
X134976190Y-114005038D01*
X134976190Y-114005038D02*
X134880952Y-113957419D01*
X134880952Y-113957419D02*
X134690476Y-113957419D01*
X134690476Y-113957419D02*
X134595238Y-114005038D01*
X134595238Y-114005038D02*
X134547619Y-114052657D01*
X134547619Y-114052657D02*
X134500000Y-114147895D01*
X134500000Y-114147895D02*
X134500000Y-114195514D01*
X134500000Y-114195514D02*
X134547619Y-114290752D01*
X134547619Y-114290752D02*
X134595238Y-114338371D01*
X134595238Y-114338371D02*
X134690476Y-114385990D01*
X134690476Y-114385990D02*
X134880952Y-114385990D01*
X134880952Y-114385990D02*
X134976190Y-114433609D01*
X134976190Y-114433609D02*
X135023809Y-114481228D01*
X135023809Y-114481228D02*
X135071428Y-114576466D01*
X135071428Y-114576466D02*
X135071428Y-114766942D01*
X135071428Y-114766942D02*
X135023809Y-114862180D01*
X135023809Y-114862180D02*
X134976190Y-114909800D01*
X134976190Y-114909800D02*
X134880952Y-114957419D01*
X134880952Y-114957419D02*
X134690476Y-114957419D01*
X134690476Y-114957419D02*
X134595238Y-114909800D01*
X134595238Y-114909800D02*
X134547619Y-114862180D01*
X134547619Y-114862180D02*
X134500000Y-114766942D01*
X134500000Y-114766942D02*
X134500000Y-114576466D01*
X134500000Y-114576466D02*
X134547619Y-114481228D01*
X134547619Y-114481228D02*
X134595238Y-114433609D01*
X134595238Y-114433609D02*
X134690476Y-114385990D01*
X134309524Y-115052657D02*
X133547619Y-115052657D01*
X133309523Y-114957419D02*
X133309523Y-113957419D01*
X133309523Y-113957419D02*
X133071428Y-113957419D01*
X133071428Y-113957419D02*
X132928571Y-114005038D01*
X132928571Y-114005038D02*
X132833333Y-114100276D01*
X132833333Y-114100276D02*
X132785714Y-114195514D01*
X132785714Y-114195514D02*
X132738095Y-114385990D01*
X132738095Y-114385990D02*
X132738095Y-114528847D01*
X132738095Y-114528847D02*
X132785714Y-114719323D01*
X132785714Y-114719323D02*
X132833333Y-114814561D01*
X132833333Y-114814561D02*
X132928571Y-114909800D01*
X132928571Y-114909800D02*
X133071428Y-114957419D01*
X133071428Y-114957419D02*
X133309523Y-114957419D01*
X132357142Y-114671704D02*
X131880952Y-114671704D01*
X132452380Y-114957419D02*
X132119047Y-113957419D01*
X132119047Y-113957419D02*
X131785714Y-114957419D01*
X130880952Y-114862180D02*
X130928571Y-114909800D01*
X130928571Y-114909800D02*
X131071428Y-114957419D01*
X131071428Y-114957419D02*
X131166666Y-114957419D01*
X131166666Y-114957419D02*
X131309523Y-114909800D01*
X131309523Y-114909800D02*
X131404761Y-114814561D01*
X131404761Y-114814561D02*
X131452380Y-114719323D01*
X131452380Y-114719323D02*
X131499999Y-114528847D01*
X131499999Y-114528847D02*
X131499999Y-114385990D01*
X131499999Y-114385990D02*
X131452380Y-114195514D01*
X131452380Y-114195514D02*
X131404761Y-114100276D01*
X131404761Y-114100276D02*
X131309523Y-114005038D01*
X131309523Y-114005038D02*
X131166666Y-113957419D01*
X131166666Y-113957419D02*
X131071428Y-113957419D01*
X131071428Y-113957419D02*
X130928571Y-114005038D01*
X130928571Y-114005038D02*
X130880952Y-114052657D01*
X129928571Y-114957419D02*
X130499999Y-114957419D01*
X130214285Y-114957419D02*
X130214285Y-113957419D01*
X130214285Y-113957419D02*
X130309523Y-114100276D01*
X130309523Y-114100276D02*
X130404761Y-114195514D01*
X130404761Y-114195514D02*
X130499999Y-114243133D01*
D11*
X137670417Y-106128177D02*
X137379164Y-107001937D01*
X137379164Y-107001937D02*
X137087911Y-106128177D01*
X136505404Y-106544253D02*
X136380581Y-106585861D01*
X136380581Y-106585861D02*
X136338974Y-106627469D01*
X136338974Y-106627469D02*
X136297366Y-106710684D01*
X136297366Y-106710684D02*
X136297366Y-106835507D01*
X136297366Y-106835507D02*
X136338974Y-106918722D01*
X136338974Y-106918722D02*
X136380581Y-106960330D01*
X136380581Y-106960330D02*
X136463796Y-107001937D01*
X136463796Y-107001937D02*
X136796657Y-107001937D01*
X136796657Y-107001937D02*
X136796657Y-106128177D01*
X136796657Y-106128177D02*
X136505404Y-106128177D01*
X136505404Y-106128177D02*
X136422189Y-106169785D01*
X136422189Y-106169785D02*
X136380581Y-106211392D01*
X136380581Y-106211392D02*
X136338974Y-106294608D01*
X136338974Y-106294608D02*
X136338974Y-106377823D01*
X136338974Y-106377823D02*
X136380581Y-106461038D01*
X136380581Y-106461038D02*
X136422189Y-106502646D01*
X136422189Y-106502646D02*
X136505404Y-106544253D01*
X136505404Y-106544253D02*
X136796657Y-106544253D01*
X137855475Y-122962330D02*
X137730652Y-123003937D01*
X137730652Y-123003937D02*
X137522614Y-123003937D01*
X137522614Y-123003937D02*
X137439399Y-122962330D01*
X137439399Y-122962330D02*
X137397791Y-122920722D01*
X137397791Y-122920722D02*
X137356184Y-122837507D01*
X137356184Y-122837507D02*
X137356184Y-122754291D01*
X137356184Y-122754291D02*
X137397791Y-122671076D01*
X137397791Y-122671076D02*
X137439399Y-122629469D01*
X137439399Y-122629469D02*
X137522614Y-122587861D01*
X137522614Y-122587861D02*
X137689045Y-122546253D01*
X137689045Y-122546253D02*
X137772260Y-122504646D01*
X137772260Y-122504646D02*
X137813867Y-122463038D01*
X137813867Y-122463038D02*
X137855475Y-122379823D01*
X137855475Y-122379823D02*
X137855475Y-122296608D01*
X137855475Y-122296608D02*
X137813867Y-122213392D01*
X137813867Y-122213392D02*
X137772260Y-122171785D01*
X137772260Y-122171785D02*
X137689045Y-122130177D01*
X137689045Y-122130177D02*
X137481006Y-122130177D01*
X137481006Y-122130177D02*
X137356184Y-122171785D01*
X136482424Y-122920722D02*
X136524032Y-122962330D01*
X136524032Y-122962330D02*
X136648854Y-123003937D01*
X136648854Y-123003937D02*
X136732070Y-123003937D01*
X136732070Y-123003937D02*
X136856893Y-122962330D01*
X136856893Y-122962330D02*
X136940108Y-122879114D01*
X136940108Y-122879114D02*
X136981715Y-122795899D01*
X136981715Y-122795899D02*
X137023323Y-122629469D01*
X137023323Y-122629469D02*
X137023323Y-122504646D01*
X137023323Y-122504646D02*
X136981715Y-122338215D01*
X136981715Y-122338215D02*
X136940108Y-122255000D01*
X136940108Y-122255000D02*
X136856893Y-122171785D01*
X136856893Y-122171785D02*
X136732070Y-122130177D01*
X136732070Y-122130177D02*
X136648854Y-122130177D01*
X136648854Y-122130177D02*
X136524032Y-122171785D01*
X136524032Y-122171785D02*
X136482424Y-122213392D01*
X135691879Y-123003937D02*
X136107955Y-123003937D01*
X136107955Y-123003937D02*
X136107955Y-122130177D01*
X132590417Y-106128177D02*
X132299164Y-107001937D01*
X132299164Y-107001937D02*
X132007911Y-106128177D01*
X131716657Y-107001937D02*
X131716657Y-106128177D01*
X131716657Y-106128177D02*
X131508619Y-106128177D01*
X131508619Y-106128177D02*
X131383796Y-106169785D01*
X131383796Y-106169785D02*
X131300581Y-106253000D01*
X131300581Y-106253000D02*
X131258974Y-106336215D01*
X131258974Y-106336215D02*
X131217366Y-106502646D01*
X131217366Y-106502646D02*
X131217366Y-106627469D01*
X131217366Y-106627469D02*
X131258974Y-106793899D01*
X131258974Y-106793899D02*
X131300581Y-106877114D01*
X131300581Y-106877114D02*
X131383796Y-106960330D01*
X131383796Y-106960330D02*
X131508619Y-107001937D01*
X131508619Y-107001937D02*
X131716657Y-107001937D01*
D13*
X139283389Y-112973841D02*
X139365637Y-112932717D01*
X139365637Y-112932717D02*
X139447884Y-112850470D01*
X139447884Y-112850470D02*
X139571256Y-112727098D01*
X139571256Y-112727098D02*
X139653503Y-112685974D01*
X139653503Y-112685974D02*
X139735751Y-112685974D01*
X139694627Y-112891593D02*
X139776875Y-112850470D01*
X139776875Y-112850470D02*
X139859122Y-112768222D01*
X139859122Y-112768222D02*
X139900246Y-112603727D01*
X139900246Y-112603727D02*
X139900246Y-112315860D01*
X139900246Y-112315860D02*
X139859122Y-112151365D01*
X139859122Y-112151365D02*
X139776875Y-112069117D01*
X139776875Y-112069117D02*
X139694627Y-112027993D01*
X139694627Y-112027993D02*
X139530132Y-112027993D01*
X139530132Y-112027993D02*
X139447884Y-112069117D01*
X139447884Y-112069117D02*
X139365637Y-112151365D01*
X139365637Y-112151365D02*
X139324513Y-112315860D01*
X139324513Y-112315860D02*
X139324513Y-112603727D01*
X139324513Y-112603727D02*
X139365637Y-112768222D01*
X139365637Y-112768222D02*
X139447884Y-112850470D01*
X139447884Y-112850470D02*
X139530132Y-112891593D01*
X139530132Y-112891593D02*
X139694627Y-112891593D01*
X138584284Y-112315860D02*
X138584284Y-112891593D01*
X138954398Y-112315860D02*
X138954398Y-112768222D01*
X138954398Y-112768222D02*
X138913275Y-112850470D01*
X138913275Y-112850470D02*
X138831027Y-112891593D01*
X138831027Y-112891593D02*
X138707656Y-112891593D01*
X138707656Y-112891593D02*
X138625408Y-112850470D01*
X138625408Y-112850470D02*
X138584284Y-112809346D01*
X137802932Y-112891593D02*
X137802932Y-112439231D01*
X137802932Y-112439231D02*
X137844056Y-112356984D01*
X137844056Y-112356984D02*
X137926304Y-112315860D01*
X137926304Y-112315860D02*
X138090799Y-112315860D01*
X138090799Y-112315860D02*
X138173046Y-112356984D01*
X137802932Y-112850470D02*
X137885180Y-112891593D01*
X137885180Y-112891593D02*
X138090799Y-112891593D01*
X138090799Y-112891593D02*
X138173046Y-112850470D01*
X138173046Y-112850470D02*
X138214170Y-112768222D01*
X138214170Y-112768222D02*
X138214170Y-112685974D01*
X138214170Y-112685974D02*
X138173046Y-112603727D01*
X138173046Y-112603727D02*
X138090799Y-112562603D01*
X138090799Y-112562603D02*
X137885180Y-112562603D01*
X137885180Y-112562603D02*
X137802932Y-112521479D01*
X137021580Y-112891593D02*
X137021580Y-112027993D01*
X137021580Y-112850470D02*
X137103828Y-112891593D01*
X137103828Y-112891593D02*
X137268323Y-112891593D01*
X137268323Y-112891593D02*
X137350571Y-112850470D01*
X137350571Y-112850470D02*
X137391694Y-112809346D01*
X137391694Y-112809346D02*
X137432818Y-112727098D01*
X137432818Y-112727098D02*
X137432818Y-112480355D01*
X137432818Y-112480355D02*
X137391694Y-112398108D01*
X137391694Y-112398108D02*
X137350571Y-112356984D01*
X137350571Y-112356984D02*
X137268323Y-112315860D01*
X137268323Y-112315860D02*
X137103828Y-112315860D01*
X137103828Y-112315860D02*
X137021580Y-112356984D01*
X135952361Y-112891593D02*
X135952361Y-112027993D01*
X135582247Y-112110241D02*
X135541123Y-112069117D01*
X135541123Y-112069117D02*
X135458876Y-112027993D01*
X135458876Y-112027993D02*
X135253257Y-112027993D01*
X135253257Y-112027993D02*
X135171009Y-112069117D01*
X135171009Y-112069117D02*
X135129885Y-112110241D01*
X135129885Y-112110241D02*
X135088762Y-112192489D01*
X135088762Y-112192489D02*
X135088762Y-112274736D01*
X135088762Y-112274736D02*
X135129885Y-112398108D01*
X135129885Y-112398108D02*
X135623371Y-112891593D01*
X135623371Y-112891593D02*
X135088762Y-112891593D01*
X134225162Y-112809346D02*
X134266286Y-112850470D01*
X134266286Y-112850470D02*
X134389657Y-112891593D01*
X134389657Y-112891593D02*
X134471905Y-112891593D01*
X134471905Y-112891593D02*
X134595276Y-112850470D01*
X134595276Y-112850470D02*
X134677524Y-112768222D01*
X134677524Y-112768222D02*
X134718647Y-112685974D01*
X134718647Y-112685974D02*
X134759771Y-112521479D01*
X134759771Y-112521479D02*
X134759771Y-112398108D01*
X134759771Y-112398108D02*
X134718647Y-112233612D01*
X134718647Y-112233612D02*
X134677524Y-112151365D01*
X134677524Y-112151365D02*
X134595276Y-112069117D01*
X134595276Y-112069117D02*
X134471905Y-112027993D01*
X134471905Y-112027993D02*
X134389657Y-112027993D01*
X134389657Y-112027993D02*
X134266286Y-112069117D01*
X134266286Y-112069117D02*
X134225162Y-112110241D01*
X133197066Y-112891593D02*
X133197066Y-112027993D01*
X133197066Y-112027993D02*
X132991447Y-112027993D01*
X132991447Y-112027993D02*
X132868076Y-112069117D01*
X132868076Y-112069117D02*
X132785828Y-112151365D01*
X132785828Y-112151365D02*
X132744705Y-112233612D01*
X132744705Y-112233612D02*
X132703581Y-112398108D01*
X132703581Y-112398108D02*
X132703581Y-112521479D01*
X132703581Y-112521479D02*
X132744705Y-112685974D01*
X132744705Y-112685974D02*
X132785828Y-112768222D01*
X132785828Y-112768222D02*
X132868076Y-112850470D01*
X132868076Y-112850470D02*
X132991447Y-112891593D01*
X132991447Y-112891593D02*
X133197066Y-112891593D01*
X132374590Y-112644850D02*
X131963352Y-112644850D01*
X132456838Y-112891593D02*
X132168971Y-112027993D01*
X132168971Y-112027993D02*
X131881105Y-112891593D01*
X131099752Y-112809346D02*
X131140876Y-112850470D01*
X131140876Y-112850470D02*
X131264247Y-112891593D01*
X131264247Y-112891593D02*
X131346495Y-112891593D01*
X131346495Y-112891593D02*
X131469866Y-112850470D01*
X131469866Y-112850470D02*
X131552114Y-112768222D01*
X131552114Y-112768222D02*
X131593237Y-112685974D01*
X131593237Y-112685974D02*
X131634361Y-112521479D01*
X131634361Y-112521479D02*
X131634361Y-112398108D01*
X131634361Y-112398108D02*
X131593237Y-112233612D01*
X131593237Y-112233612D02*
X131552114Y-112151365D01*
X131552114Y-112151365D02*
X131469866Y-112069117D01*
X131469866Y-112069117D02*
X131346495Y-112027993D01*
X131346495Y-112027993D02*
X131264247Y-112027993D01*
X131264247Y-112027993D02*
X131140876Y-112069117D01*
X131140876Y-112069117D02*
X131099752Y-112110241D01*
D11*
X135590278Y-119660330D02*
X135465455Y-119701937D01*
X135465455Y-119701937D02*
X135257417Y-119701937D01*
X135257417Y-119701937D02*
X135174202Y-119660330D01*
X135174202Y-119660330D02*
X135132594Y-119618722D01*
X135132594Y-119618722D02*
X135090987Y-119535507D01*
X135090987Y-119535507D02*
X135090987Y-119452291D01*
X135090987Y-119452291D02*
X135132594Y-119369076D01*
X135132594Y-119369076D02*
X135174202Y-119327469D01*
X135174202Y-119327469D02*
X135257417Y-119285861D01*
X135257417Y-119285861D02*
X135423848Y-119244253D01*
X135423848Y-119244253D02*
X135507063Y-119202646D01*
X135507063Y-119202646D02*
X135548670Y-119161038D01*
X135548670Y-119161038D02*
X135590278Y-119077823D01*
X135590278Y-119077823D02*
X135590278Y-118994608D01*
X135590278Y-118994608D02*
X135548670Y-118911392D01*
X135548670Y-118911392D02*
X135507063Y-118869785D01*
X135507063Y-118869785D02*
X135423848Y-118828177D01*
X135423848Y-118828177D02*
X135215809Y-118828177D01*
X135215809Y-118828177D02*
X135090987Y-118869785D01*
X134716518Y-119701937D02*
X134716518Y-118828177D01*
X134716518Y-118828177D02*
X134508480Y-118828177D01*
X134508480Y-118828177D02*
X134383657Y-118869785D01*
X134383657Y-118869785D02*
X134300442Y-118953000D01*
X134300442Y-118953000D02*
X134258835Y-119036215D01*
X134258835Y-119036215D02*
X134217227Y-119202646D01*
X134217227Y-119202646D02*
X134217227Y-119327469D01*
X134217227Y-119327469D02*
X134258835Y-119493899D01*
X134258835Y-119493899D02*
X134300442Y-119577114D01*
X134300442Y-119577114D02*
X134383657Y-119660330D01*
X134383657Y-119660330D02*
X134508480Y-119701937D01*
X134508480Y-119701937D02*
X134716518Y-119701937D01*
X133884366Y-119452291D02*
X133468290Y-119452291D01*
X133967581Y-119701937D02*
X133676328Y-118828177D01*
X133676328Y-118828177D02*
X133385075Y-119701937D01*
X132586063Y-123003937D02*
X133002139Y-123003937D01*
X133002139Y-123003937D02*
X133002139Y-122130177D01*
X132294809Y-123003937D02*
X132294809Y-122130177D01*
X132294809Y-122130177D02*
X132086771Y-122130177D01*
X132086771Y-122130177D02*
X131961948Y-122171785D01*
X131961948Y-122171785D02*
X131878733Y-122255000D01*
X131878733Y-122255000D02*
X131837126Y-122338215D01*
X131837126Y-122338215D02*
X131795518Y-122504646D01*
X131795518Y-122504646D02*
X131795518Y-122629469D01*
X131795518Y-122629469D02*
X131837126Y-122795899D01*
X131837126Y-122795899D02*
X131878733Y-122879114D01*
X131878733Y-122879114D02*
X131961948Y-122962330D01*
X131961948Y-122962330D02*
X132086771Y-123003937D01*
X132086771Y-123003937D02*
X132294809Y-123003937D01*
X131462657Y-122754291D02*
X131046581Y-122754291D01*
X131545872Y-123003937D02*
X131254619Y-122130177D01*
X131254619Y-122130177D02*
X130963366Y-123003937D01*
X130172821Y-122920722D02*
X130214429Y-122962330D01*
X130214429Y-122962330D02*
X130339251Y-123003937D01*
X130339251Y-123003937D02*
X130422467Y-123003937D01*
X130422467Y-123003937D02*
X130547290Y-122962330D01*
X130547290Y-122962330D02*
X130630505Y-122879114D01*
X130630505Y-122879114D02*
X130672112Y-122795899D01*
X130672112Y-122795899D02*
X130713720Y-122629469D01*
X130713720Y-122629469D02*
X130713720Y-122504646D01*
X130713720Y-122504646D02*
X130672112Y-122338215D01*
X130672112Y-122338215D02*
X130630505Y-122255000D01*
X130630505Y-122255000D02*
X130547290Y-122171785D01*
X130547290Y-122171785D02*
X130422467Y-122130177D01*
X130422467Y-122130177D02*
X130339251Y-122130177D01*
X130339251Y-122130177D02*
X130214429Y-122171785D01*
X130214429Y-122171785D02*
X130172821Y-122213392D01*
D14*
X139727091Y-111236926D02*
X139727091Y-109984706D01*
X139727091Y-109984706D02*
X139309684Y-110879149D01*
X139309684Y-110879149D02*
X138892278Y-109984706D01*
X138892278Y-109984706D02*
X138892278Y-111236926D01*
X137580428Y-111117667D02*
X137640057Y-111177297D01*
X137640057Y-111177297D02*
X137818946Y-111236926D01*
X137818946Y-111236926D02*
X137938205Y-111236926D01*
X137938205Y-111236926D02*
X138117093Y-111177297D01*
X138117093Y-111177297D02*
X138236352Y-111058037D01*
X138236352Y-111058037D02*
X138295982Y-110938778D01*
X138295982Y-110938778D02*
X138355611Y-110700260D01*
X138355611Y-110700260D02*
X138355611Y-110521372D01*
X138355611Y-110521372D02*
X138295982Y-110282854D01*
X138295982Y-110282854D02*
X138236352Y-110163595D01*
X138236352Y-110163595D02*
X138117093Y-110044336D01*
X138117093Y-110044336D02*
X137938205Y-109984706D01*
X137938205Y-109984706D02*
X137818946Y-109984706D01*
X137818946Y-109984706D02*
X137640057Y-110044336D01*
X137640057Y-110044336D02*
X137580428Y-110103965D01*
X137043762Y-111236926D02*
X137043762Y-109984706D01*
X137043762Y-109984706D02*
X136566726Y-109984706D01*
X136566726Y-109984706D02*
X136447467Y-110044336D01*
X136447467Y-110044336D02*
X136387837Y-110103965D01*
X136387837Y-110103965D02*
X136328208Y-110223224D01*
X136328208Y-110223224D02*
X136328208Y-110402113D01*
X136328208Y-110402113D02*
X136387837Y-110521372D01*
X136387837Y-110521372D02*
X136447467Y-110581001D01*
X136447467Y-110581001D02*
X136566726Y-110640631D01*
X136566726Y-110640631D02*
X137043762Y-110640631D01*
X135254876Y-110402113D02*
X135254876Y-111236926D01*
X135553024Y-109925077D02*
X135851171Y-110819519D01*
X135851171Y-110819519D02*
X135075988Y-110819519D01*
X134718211Y-109984706D02*
X133883398Y-109984706D01*
X133883398Y-109984706D02*
X134420063Y-111236926D01*
X133465991Y-110103965D02*
X133406362Y-110044336D01*
X133406362Y-110044336D02*
X133287103Y-109984706D01*
X133287103Y-109984706D02*
X132988955Y-109984706D01*
X132988955Y-109984706D02*
X132869696Y-110044336D01*
X132869696Y-110044336D02*
X132810067Y-110103965D01*
X132810067Y-110103965D02*
X132750437Y-110223224D01*
X132750437Y-110223224D02*
X132750437Y-110342483D01*
X132750437Y-110342483D02*
X132810067Y-110521372D01*
X132810067Y-110521372D02*
X133525621Y-111236926D01*
X133525621Y-111236926D02*
X132750437Y-111236926D01*
X132034883Y-110521372D02*
X132154142Y-110461742D01*
X132154142Y-110461742D02*
X132213772Y-110402113D01*
X132213772Y-110402113D02*
X132273401Y-110282854D01*
X132273401Y-110282854D02*
X132273401Y-110223224D01*
X132273401Y-110223224D02*
X132213772Y-110103965D01*
X132213772Y-110103965D02*
X132154142Y-110044336D01*
X132154142Y-110044336D02*
X132034883Y-109984706D01*
X132034883Y-109984706D02*
X131796365Y-109984706D01*
X131796365Y-109984706D02*
X131677106Y-110044336D01*
X131677106Y-110044336D02*
X131617477Y-110103965D01*
X131617477Y-110103965D02*
X131557847Y-110223224D01*
X131557847Y-110223224D02*
X131557847Y-110282854D01*
X131557847Y-110282854D02*
X131617477Y-110402113D01*
X131617477Y-110402113D02*
X131677106Y-110461742D01*
X131677106Y-110461742D02*
X131796365Y-110521372D01*
X131796365Y-110521372D02*
X132034883Y-110521372D01*
X132034883Y-110521372D02*
X132154142Y-110581001D01*
X132154142Y-110581001D02*
X132213772Y-110640631D01*
X132213772Y-110640631D02*
X132273401Y-110759890D01*
X132273401Y-110759890D02*
X132273401Y-110998408D01*
X132273401Y-110998408D02*
X132213772Y-111117667D01*
X132213772Y-111117667D02*
X132154142Y-111177297D01*
X132154142Y-111177297D02*
X132034883Y-111236926D01*
X132034883Y-111236926D02*
X131796365Y-111236926D01*
X131796365Y-111236926D02*
X131677106Y-111177297D01*
X131677106Y-111177297D02*
X131617477Y-111117667D01*
X131617477Y-111117667D02*
X131557847Y-110998408D01*
X131557847Y-110998408D02*
X131557847Y-110759890D01*
X131557847Y-110759890D02*
X131617477Y-110640631D01*
X131617477Y-110640631D02*
X131677106Y-110581001D01*
X131677106Y-110581001D02*
X131796365Y-110521372D01*
D11*
X135130417Y-106128177D02*
X134839164Y-107001937D01*
X134839164Y-107001937D02*
X134547911Y-106128177D01*
X133757366Y-106918722D02*
X133798974Y-106960330D01*
X133798974Y-106960330D02*
X133923796Y-107001937D01*
X133923796Y-107001937D02*
X134007012Y-107001937D01*
X134007012Y-107001937D02*
X134131835Y-106960330D01*
X134131835Y-106960330D02*
X134215050Y-106877114D01*
X134215050Y-106877114D02*
X134256657Y-106793899D01*
X134256657Y-106793899D02*
X134298265Y-106627469D01*
X134298265Y-106627469D02*
X134298265Y-106502646D01*
X134298265Y-106502646D02*
X134256657Y-106336215D01*
X134256657Y-106336215D02*
X134215050Y-106253000D01*
X134215050Y-106253000D02*
X134131835Y-106169785D01*
X134131835Y-106169785D02*
X134007012Y-106128177D01*
X134007012Y-106128177D02*
X133923796Y-106128177D01*
X133923796Y-106128177D02*
X133798974Y-106169785D01*
X133798974Y-106169785D02*
X133757366Y-106211392D01*
X143187297Y-122130177D02*
X142896044Y-123003937D01*
X142896044Y-123003937D02*
X142604791Y-122130177D01*
X141814246Y-122920722D02*
X141855854Y-122962330D01*
X141855854Y-122962330D02*
X141980676Y-123003937D01*
X141980676Y-123003937D02*
X142063892Y-123003937D01*
X142063892Y-123003937D02*
X142188715Y-122962330D01*
X142188715Y-122962330D02*
X142271930Y-122879114D01*
X142271930Y-122879114D02*
X142313537Y-122795899D01*
X142313537Y-122795899D02*
X142355145Y-122629469D01*
X142355145Y-122629469D02*
X142355145Y-122504646D01*
X142355145Y-122504646D02*
X142313537Y-122338215D01*
X142313537Y-122338215D02*
X142271930Y-122255000D01*
X142271930Y-122255000D02*
X142188715Y-122171785D01*
X142188715Y-122171785D02*
X142063892Y-122130177D01*
X142063892Y-122130177D02*
X141980676Y-122130177D01*
X141980676Y-122130177D02*
X141855854Y-122171785D01*
X141855854Y-122171785D02*
X141814246Y-122213392D01*
X140940486Y-122920722D02*
X140982094Y-122962330D01*
X140982094Y-122962330D02*
X141106916Y-123003937D01*
X141106916Y-123003937D02*
X141190132Y-123003937D01*
X141190132Y-123003937D02*
X141314955Y-122962330D01*
X141314955Y-122962330D02*
X141398170Y-122879114D01*
X141398170Y-122879114D02*
X141439777Y-122795899D01*
X141439777Y-122795899D02*
X141481385Y-122629469D01*
X141481385Y-122629469D02*
X141481385Y-122504646D01*
X141481385Y-122504646D02*
X141439777Y-122338215D01*
X141439777Y-122338215D02*
X141398170Y-122255000D01*
X141398170Y-122255000D02*
X141314955Y-122171785D01*
X141314955Y-122171785D02*
X141190132Y-122130177D01*
X141190132Y-122130177D02*
X141106916Y-122130177D01*
X141106916Y-122130177D02*
X140982094Y-122171785D01*
X140982094Y-122171785D02*
X140940486Y-122213392D01*
X130360297Y-106128177D02*
X130069044Y-107001937D01*
X130069044Y-107001937D02*
X129777791Y-106128177D01*
X128987246Y-106918722D02*
X129028854Y-106960330D01*
X129028854Y-106960330D02*
X129153676Y-107001937D01*
X129153676Y-107001937D02*
X129236892Y-107001937D01*
X129236892Y-107001937D02*
X129361715Y-106960330D01*
X129361715Y-106960330D02*
X129444930Y-106877114D01*
X129444930Y-106877114D02*
X129486537Y-106793899D01*
X129486537Y-106793899D02*
X129528145Y-106627469D01*
X129528145Y-106627469D02*
X129528145Y-106502646D01*
X129528145Y-106502646D02*
X129486537Y-106336215D01*
X129486537Y-106336215D02*
X129444930Y-106253000D01*
X129444930Y-106253000D02*
X129361715Y-106169785D01*
X129361715Y-106169785D02*
X129236892Y-106128177D01*
X129236892Y-106128177D02*
X129153676Y-106128177D01*
X129153676Y-106128177D02*
X129028854Y-106169785D01*
X129028854Y-106169785D02*
X128987246Y-106211392D01*
X128113486Y-106918722D02*
X128155094Y-106960330D01*
X128155094Y-106960330D02*
X128279916Y-107001937D01*
X128279916Y-107001937D02*
X128363132Y-107001937D01*
X128363132Y-107001937D02*
X128487955Y-106960330D01*
X128487955Y-106960330D02*
X128571170Y-106877114D01*
X128571170Y-106877114D02*
X128612777Y-106793899D01*
X128612777Y-106793899D02*
X128654385Y-106627469D01*
X128654385Y-106627469D02*
X128654385Y-106502646D01*
X128654385Y-106502646D02*
X128612777Y-106336215D01*
X128612777Y-106336215D02*
X128571170Y-106253000D01*
X128571170Y-106253000D02*
X128487955Y-106169785D01*
X128487955Y-106169785D02*
X128363132Y-106128177D01*
X128363132Y-106128177D02*
X128279916Y-106128177D01*
X128279916Y-106128177D02*
X128155094Y-106169785D01*
X128155094Y-106169785D02*
X128113486Y-106211392D01*
X140021007Y-118869785D02*
X140104222Y-118828177D01*
X140104222Y-118828177D02*
X140229045Y-118828177D01*
X140229045Y-118828177D02*
X140353868Y-118869785D01*
X140353868Y-118869785D02*
X140437083Y-118953000D01*
X140437083Y-118953000D02*
X140478690Y-119036215D01*
X140478690Y-119036215D02*
X140520298Y-119202646D01*
X140520298Y-119202646D02*
X140520298Y-119327469D01*
X140520298Y-119327469D02*
X140478690Y-119493899D01*
X140478690Y-119493899D02*
X140437083Y-119577114D01*
X140437083Y-119577114D02*
X140353868Y-119660330D01*
X140353868Y-119660330D02*
X140229045Y-119701937D01*
X140229045Y-119701937D02*
X140145829Y-119701937D01*
X140145829Y-119701937D02*
X140021007Y-119660330D01*
X140021007Y-119660330D02*
X139979399Y-119618722D01*
X139979399Y-119618722D02*
X139979399Y-119327469D01*
X139979399Y-119327469D02*
X140145829Y-119327469D01*
X139604930Y-119701937D02*
X139604930Y-118828177D01*
X139604930Y-118828177D02*
X139105639Y-119701937D01*
X139105639Y-119701937D02*
X139105639Y-118828177D01*
X138689562Y-119701937D02*
X138689562Y-118828177D01*
X138689562Y-118828177D02*
X138481524Y-118828177D01*
X138481524Y-118828177D02*
X138356701Y-118869785D01*
X138356701Y-118869785D02*
X138273486Y-118953000D01*
X138273486Y-118953000D02*
X138231879Y-119036215D01*
X138231879Y-119036215D02*
X138190271Y-119202646D01*
X138190271Y-119202646D02*
X138190271Y-119327469D01*
X138190271Y-119327469D02*
X138231879Y-119493899D01*
X138231879Y-119493899D02*
X138273486Y-119577114D01*
X138273486Y-119577114D02*
X138356701Y-119660330D01*
X138356701Y-119660330D02*
X138481524Y-119701937D01*
X138481524Y-119701937D02*
X138689562Y-119701937D01*
X129736183Y-119701937D02*
X130027436Y-119285861D01*
X130235474Y-119701937D02*
X130235474Y-118828177D01*
X130235474Y-118828177D02*
X129902613Y-118828177D01*
X129902613Y-118828177D02*
X129819398Y-118869785D01*
X129819398Y-118869785D02*
X129777791Y-118911392D01*
X129777791Y-118911392D02*
X129736183Y-118994608D01*
X129736183Y-118994608D02*
X129736183Y-119119430D01*
X129736183Y-119119430D02*
X129777791Y-119202646D01*
X129777791Y-119202646D02*
X129819398Y-119244253D01*
X129819398Y-119244253D02*
X129902613Y-119285861D01*
X129902613Y-119285861D02*
X130235474Y-119285861D01*
X129361714Y-119701937D02*
X129361714Y-118828177D01*
X129361714Y-118828177D02*
X129153676Y-118828177D01*
X129153676Y-118828177D02*
X129028853Y-118869785D01*
X129028853Y-118869785D02*
X128945638Y-118953000D01*
X128945638Y-118953000D02*
X128904031Y-119036215D01*
X128904031Y-119036215D02*
X128862423Y-119202646D01*
X128862423Y-119202646D02*
X128862423Y-119327469D01*
X128862423Y-119327469D02*
X128904031Y-119493899D01*
X128904031Y-119493899D02*
X128945638Y-119577114D01*
X128945638Y-119577114D02*
X129028853Y-119660330D01*
X129028853Y-119660330D02*
X129153676Y-119701937D01*
X129153676Y-119701937D02*
X129361714Y-119701937D01*
X128321524Y-119285861D02*
X128321524Y-119701937D01*
X128612777Y-118828177D02*
X128321524Y-119285861D01*
X128321524Y-119285861D02*
X128030271Y-118828177D01*
X142688007Y-106169785D02*
X142771222Y-106128177D01*
X142771222Y-106128177D02*
X142896045Y-106128177D01*
X142896045Y-106128177D02*
X143020868Y-106169785D01*
X143020868Y-106169785D02*
X143104083Y-106253000D01*
X143104083Y-106253000D02*
X143145690Y-106336215D01*
X143145690Y-106336215D02*
X143187298Y-106502646D01*
X143187298Y-106502646D02*
X143187298Y-106627469D01*
X143187298Y-106627469D02*
X143145690Y-106793899D01*
X143145690Y-106793899D02*
X143104083Y-106877114D01*
X143104083Y-106877114D02*
X143020868Y-106960330D01*
X143020868Y-106960330D02*
X142896045Y-107001937D01*
X142896045Y-107001937D02*
X142812829Y-107001937D01*
X142812829Y-107001937D02*
X142688007Y-106960330D01*
X142688007Y-106960330D02*
X142646399Y-106918722D01*
X142646399Y-106918722D02*
X142646399Y-106627469D01*
X142646399Y-106627469D02*
X142812829Y-106627469D01*
X142271930Y-107001937D02*
X142271930Y-106128177D01*
X142271930Y-106128177D02*
X141772639Y-107001937D01*
X141772639Y-107001937D02*
X141772639Y-106128177D01*
X141356562Y-107001937D02*
X141356562Y-106128177D01*
X141356562Y-106128177D02*
X141148524Y-106128177D01*
X141148524Y-106128177D02*
X141023701Y-106169785D01*
X141023701Y-106169785D02*
X140940486Y-106253000D01*
X140940486Y-106253000D02*
X140898879Y-106336215D01*
X140898879Y-106336215D02*
X140857271Y-106502646D01*
X140857271Y-106502646D02*
X140857271Y-106627469D01*
X140857271Y-106627469D02*
X140898879Y-106793899D01*
X140898879Y-106793899D02*
X140940486Y-106877114D01*
X140940486Y-106877114D02*
X141023701Y-106960330D01*
X141023701Y-106960330D02*
X141148524Y-107001937D01*
X141148524Y-107001937D02*
X141356562Y-107001937D01*
X140148006Y-106128177D02*
X139856753Y-107001937D01*
X139856753Y-107001937D02*
X139565500Y-106128177D01*
X139315854Y-106752291D02*
X138899778Y-106752291D01*
X139399069Y-107001937D02*
X139107816Y-106128177D01*
X139107816Y-106128177D02*
X138816563Y-107001937D01*
D15*
X152940475Y-44954819D02*
X152369047Y-44954819D01*
X152654761Y-45954819D02*
X152654761Y-44954819D01*
X152035713Y-45431009D02*
X151702380Y-45431009D01*
X151559523Y-45954819D02*
X152035713Y-45954819D01*
X152035713Y-45954819D02*
X152035713Y-44954819D01*
X152035713Y-44954819D02*
X151559523Y-44954819D01*
X151130951Y-45431009D02*
X150797618Y-45431009D01*
X150654761Y-45954819D02*
X151130951Y-45954819D01*
X151130951Y-45954819D02*
X151130951Y-44954819D01*
X151130951Y-44954819D02*
X150654761Y-44954819D01*
X150226189Y-45954819D02*
X150226189Y-44954819D01*
X150226189Y-44954819D02*
X149654761Y-45954819D01*
X149654761Y-45954819D02*
X149654761Y-44954819D01*
X149226189Y-45907200D02*
X149083332Y-45954819D01*
X149083332Y-45954819D02*
X148845237Y-45954819D01*
X148845237Y-45954819D02*
X148749999Y-45907200D01*
X148749999Y-45907200D02*
X148702380Y-45859580D01*
X148702380Y-45859580D02*
X148654761Y-45764342D01*
X148654761Y-45764342D02*
X148654761Y-45669104D01*
X148654761Y-45669104D02*
X148702380Y-45573866D01*
X148702380Y-45573866D02*
X148749999Y-45526247D01*
X148749999Y-45526247D02*
X148845237Y-45478628D01*
X148845237Y-45478628D02*
X149035713Y-45431009D01*
X149035713Y-45431009D02*
X149130951Y-45383390D01*
X149130951Y-45383390D02*
X149178570Y-45335771D01*
X149178570Y-45335771D02*
X149226189Y-45240533D01*
X149226189Y-45240533D02*
X149226189Y-45145295D01*
X149226189Y-45145295D02*
X149178570Y-45050057D01*
X149178570Y-45050057D02*
X149130951Y-45002438D01*
X149130951Y-45002438D02*
X149035713Y-44954819D01*
X149035713Y-44954819D02*
X148797618Y-44954819D01*
X148797618Y-44954819D02*
X148654761Y-45002438D01*
X148035713Y-45478628D02*
X148035713Y-45954819D01*
X148369046Y-44954819D02*
X148035713Y-45478628D01*
X148035713Y-45478628D02*
X147702380Y-44954819D01*
X147369046Y-45573866D02*
X146607142Y-45573866D01*
X145702380Y-45288152D02*
X145702380Y-45954819D01*
X145940475Y-44907200D02*
X146178570Y-45621485D01*
X146178570Y-45621485D02*
X145559523Y-45621485D01*
X144654761Y-45954819D02*
X145226189Y-45954819D01*
X144940475Y-45954819D02*
X144940475Y-44954819D01*
X144940475Y-44954819D02*
X145035713Y-45097676D01*
X145035713Y-45097676D02*
X145130951Y-45192914D01*
X145130951Y-45192914D02*
X145226189Y-45240533D01*
X150737500Y-19419819D02*
X150737500Y-20229342D01*
X150737500Y-20229342D02*
X150689881Y-20324580D01*
X150689881Y-20324580D02*
X150642262Y-20372200D01*
X150642262Y-20372200D02*
X150547024Y-20419819D01*
X150547024Y-20419819D02*
X150356548Y-20419819D01*
X150356548Y-20419819D02*
X150261310Y-20372200D01*
X150261310Y-20372200D02*
X150213691Y-20324580D01*
X150213691Y-20324580D02*
X150166072Y-20229342D01*
X150166072Y-20229342D02*
X150166072Y-19419819D01*
X149737500Y-20372200D02*
X149594643Y-20419819D01*
X149594643Y-20419819D02*
X149356548Y-20419819D01*
X149356548Y-20419819D02*
X149261310Y-20372200D01*
X149261310Y-20372200D02*
X149213691Y-20324580D01*
X149213691Y-20324580D02*
X149166072Y-20229342D01*
X149166072Y-20229342D02*
X149166072Y-20134104D01*
X149166072Y-20134104D02*
X149213691Y-20038866D01*
X149213691Y-20038866D02*
X149261310Y-19991247D01*
X149261310Y-19991247D02*
X149356548Y-19943628D01*
X149356548Y-19943628D02*
X149547024Y-19896009D01*
X149547024Y-19896009D02*
X149642262Y-19848390D01*
X149642262Y-19848390D02*
X149689881Y-19800771D01*
X149689881Y-19800771D02*
X149737500Y-19705533D01*
X149737500Y-19705533D02*
X149737500Y-19610295D01*
X149737500Y-19610295D02*
X149689881Y-19515057D01*
X149689881Y-19515057D02*
X149642262Y-19467438D01*
X149642262Y-19467438D02*
X149547024Y-19419819D01*
X149547024Y-19419819D02*
X149308929Y-19419819D01*
X149308929Y-19419819D02*
X149166072Y-19467438D01*
X148404167Y-19896009D02*
X148261310Y-19943628D01*
X148261310Y-19943628D02*
X148213691Y-19991247D01*
X148213691Y-19991247D02*
X148166072Y-20086485D01*
X148166072Y-20086485D02*
X148166072Y-20229342D01*
X148166072Y-20229342D02*
X148213691Y-20324580D01*
X148213691Y-20324580D02*
X148261310Y-20372200D01*
X148261310Y-20372200D02*
X148356548Y-20419819D01*
X148356548Y-20419819D02*
X148737500Y-20419819D01*
X148737500Y-20419819D02*
X148737500Y-19419819D01*
X148737500Y-19419819D02*
X148404167Y-19419819D01*
X148404167Y-19419819D02*
X148308929Y-19467438D01*
X148308929Y-19467438D02*
X148261310Y-19515057D01*
X148261310Y-19515057D02*
X148213691Y-19610295D01*
X148213691Y-19610295D02*
X148213691Y-19705533D01*
X148213691Y-19705533D02*
X148261310Y-19800771D01*
X148261310Y-19800771D02*
X148308929Y-19848390D01*
X148308929Y-19848390D02*
X148404167Y-19896009D01*
X148404167Y-19896009D02*
X148737500Y-19896009D01*
D16*
%TO.C,RIGHT_TRIGGER1*%
X205120000Y-21230000D02*
X205120000Y-26420000D01*
X207880000Y-18580000D02*
X206500000Y-18580000D01*
X207880000Y-19960000D02*
X207880000Y-18580000D01*
X207880000Y-21230000D02*
X205120000Y-21230000D01*
X207880000Y-21230000D02*
X207880000Y-26420000D01*
X207880000Y-26420000D02*
X205120000Y-26420000D01*
%TO.C,LEFT_TRIGGER1*%
X89120000Y-21270000D02*
X89120000Y-26460000D01*
X91880000Y-18620000D02*
X90500000Y-18620000D01*
X91880000Y-20000000D02*
X91880000Y-18620000D01*
X91880000Y-21270000D02*
X89120000Y-21270000D01*
X91880000Y-21270000D02*
X91880000Y-26460000D01*
X91880000Y-26460000D02*
X89120000Y-26460000D01*
D17*
%TO.C,LSM6DSOX_GYRO1*%
X176069996Y-120956122D02*
G75*
G02*
X173529993Y-123496114I-2540058J66D01*
G01*
X173529996Y-105716113D02*
G75*
G02*
X176069981Y-108256116I12J-2539973D01*
G01*
X153209996Y-123496119D02*
G75*
G02*
X150669996Y-120956123I8J2540008D01*
G01*
X150669994Y-108256117D02*
G75*
G02*
X153209995Y-105716116I2539996J5D01*
G01*
X176069992Y-108256116D02*
X176069996Y-120956122D01*
X173529993Y-123496117D02*
X153209996Y-123496119D01*
X153209995Y-105716116D02*
X173529996Y-105716113D01*
X150669996Y-120956123D02*
X150669994Y-108256117D01*
%TO.C,MCP4728_DAC1*%
X148372285Y-120956116D02*
G75*
G02*
X145832285Y-123496116I-2540001J1D01*
G01*
X145832285Y-105716116D02*
G75*
G02*
X148372285Y-108256116I-1J-2540001D01*
G01*
X125512285Y-123496116D02*
G75*
G02*
X122972284Y-120956116I15J2540016D01*
G01*
X122972285Y-108256116D02*
G75*
G02*
X125512285Y-105716115I2540005J-4D01*
G01*
X148372285Y-108256116D02*
X148372285Y-120956116D01*
X145832285Y-123496116D02*
X125512285Y-123496116D01*
X125512285Y-105716116D02*
X145832285Y-105716116D01*
X122972285Y-120956116D02*
X122972285Y-108256116D01*
D15*
%TO.C,TEENSY-41*%
X140585596Y-16155000D02*
X140585596Y-77115000D01*
X140585596Y-77115000D02*
X158365596Y-77115000D01*
X145665596Y-14885000D02*
X145665596Y-16155000D01*
X145665596Y-21235000D02*
X145665596Y-16155000D01*
X153285596Y-14885000D02*
X145665596Y-14885000D01*
X153285596Y-16155000D02*
X153285596Y-14885000D01*
X153285596Y-21235000D02*
X145665596Y-21235000D01*
X153285596Y-21235000D02*
X153285596Y-16155000D01*
X158365596Y-16155000D02*
X140585596Y-16155000D01*
X158365596Y-77115000D02*
X158365596Y-16155000D01*
D10*
%TO.C,AUDIO_JACK3*%
X185651071Y-32100000D02*
X185651071Y-16325000D01*
X185651071Y-32100000D02*
X178151071Y-32100000D01*
X185651071Y-16250000D02*
X178151071Y-16250000D01*
X179111071Y-23600000D02*
X184191071Y-23600000D01*
X179111071Y-16250000D02*
X178501071Y-16250000D01*
X178151071Y-32100000D02*
X178151071Y-16325000D01*
%TO.C,AUDIO_JACK2*%
X134250000Y-32175000D02*
X134250000Y-16400000D01*
X134250000Y-32175000D02*
X126750000Y-32175000D01*
X134250000Y-16325000D02*
X126750000Y-16325000D01*
X127710000Y-23675000D02*
X132790000Y-23675000D01*
X127710000Y-16325000D02*
X127100000Y-16325000D01*
X126750000Y-32175000D02*
X126750000Y-16400000D01*
%TO.C,AUDIO_JACK1*%
X121250000Y-32175000D02*
X121250000Y-16400000D01*
X121250000Y-32175000D02*
X113750000Y-32175000D01*
X121250000Y-16325000D02*
X113750000Y-16325000D01*
X114710000Y-23675000D02*
X119790000Y-23675000D01*
X114710000Y-16325000D02*
X114100000Y-16325000D01*
X113750000Y-32175000D02*
X113750000Y-16400000D01*
%TO.C,AUDIO_JACK4*%
X165250000Y-32100000D02*
X165250000Y-16325000D01*
X166210000Y-16250000D02*
X165600000Y-16250000D01*
X166210000Y-23600000D02*
X171290000Y-23600000D01*
X172750000Y-16250000D02*
X165250000Y-16250000D01*
X172750000Y-32100000D02*
X165250000Y-32100000D01*
X172750000Y-32100000D02*
X172750000Y-16325000D01*
%TD*%
M02*
